<svg id="svg" version="1.1" xmlns="http://www.w3.org/2000/svg" xmlns:xlink="http://www.w3.org/1999/xlink" width="400" height="100.04093327875563" viewBox="0, 0, 400,100.04093327875563"><g id="svgg"><path id="path0" d="M4.278 18.778 C 4.217 18.839,4.167 28.476,4.167 40.194 L 4.167 61.500 8.163 61.500 L 12.160 61.500 12.254 61.125 C 12.306 60.919,12.326 54.223,12.299 46.246 L 12.250 31.741 12.761 32.579 C 14.352 35.188,14.428 35.300,15.352 36.399 C 15.592 36.684,16.434 37.779,17.224 38.833 C 18.013 39.887,18.728 40.832,18.812 40.932 C 18.896 41.033,19.087 41.351,19.237 41.641 C 19.386 41.930,19.580 42.167,19.668 42.167 C 19.755 42.167,19.971 42.448,20.148 42.792 C 20.326 43.135,20.709 43.679,21.000 44.000 C 21.499 44.551,27.242 52.059,28.500 53.806 C 28.821 54.252,29.372 55.003,29.724 55.475 L 30.365 56.333 31.516 56.333 C 32.149 56.333,32.667 56.277,32.668 56.208 C 32.668 56.140,33.062 55.586,33.543 54.978 C 34.023 54.369,34.529 53.706,34.667 53.504 C 34.804 53.302,35.067 52.962,35.250 52.748 C 35.433 52.534,35.771 52.086,36.000 51.753 C 36.229 51.419,36.510 51.044,36.625 50.919 C 36.740 50.793,36.833 50.610,36.833 50.512 C 36.833 50.414,36.908 50.333,37.000 50.333 C 37.092 50.333,37.167 50.258,37.167 50.166 C 37.167 50.074,38.085 48.792,39.208 47.317 C 44.379 40.529,45.757 38.689,46.287 37.865 C 46.600 37.378,47.356 36.366,47.967 35.615 C 48.577 34.864,49.378 33.676,49.747 32.975 L 50.417 31.701 50.365 46.600 L 50.314 61.500 54.987 61.500 L 59.660 61.500 59.751 61.125 C 59.801 60.919,59.821 51.300,59.796 39.750 L 59.750 18.750 55.726 18.705 L 51.701 18.661 51.309 19.134 C 51.093 19.394,50.729 19.859,50.500 20.167 C 50.271 20.474,49.605 21.331,49.019 22.071 C 48.434 22.811,47.836 23.604,47.690 23.833 C 47.544 24.063,47.348 24.305,47.254 24.372 C 47.160 24.440,47.143 24.496,47.215 24.497 C 47.287 24.499,47.250 24.615,47.132 24.756 C 47.013 24.896,46.840 25.103,46.747 25.214 C 46.653 25.326,46.287 25.815,45.933 26.302 C 45.580 26.789,45.154 27.351,44.987 27.552 C 44.132 28.581,39.838 34.184,37.760 36.982 C 37.583 37.221,36.535 38.617,35.433 40.083 C 34.330 41.550,33.166 43.103,32.845 43.533 C 32.524 43.964,32.252 44.302,32.240 44.283 C 32.229 44.265,31.251 43.013,30.068 41.501 C 28.885 39.990,27.738 38.490,27.521 38.168 C 27.303 37.846,27.052 37.537,26.964 37.481 C 26.875 37.424,26.716 37.228,26.610 37.044 C 26.420 36.715,25.754 35.870,21.083 30.033 C 19.800 28.429,18.412 26.646,18.000 26.071 C 17.202 24.958,17.061 24.775,14.789 21.920 C 13.082 19.773,13.181 19.902,12.692 19.208 L 12.311 18.667 8.350 18.667 C 6.171 18.667,4.339 18.717,4.278 18.778 M95.820 19.125 C 95.690 19.377,95.538 19.621,95.482 19.667 C 95.426 19.712,95.099 20.275,94.756 20.917 C 94.412 21.558,94.055 22.177,93.962 22.292 C 93.869 22.406,93.851 22.500,93.922 22.500 C 93.993 22.500,93.932 22.633,93.785 22.795 C 93.638 22.957,93.382 23.388,93.215 23.753 C 93.047 24.118,92.550 25.054,92.109 25.833 C 91.668 26.613,91.182 27.475,91.029 27.750 C 90.875 28.025,90.712 28.287,90.667 28.333 C 90.580 28.420,90.425 28.687,89.706 29.987 C 89.474 30.407,88.984 31.275,88.618 31.917 C 88.252 32.558,87.527 33.833,87.006 34.750 C 85.254 37.835,85.112 38.082,84.809 38.583 C 84.643 38.858,84.342 39.421,84.141 39.833 C 83.529 41.085,81.314 45.038,80.809 45.779 C 80.548 46.162,80.260 46.649,80.168 46.862 C 80.076 47.076,79.929 47.362,79.840 47.500 C 79.462 48.090,77.167 52.186,77.167 52.272 C 77.167 52.323,77.027 52.564,76.857 52.808 C 76.489 53.334,75.837 54.483,74.998 56.083 C 74.662 56.725,73.883 58.142,73.267 59.232 C 72.629 60.361,72.210 61.277,72.293 61.360 C 72.373 61.440,74.646 61.485,77.344 61.461 L 82.250 61.417 82.583 60.750 C 82.767 60.383,82.958 60.046,83.009 60.000 C 83.059 59.954,83.232 59.617,83.392 59.250 C 83.810 58.297,85.681 54.630,85.902 54.333 C 86.005 54.196,86.312 53.652,86.586 53.126 L 87.083 52.168 100.450 52.167 L 113.817 52.167 114.430 53.292 C 114.768 53.910,115.437 55.129,115.918 56.000 C 116.399 56.871,117.111 58.183,117.499 58.917 C 117.888 59.650,118.361 60.531,118.550 60.875 L 118.895 61.500 124.531 61.500 C 128.281 61.500,130.167 61.443,130.167 61.329 C 130.167 61.089,129.279 59.356,128.523 58.119 C 128.174 57.550,127.699 56.746,127.467 56.333 C 127.234 55.921,126.258 54.233,125.297 52.583 C 123.626 49.712,123.293 49.131,122.237 47.250 C 121.980 46.792,121.728 46.379,121.677 46.333 C 121.533 46.205,121.241 45.683,120.652 44.500 C 120.355 43.904,119.824 42.940,119.473 42.358 C 119.121 41.776,118.833 41.264,118.833 41.221 C 118.833 41.178,118.624 40.830,118.368 40.447 C 118.112 40.064,117.812 39.563,117.702 39.333 C 117.505 38.922,117.344 38.652,116.811 37.834 C 116.661 37.604,116.391 37.154,116.209 36.833 C 116.028 36.512,115.144 34.975,114.245 33.417 C 113.346 31.858,112.386 30.171,112.112 29.667 C 111.326 28.219,109.383 24.835,107.664 21.917 C 107.178 21.092,106.644 20.154,106.477 19.833 C 105.823 18.579,106.243 18.667,100.885 18.667 L 96.056 18.667 95.820 19.125 M130.417 18.833 C 130.360 18.925,130.393 19.000,130.490 19.000 C 130.587 19.000,130.655 19.056,130.640 19.125 C 130.593 19.348,132.485 22.796,133.499 24.333 C 133.590 24.471,133.854 24.921,134.086 25.333 C 134.318 25.746,134.852 26.646,135.272 27.333 C 136.252 28.937,138.987 33.666,139.562 34.750 C 139.804 35.208,140.076 35.696,140.166 35.833 C 140.477 36.313,144.167 42.707,144.167 42.768 C 144.167 42.802,144.485 43.341,144.875 43.966 C 145.265 44.590,145.673 45.247,145.783 45.426 C 145.980 45.747,148.857 50.777,149.209 51.417 C 149.310 51.600,149.510 51.975,149.655 52.250 C 149.799 52.525,149.954 52.787,150.000 52.833 C 150.046 52.879,150.196 53.124,150.333 53.378 C 151.038 54.681,154.754 60.956,154.969 61.208 C 155.191 61.468,155.584 61.500,158.570 61.500 L 161.922 61.500 162.352 60.708 C 163.626 58.367,165.686 54.634,166.147 53.833 C 166.437 53.329,166.803 52.635,166.960 52.292 C 167.117 51.948,167.303 51.667,167.373 51.667 C 167.443 51.667,167.500 51.553,167.500 51.413 C 167.500 51.274,167.688 50.863,167.917 50.500 C 168.146 50.137,168.333 49.810,168.333 49.772 C 168.333 49.714,169.574 47.471,170.834 45.250 C 172.600 42.138,176.667 34.802,176.667 34.728 C 176.667 34.647,179.739 29.097,181.025 26.854 C 181.268 26.430,181.670 25.708,181.918 25.250 C 182.527 24.125,183.905 21.670,184.706 20.281 C 185.066 19.656,185.320 19.038,185.269 18.906 C 185.160 18.623,175.333 18.540,175.333 18.821 C 175.333 18.907,175.226 19.083,175.096 19.214 C 174.965 19.344,174.743 19.706,174.602 20.017 C 174.460 20.329,174.072 21.071,173.738 21.667 C 173.405 22.262,172.588 23.762,171.924 25.000 C 171.260 26.238,170.482 27.662,170.196 28.167 C 169.909 28.671,169.392 29.646,169.046 30.333 C 168.700 31.021,168.342 31.638,168.250 31.706 C 168.158 31.773,168.145 31.829,168.220 31.831 C 168.296 31.832,168.203 32.030,168.014 32.270 C 167.826 32.510,167.712 32.772,167.762 32.853 C 167.812 32.934,167.786 33.000,167.704 33.000 C 167.622 33.000,167.552 33.094,167.547 33.208 C 167.543 33.323,167.143 34.129,166.659 35.000 C 166.176 35.871,165.638 36.846,165.465 37.167 C 165.292 37.487,164.942 38.125,164.688 38.583 C 164.433 39.042,163.923 39.979,163.554 40.667 C 163.185 41.354,162.441 42.742,161.901 43.750 C 161.360 44.758,160.842 45.709,160.750 45.862 C 160.659 46.015,160.358 46.577,160.083 47.112 C 159.808 47.646,159.490 48.182,159.375 48.304 C 159.260 48.425,159.167 48.631,159.167 48.762 C 159.167 49.268,158.891 48.951,158.250 47.709 C 157.883 46.999,157.389 46.080,157.152 45.667 C 156.562 44.642,154.504 40.974,153.832 39.750 C 153.530 39.200,153.106 38.489,152.891 38.170 C 152.676 37.850,152.500 37.525,152.500 37.445 C 152.500 37.366,152.356 37.099,152.179 36.851 C 151.734 36.225,149.515 32.304,148.764 30.814 C 147.870 29.043,147.168 27.790,146.900 27.487 C 146.772 27.342,146.667 27.180,146.667 27.127 C 146.667 27.037,143.531 21.392,143.171 20.833 C 143.082 20.696,142.814 20.209,142.575 19.752 C 142.336 19.294,142.052 18.864,141.945 18.796 C 141.640 18.602,130.538 18.638,130.417 18.833 M102.700 31.292 C 103.760 33.377,105.318 36.358,106.162 37.917 C 107.006 39.475,108.107 41.537,108.607 42.500 L 109.517 44.250 100.649 44.293 C 95.771 44.317,91.751 44.307,91.715 44.271 C 91.626 44.181,94.498 38.583,96.002 35.917 C 97.193 33.805,97.799 32.691,99.652 29.199 C 100.149 28.265,100.604 27.500,100.664 27.500 C 100.724 27.500,101.640 29.206,102.700 31.292 M196.610 29.240 C 196.550 29.398,196.500 36.721,196.500 45.514 L 196.500 61.500 201.583 61.500 L 206.667 61.500 206.661 51.292 L 206.655 41.083 205.452 39.647 C 204.791 38.856,203.537 37.330,202.667 36.255 C 200.517 33.601,200.451 33.521,198.795 31.543 C 197.995 30.587,197.201 29.613,197.030 29.379 C 196.759 29.006,196.707 28.989,196.610 29.240 " stroke="none" fill="#04bcbc" fill-rule="evenodd"></path><path id="path1" d="M196.509 21.542 L 196.518 24.417 197.678 25.750 C 199.159 27.451,204.525 33.958,205.468 35.196 C 206.747 36.875,206.667 37.388,206.667 27.495 L 206.667 18.667 201.583 18.667 L 196.500 18.667 196.509 21.542 M217.861 18.818 C 217.930 19.007,222.852 24.315,225.752 27.330 C 226.944 28.569,229.607 31.376,231.668 33.567 C 233.730 35.758,236.448 38.646,237.708 39.984 L 239.999 42.417 240.000 51.958 L 240.000 61.500 245.083 61.500 L 250.167 61.500 250.167 51.900 L 250.167 42.299 251.188 41.108 C 251.750 40.453,253.843 38.229,255.840 36.167 C 257.837 34.104,259.746 32.079,260.083 31.667 C 260.420 31.254,262.330 29.229,264.327 27.167 C 268.054 23.317,271.996 19.014,271.999 18.792 C 271.999 18.723,269.378 18.667,266.174 18.667 L 260.349 18.667 257.049 22.289 C 255.235 24.281,253.225 26.478,252.583 27.172 C 251.942 27.866,250.151 29.836,248.604 31.550 C 247.057 33.264,245.741 34.667,245.679 34.667 C 245.617 34.667,244.655 33.635,243.543 32.375 C 239.737 28.064,239.246 27.515,236.248 24.218 C 234.597 22.402,232.806 20.410,232.269 19.792 L 231.293 18.667 224.549 18.667 C 220.582 18.667,217.828 18.729,217.861 18.818 M288.333 18.775 C 283.652 19.543,282.057 20.900,281.219 24.833 C 280.759 26.991,280.756 53.173,281.216 55.304 C 281.991 58.896,283.520 60.369,287.250 61.116 C 289.453 61.558,325.172 61.577,327.167 61.138 C 331.062 60.280,332.607 58.745,333.243 55.099 C 333.668 52.657,333.619 26.848,333.184 24.742 C 332.499 21.421,331.218 20.019,328.054 19.124 L 326.750 18.755 307.750 18.731 C 297.300 18.718,288.563 18.737,288.333 18.775 M353.910 18.875 C 353.867 18.990,353.850 28.608,353.874 40.250 L 353.917 61.417 374.875 61.459 L 395.833 61.501 395.833 57.334 L 395.833 53.167 380.000 53.167 L 364.167 53.167 364.167 35.917 L 364.167 18.667 359.078 18.667 C 355.161 18.667,353.971 18.715,353.910 18.875 M323.333 39.917 L 323.333 53.167 307.167 53.167 L 291.000 53.167 291.000 39.917 L 291.000 26.667 307.167 26.667 L 323.333 26.667 323.333 39.917 M4.667 75.000 C 4.357 75.309,4.333 75.556,4.333 78.413 C 4.333 82.357,3.952 82.037,8.575 81.968 C 12.512 81.909,12.327 81.987,12.331 80.383 L 12.333 79.349 11.708 79.175 C 10.578 78.861,10.500 78.904,10.500 79.833 L 10.500 80.667 8.333 80.667 L 6.167 80.667 6.167 78.417 L 6.167 76.167 8.333 76.167 L 10.500 76.167 10.500 76.833 C 10.500 77.562,10.653 77.628,11.813 77.396 C 12.325 77.293,12.333 77.276,12.333 76.313 C 12.333 74.677,12.308 74.667,8.333 74.667 C 5.222 74.667,4.978 74.689,4.667 75.000 M15.833 75.000 C 15.465 75.368,15.318 81.121,15.663 81.667 C 15.907 82.053,23.522 82.133,24.099 81.755 C 24.499 81.493,24.500 81.481,24.500 78.413 C 24.500 74.309,24.929 74.667,20.000 74.667 C 16.389 74.667,16.147 74.686,15.833 75.000 M27.833 78.333 L 27.833 82.000 28.579 82.000 L 29.324 82.000 29.370 79.726 L 29.417 77.452 32.072 79.673 C 34.642 81.822,34.757 81.897,35.614 81.968 L 36.500 82.041 36.500 78.354 L 36.500 74.667 35.671 74.667 L 34.842 74.667 34.796 77.001 L 34.750 79.335 31.923 77.001 C 29.388 74.908,29.031 74.667,28.465 74.667 L 27.833 74.667 27.833 78.333 M40.362 75.052 C 40.048 75.387,40.000 75.629,40.000 76.886 C 40.000 79.028,39.953 79.000,43.500 79.000 L 46.333 79.000 46.333 79.833 L 46.333 80.667 43.833 80.667 L 41.333 80.667 41.333 80.145 C 41.333 79.627,41.329 79.625,40.641 79.735 C 39.710 79.884,39.667 79.924,39.667 80.645 C 39.667 81.895,39.715 81.911,43.528 81.961 C 47.932 82.019,47.735 82.115,47.797 79.876 C 47.865 77.445,47.943 77.500,44.417 77.500 L 41.667 77.500 41.667 76.833 L 41.667 76.167 43.917 76.167 L 46.167 76.167 46.167 76.602 C 46.167 77.020,46.950 77.090,47.540 76.725 C 47.838 76.541,47.662 75.387,47.281 75.029 C 46.665 74.451,40.909 74.470,40.362 75.052 M49.333 75.417 L 49.333 76.167 51.000 76.167 L 52.667 76.167 52.667 79.083 L 52.667 82.000 53.583 82.000 L 54.500 82.000 54.500 79.083 L 54.500 76.167 56.083 76.167 L 57.667 76.167 57.667 75.417 L 57.667 74.667 53.500 74.667 L 49.333 74.667 49.333 75.417 M59.667 78.333 L 59.667 82.000 60.583 82.000 L 61.500 82.000 61.500 80.667 L 61.500 79.333 62.197 79.333 C 62.843 79.333,62.993 79.430,64.260 80.667 L 65.626 82.000 66.995 82.000 L 68.364 82.000 66.814 80.708 L 65.264 79.417 66.007 79.364 C 67.275 79.274,67.500 78.914,67.500 76.977 C 67.500 74.575,67.670 74.667,63.219 74.667 L 59.667 74.667 59.667 78.333 M70.836 78.042 C 70.837 79.898,70.910 81.529,70.996 81.667 C 71.129 81.877,71.754 81.917,74.917 81.917 C 78.079 81.917,78.704 81.877,78.837 81.667 C 78.924 81.529,78.996 79.898,78.997 78.042 L 79.000 74.667 78.083 74.667 L 77.167 74.667 77.167 77.667 L 77.167 80.667 74.917 80.667 L 72.667 80.667 72.667 77.667 L 72.667 74.667 71.750 74.667 L 70.833 74.667 70.836 78.042 M82.833 75.000 C 82.465 75.368,82.318 81.121,82.663 81.667 C 82.793 81.873,83.429 81.926,86.318 81.968 C 90.492 82.028,90.500 82.025,90.500 80.341 L 90.500 79.349 89.875 79.175 C 88.745 78.861,88.667 78.904,88.667 79.833 L 88.667 80.667 86.417 80.667 L 84.167 80.667 84.167 78.417 L 84.167 76.167 86.417 76.167 L 88.667 76.167 88.667 76.833 C 88.667 77.562,88.820 77.628,89.979 77.396 C 90.492 77.293,90.500 77.276,90.500 76.313 C 90.500 74.677,90.474 74.667,86.500 74.667 C 83.389 74.667,83.144 74.689,82.833 75.000 M92.167 75.417 L 92.167 76.167 93.750 76.167 L 95.333 76.167 95.333 79.083 L 95.333 82.000 96.250 82.000 L 97.167 82.000 97.167 79.083 L 97.167 76.167 98.833 76.167 L 100.500 76.167 100.500 75.417 L 100.500 74.667 96.333 74.667 L 92.167 74.667 92.167 75.417 M102.444 74.778 C 102.383 74.839,102.333 76.489,102.333 78.444 L 102.333 82.000 103.250 82.000 L 104.167 82.000 104.167 78.333 L 104.167 74.667 103.361 74.667 C 102.918 74.667,102.506 74.717,102.444 74.778 M107.833 75.000 C 107.465 75.368,107.318 81.121,107.663 81.667 C 107.797 81.878,108.467 81.917,112.000 81.917 C 117.002 81.917,116.494 82.317,116.497 78.375 C 116.501 74.315,116.927 74.667,112.000 74.667 C 108.389 74.667,108.147 74.686,107.833 75.000 M120.000 78.333 L 120.000 82.000 120.745 82.000 L 121.491 82.000 121.537 79.726 L 121.583 77.452 124.239 79.673 C 126.809 81.822,126.924 81.897,127.781 81.968 L 128.667 82.041 128.667 78.354 L 128.667 74.667 127.838 74.667 L 127.009 74.667 126.963 77.001 L 126.917 79.335 124.090 77.001 C 121.555 74.908,121.198 74.667,120.632 74.667 L 120.000 74.667 120.000 78.333 M147.333 78.333 L 147.333 82.000 151.083 82.000 L 154.833 82.000 154.833 81.333 L 154.833 80.667 151.917 80.667 L 149.000 80.667 149.000 79.833 L 149.000 79.000 150.667 79.000 L 152.333 79.000 152.333 78.250 L 152.333 77.500 150.667 77.500 L 149.000 77.500 149.000 76.833 L 149.000 76.167 151.917 76.167 L 154.833 76.167 154.833 75.417 L 154.833 74.667 151.083 74.667 L 147.333 74.667 147.333 78.333 M157.833 78.333 L 157.833 82.000 158.579 82.000 L 159.324 82.000 159.370 79.726 L 159.417 77.452 162.072 79.673 C 164.642 81.822,164.757 81.897,165.614 81.968 L 166.500 82.041 166.500 78.354 L 166.500 74.667 165.671 74.667 L 164.842 74.667 164.796 77.001 L 164.750 79.335 161.923 77.001 C 159.388 74.908,159.031 74.667,158.465 74.667 L 157.833 74.667 157.833 78.333 M170.000 75.000 C 169.691 75.309,169.667 75.556,169.667 78.413 C 169.667 82.373,169.231 82.035,174.241 81.967 C 178.678 81.908,178.327 82.109,178.331 79.625 L 178.333 77.833 176.083 77.833 L 173.833 77.833 173.833 78.583 L 173.833 79.333 175.250 79.333 L 176.667 79.333 176.667 80.000 L 176.667 80.667 174.083 80.667 L 171.500 80.667 171.500 78.417 L 171.500 76.167 174.083 76.167 L 176.667 76.167 176.667 76.605 C 176.667 77.019,176.702 77.038,177.292 76.940 C 177.635 76.883,178.010 76.836,178.125 76.835 C 178.518 76.832,178.381 75.436,177.948 75.029 C 177.373 74.489,170.536 74.464,170.000 75.000 M181.667 78.333 L 181.667 82.000 182.583 82.000 L 183.500 82.000 183.500 78.333 L 183.500 74.667 182.583 74.667 L 181.667 74.667 181.667 78.333 M187.000 78.333 L 187.000 82.000 187.829 82.000 L 188.657 82.000 188.704 79.726 L 188.750 77.452 191.402 79.670 C 193.867 81.731,194.110 81.893,194.860 81.965 L 195.667 82.042 195.667 78.355 L 195.667 74.667 194.921 74.667 L 194.176 74.667 194.130 77.001 L 194.083 79.335 191.257 77.001 C 188.594 74.802,188.388 74.667,187.715 74.667 L 187.000 74.667 187.000 78.333 M199.000 78.333 L 199.000 82.000 202.750 82.000 L 206.500 82.000 206.500 81.333 L 206.500 80.667 203.667 80.667 L 200.833 80.667 200.833 79.833 L 200.833 79.000 202.500 79.000 L 204.167 79.000 204.167 78.250 L 204.167 77.500 202.500 77.500 L 200.833 77.500 200.833 76.833 L 200.833 76.167 203.667 76.167 L 206.500 76.167 206.500 75.417 L 206.500 74.667 202.750 74.667 L 199.000 74.667 199.000 78.333 M209.500 78.333 L 209.500 82.000 213.250 82.000 L 217.000 82.000 217.000 81.333 L 217.000 80.667 214.167 80.667 L 211.333 80.667 211.333 79.833 L 211.333 79.000 212.917 79.000 L 214.500 79.000 214.500 78.250 L 214.500 77.500 212.917 77.500 L 211.333 77.500 211.333 76.833 L 211.333 76.167 214.167 76.167 L 217.000 76.167 217.000 75.417 L 217.000 74.667 213.250 74.667 L 209.500 74.667 209.500 78.333 M220.000 78.333 L 220.000 82.000 220.917 82.000 L 221.833 82.000 221.833 80.667 L 221.833 79.333 222.470 79.333 C 223.043 79.333,223.238 79.466,224.439 80.667 L 225.773 82.000 227.235 82.000 L 228.697 82.000 227.147 80.708 L 225.597 79.417 226.340 79.364 C 227.608 79.274,227.833 78.914,227.833 76.977 C 227.833 74.575,228.003 74.667,223.552 74.667 L 220.000 74.667 220.000 78.333 M231.167 78.333 L 231.167 82.000 232.000 82.000 L 232.833 82.000 232.833 78.333 L 232.833 74.667 232.000 74.667 L 231.167 74.667 231.167 78.333 M236.500 78.333 L 236.500 82.000 237.329 82.000 L 238.157 82.000 238.204 79.725 L 238.250 77.450 240.397 79.267 C 243.636 82.007,243.626 82.000,244.446 82.000 L 245.167 82.000 245.167 78.333 L 245.167 74.667 244.333 74.667 L 243.500 74.667 243.500 77.011 L 243.500 79.356 243.042 79.028 C 242.790 78.847,242.321 78.437,242.000 78.115 C 240.159 76.272,237.929 74.667,237.210 74.667 L 236.500 74.667 236.500 78.333 M248.667 75.000 C 248.299 75.368,248.152 81.121,248.496 81.667 C 248.627 81.874,249.293 81.925,252.426 81.967 C 257.262 82.032,257.000 82.164,257.000 79.663 L 257.000 77.833 254.667 77.833 L 252.333 77.833 252.333 78.583 L 252.333 79.333 253.750 79.333 L 255.167 79.333 255.167 80.000 L 255.167 80.667 252.667 80.667 L 250.167 80.667 250.167 78.417 L 250.167 76.167 252.667 76.167 L 255.167 76.167 255.167 76.583 C 255.167 77.036,255.302 77.070,256.375 76.893 C 257.167 76.762,257.306 75.679,256.614 75.029 C 256.039 74.489,249.203 74.464,248.667 75.000 M276.415 78.182 C 275.316 80.123,274.392 81.776,274.361 81.856 C 274.331 81.935,274.760 82.000,275.314 82.000 C 276.317 82.000,276.326 81.996,276.703 81.335 L 277.083 80.669 279.186 80.668 L 281.289 80.667 281.730 81.333 C 282.170 81.997,282.176 82.000,283.252 82.000 C 284.578 82.000,284.683 82.403,282.277 78.250 L 280.250 74.750 279.331 74.701 L 278.413 74.652 276.415 78.182 M286.500 78.333 L 286.500 82.000 287.417 82.000 L 288.333 82.000 288.333 80.667 L 288.333 79.333 288.947 79.333 C 289.489 79.333,289.720 79.489,290.927 80.667 L 292.293 82.000 293.745 82.000 L 295.197 82.000 293.647 80.708 L 292.097 79.417 292.840 79.364 C 294.108 79.274,294.333 78.914,294.333 76.977 C 294.333 74.575,294.503 74.667,290.052 74.667 L 286.500 74.667 286.500 78.333 M297.833 75.000 C 297.379 75.455,297.317 81.293,297.762 81.738 C 297.983 81.959,298.556 82.000,301.429 82.000 C 305.489 82.000,305.500 81.996,305.500 80.341 L 305.500 79.349 304.875 79.175 C 303.745 78.861,303.667 78.904,303.667 79.833 L 303.667 80.667 301.417 80.667 L 299.167 80.667 299.167 78.417 L 299.167 76.167 301.417 76.167 L 303.667 76.167 303.667 76.833 C 303.667 77.562,303.820 77.628,304.979 77.396 C 305.492 77.293,305.500 77.276,305.500 76.313 C 305.500 74.677,305.474 74.667,301.500 74.667 C 298.389 74.667,298.144 74.689,297.833 75.000 M308.500 78.333 L 308.500 82.000 309.417 82.000 L 310.333 82.000 310.333 80.500 L 310.333 79.000 312.917 79.000 L 315.500 79.000 315.500 80.500 L 315.500 82.000 316.333 82.000 L 317.167 82.000 317.167 78.333 L 317.167 74.667 316.333 74.667 L 315.500 74.667 315.500 76.083 L 315.500 77.500 312.917 77.500 L 310.333 77.500 310.333 76.083 L 310.333 74.667 309.417 74.667 L 308.500 74.667 308.500 78.333 M320.833 78.333 L 320.833 82.000 321.750 82.000 L 322.667 82.000 322.667 78.333 L 322.667 74.667 321.750 74.667 L 320.833 74.667 320.833 78.333 M324.667 75.417 L 324.667 76.167 326.250 76.167 L 327.833 76.167 327.833 79.083 L 327.833 82.000 328.750 82.000 L 329.667 82.000 329.667 79.083 L 329.667 76.167 331.333 76.167 L 333.000 76.167 333.000 75.417 L 333.000 74.667 328.833 74.667 L 324.667 74.667 324.667 75.417 M334.944 74.778 C 334.883 74.839,334.833 76.489,334.833 78.444 L 334.833 82.000 338.667 82.000 L 342.500 82.000 342.500 81.333 L 342.500 80.667 339.583 80.667 L 336.667 80.667 336.667 79.833 L 336.667 79.000 338.333 79.000 L 340.000 79.000 340.000 78.250 L 340.000 77.500 338.333 77.500 L 336.667 77.500 336.667 76.833 L 336.667 76.167 339.583 76.167 L 342.500 76.167 342.500 75.417 L 342.500 74.667 338.778 74.667 C 336.731 74.667,335.006 74.717,334.944 74.778 M345.340 75.031 C 345.024 75.370,345.000 75.608,345.000 78.365 C 345.000 82.314,344.648 82.000,349.083 82.000 C 353.157 82.000,353.167 81.996,353.167 80.341 L 353.167 79.349 352.542 79.175 C 351.411 78.861,351.333 78.904,351.333 79.833 L 351.333 80.667 349.083 80.667 L 346.833 80.667 346.833 78.417 L 346.833 76.167 349.083 76.167 L 351.333 76.167 351.333 76.833 C 351.333 77.562,351.487 77.628,352.646 77.396 C 353.362 77.253,353.434 75.752,352.758 75.076 C 352.150 74.469,345.899 74.431,345.340 75.031 M354.667 75.417 L 354.667 76.167 356.333 76.167 L 358.000 76.167 358.000 79.083 L 358.000 82.000 358.917 82.000 L 359.833 82.000 359.833 79.083 L 359.833 76.167 361.417 76.167 L 363.000 76.167 363.000 75.417 L 363.000 74.667 358.833 74.667 L 354.667 74.667 354.667 75.417 M365.000 78.000 C 365.000 82.409,364.596 82.034,369.265 81.967 C 373.587 81.906,373.161 82.335,373.164 78.042 L 373.167 74.667 372.333 74.667 L 371.500 74.667 371.500 77.667 L 371.500 80.667 369.167 80.667 L 366.833 80.667 366.833 77.667 L 366.833 74.667 365.917 74.667 L 365.000 74.667 365.000 78.000 M376.833 78.333 L 376.833 82.000 377.750 82.000 L 378.667 82.000 378.667 80.667 L 378.667 79.333 379.379 79.333 C 380.048 79.333,380.172 79.415,381.417 80.667 L 382.742 82.000 384.136 82.000 L 385.530 82.000 383.980 80.708 L 382.430 79.417 383.173 79.364 C 384.442 79.274,384.667 78.914,384.667 76.977 C 384.667 74.575,384.837 74.667,380.385 74.667 L 376.833 74.667 376.833 78.333 M388.000 78.333 L 388.000 82.000 391.750 82.000 L 395.500 82.000 395.500 81.333 L 395.500 80.667 392.667 80.667 L 389.833 80.667 389.833 79.833 L 389.833 79.000 391.417 79.000 L 393.000 79.000 393.000 78.250 L 393.000 77.500 391.417 77.500 L 389.833 77.500 389.833 76.833 L 389.833 76.167 392.667 76.167 L 395.500 76.167 395.500 75.417 L 395.500 74.667 391.750 74.667 L 388.000 74.667 388.000 78.333 M22.667 78.417 L 22.667 80.667 20.000 80.667 L 17.333 80.667 17.333 78.417 L 17.333 76.167 20.000 76.167 L 22.667 76.167 22.667 78.417 M65.467 76.367 C 65.577 76.477,65.667 76.762,65.667 77.000 C 65.667 77.740,65.412 77.833,63.383 77.833 L 61.500 77.833 61.500 77.000 L 61.500 76.167 63.383 76.167 C 64.626 76.167,65.335 76.235,65.467 76.367 M114.667 78.417 L 114.667 80.667 112.000 80.667 L 109.333 80.667 109.333 78.417 L 109.333 76.167 112.000 76.167 L 114.667 76.167 114.667 78.417 M225.678 76.339 C 225.884 76.450,226.000 76.688,226.000 77.000 C 226.000 77.699,225.613 77.833,223.594 77.833 L 221.833 77.833 221.833 77.000 L 221.833 76.167 223.594 76.167 C 224.563 76.167,225.500 76.244,225.678 76.339 M292.178 76.339 C 292.384 76.450,292.500 76.688,292.500 77.000 C 292.500 77.699,292.113 77.833,290.094 77.833 L 288.333 77.833 288.333 77.000 L 288.333 76.167 290.094 76.167 C 291.063 76.167,292.000 76.244,292.178 76.339 M382.511 76.339 C 382.717 76.450,382.833 76.688,382.833 77.000 C 382.833 77.699,382.447 77.833,380.428 77.833 L 378.667 77.833 378.667 77.000 L 378.667 76.167 380.428 76.167 C 381.396 76.167,382.334 76.244,382.511 76.339 M279.879 77.917 L 280.497 79.167 279.249 79.167 C 278.562 79.167,278.000 79.134,278.000 79.094 C 278.000 79.053,278.225 78.611,278.500 78.109 C 278.775 77.608,279.000 77.079,279.000 76.933 C 279.000 76.390,279.277 76.700,279.879 77.917 M136.167 78.333 L 136.167 79.167 137.833 79.167 L 139.500 79.167 139.500 78.333 L 139.500 77.500 137.833 77.500 L 136.167 77.500 136.167 78.333 M264.667 78.333 L 264.667 79.167 266.417 79.167 L 268.167 79.167 268.167 78.333 L 268.167 77.500 266.417 77.500 L 264.667 77.500 264.667 78.333 " stroke="none" fill="#242424" fill-rule="evenodd"></path><path id="path2" d="" stroke="none" fill="#1498c0" fill-rule="evenodd"></path><path id="path3" d="" stroke="none" fill="#144874" fill-rule="evenodd"></path><path id="path4" d="" stroke="none" fill="#144c24" fill-rule="evenodd"></path></g></svg>