<svg id="svg" version="1.1" xmlns="http://www.w3.org/2000/svg" xmlns:xlink="http://www.w3.org/1999/xlink" width="400" height="442.7586206896552" viewBox="0, 0, 400,442.7586206896552"><g id="svgg"><path id="path0" d="M187.334 74.466 C 187.480 112.783,187.600 172.202,187.600 206.508 L 187.600 268.884 189.100 268.691 C 190.848 268.467,203.592 266.641,209.400 265.784 C 211.600 265.459,216.730 264.742,220.800 264.191 C 224.870 263.640,231.080 262.741,234.600 262.194 C 238.120 261.646,243.880 260.833,247.400 260.387 C 250.920 259.941,254.729 259.392,255.864 259.167 C 256.999 258.942,262.399 258.147,267.864 257.400 C 294.285 253.789,298.369 253.215,300.600 252.805 C 301.920 252.562,306.870 251.836,311.600 251.192 C 323.037 249.634,339.829 247.307,341.703 247.020 L 343.205 246.790 343.103 274.684 L 343.000 302.578 333.535 306.989 C 328.329 309.415,321.219 312.697,317.735 314.281 C 314.251 315.866,307.980 318.720,303.800 320.623 C 287.773 327.921,282.869 330.148,279.000 331.887 C 276.800 332.876,274.100 334.107,273.000 334.621 C 271.900 335.136,268.750 336.562,266.000 337.790 C 263.250 339.018,260.280 340.374,259.400 340.804 C 254.108 343.386,239.394 350.000,238.941 350.000 C 238.493 350.000,238.400 346.315,238.400 328.600 C 238.400 316.830,238.265 307.202,238.100 307.204 C 237.820 307.207,233.879 308.250,222.200 311.410 C 212.796 313.955,203.326 316.499,198.400 317.804 C 193.093 319.211,187.968 320.699,187.778 320.889 C 187.715 320.951,187.532 347.251,187.371 379.333 L 187.078 437.663 200.639 430.888 C 208.097 427.161,254.600 403.929,303.977 379.260 C 353.354 354.590,393.876 334.270,394.026 334.103 C 394.175 333.936,394.412 284.746,394.551 224.791 L 394.804 115.782 391.302 113.920 C 389.376 112.896,377.900 106.756,365.800 100.274 C 353.700 93.793,343.665 88.570,343.500 88.669 C 343.335 88.767,343.200 112.896,343.200 142.289 L 343.200 195.730 323.900 195.467 C 313.285 195.323,293.350 195.109,279.600 194.992 C 265.850 194.875,250.955 194.674,246.500 194.545 L 238.400 194.312 238.400 113.189 L 238.400 32.065 234.900 30.191 C 232.975 29.160,230.140 27.644,228.600 26.823 C 227.060 26.002,224.540 24.648,223.000 23.816 C 221.460 22.983,218.850 21.579,217.200 20.696 C 215.550 19.813,213.120 18.509,211.800 17.798 C 210.480 17.088,208.050 15.783,206.400 14.897 C 204.750 14.012,199.857 11.378,195.527 9.044 C 191.197 6.710,187.522 4.800,187.361 4.800 C 187.199 4.800,187.187 36.150,187.334 74.466 M259.200 103.351 L 259.200 163.536 261.700 163.763 C 263.075 163.888,269.960 164.270,277.000 164.612 C 289.024 165.196,300.955 165.892,314.400 166.794 C 317.590 167.008,320.786 167.187,321.502 167.191 L 322.803 167.200 322.702 122.183 L 322.600 77.166 308.200 69.457 C 300.280 65.217,286.780 58.002,278.200 53.425 C 269.620 48.847,261.835 44.667,260.900 44.134 L 259.200 43.166 259.200 103.351 " stroke="none" fill="#04bcbc" fill-rule="evenodd"></path><path id="path1" d="M185.895 1.877 C 183.882 2.402,183.971 -5.761,184.420 136.277 C 184.868 278.282,184.764 270.618,186.258 271.299 C 187.315 271.781,204.814 269.979,206.600 269.205 C 207.040 269.014,212.080 268.298,217.800 267.613 C 223.520 266.928,228.560 266.208,229.000 266.013 C 229.440 265.818,234.480 265.098,240.200 264.413 C 245.920 263.728,250.960 263.008,251.400 262.812 C 251.840 262.616,256.250 261.981,261.200 261.400 C 266.150 260.819,270.560 260.190,271.000 260.000 C 271.440 259.811,276.570 259.091,282.400 258.400 C 288.230 257.709,293.360 256.990,293.800 256.801 C 294.240 256.612,299.280 255.896,305.000 255.210 C 310.720 254.524,315.670 253.848,316.000 253.709 C 316.330 253.569,321.550 252.790,327.600 251.977 C 333.650 251.164,339.005 250.365,339.500 250.203 L 340.400 249.907 340.346 265.853 C 340.316 274.624,340.181 286.112,340.046 291.381 L 339.800 300.962 337.200 301.954 C 335.770 302.499,334.384 303.161,334.119 303.425 C 333.854 303.689,332.279 304.401,330.619 305.006 C 328.959 305.612,327.600 306.239,327.600 306.400 C 327.600 306.561,326.250 307.185,324.600 307.787 C 322.950 308.389,321.600 309.012,321.600 309.172 C 321.600 309.332,320.070 310.044,318.200 310.754 C 316.330 311.464,314.800 312.215,314.800 312.423 C 314.800 312.630,314.547 312.800,314.237 312.800 C 313.696 312.800,311.113 313.896,305.600 316.464 C 299.940 319.100,298.128 319.922,296.400 320.635 C 295.410 321.044,294.510 321.473,294.400 321.589 C 294.140 321.863,290.175 323.555,288.500 324.106 C 287.785 324.342,287.200 324.660,287.200 324.814 C 287.200 324.968,285.670 325.671,283.800 326.377 C 281.930 327.083,280.400 327.807,280.400 327.987 C 280.400 328.166,279.911 328.436,279.314 328.586 C 278.297 328.841,272.215 331.543,265.800 334.589 C 264.260 335.320,262.325 336.131,261.500 336.390 C 260.675 336.650,260.000 336.997,260.000 337.162 C 260.000 337.327,258.470 338.044,256.600 338.754 C 254.730 339.464,253.200 340.215,253.200 340.423 C 253.200 340.630,252.975 340.799,252.700 340.799 C 251.881 340.797,247.200 342.892,247.200 343.260 C 247.200 343.447,246.952 343.600,246.650 343.600 C 246.347 343.600,245.111 344.037,243.902 344.572 L 241.704 345.544 241.527 325.603 C 241.337 304.274,241.380 304.688,239.288 304.273 C 238.247 304.066,231.069 305.591,229.400 306.373 C 228.960 306.579,226.530 307.228,224.000 307.815 C 221.470 308.401,219.310 309.002,219.200 309.151 C 219.090 309.299,216.390 310.020,213.200 310.754 C 210.010 311.488,207.340 312.248,207.267 312.444 C 207.193 312.640,206.923 312.797,206.667 312.793 C 205.888 312.781,195.415 315.343,195.200 315.597 C 195.090 315.728,193.110 316.262,190.800 316.784 C 184.473 318.214,185.044 316.577,184.751 334.110 C 183.969 380.774,183.864 438.220,184.558 439.280 C 185.634 440.921,189.223 440.913,190.386 439.266 C 190.504 439.099,191.768 438.463,193.195 437.852 C 194.622 437.241,195.882 436.612,195.995 436.454 C 196.108 436.296,197.550 435.570,199.200 434.841 C 200.850 434.113,202.290 433.392,202.400 433.241 C 202.510 433.090,203.995 432.364,205.700 431.629 C 207.405 430.894,208.800 430.136,208.800 429.946 C 208.800 429.756,209.003 429.600,209.252 429.600 C 209.892 429.600,220.572 424.323,220.733 423.927 C 220.807 423.747,221.105 423.600,221.396 423.600 C 221.687 423.600,224.777 422.184,228.263 420.453 C 231.748 418.723,237.030 416.105,240.000 414.636 C 242.970 413.166,245.670 411.790,246.000 411.577 C 246.330 411.364,247.770 410.650,249.200 409.991 C 250.630 409.332,252.070 408.625,252.400 408.420 C 252.730 408.215,256.870 406.137,261.600 403.802 C 266.330 401.467,270.470 399.400,270.800 399.207 C 271.130 399.015,275.360 396.918,280.200 394.549 C 285.040 392.179,289.060 390.096,289.133 389.920 C 289.207 389.744,289.472 389.600,289.723 389.600 C 290.574 389.600,394.991 337.224,396.157 336.212 L 397.314 335.209 397.626 225.349 C 397.800 164.305,397.786 115.089,397.595 114.587 C 397.389 114.044,396.325 113.234,394.926 112.556 C 393.647 111.935,392.407 111.241,392.170 111.013 C 391.934 110.786,390.764 110.151,389.570 109.601 C 388.377 109.052,387.205 108.422,386.967 108.201 C 386.729 107.981,385.379 107.260,383.967 106.600 C 382.555 105.940,381.310 105.298,381.200 105.173 C 381.090 105.048,377.220 102.925,372.600 100.457 C 367.980 97.988,363.930 95.798,363.600 95.590 C 363.270 95.382,361.965 94.739,360.700 94.159 C 359.435 93.580,358.400 92.975,358.400 92.813 C 358.400 92.652,357.307 92.088,355.971 91.560 C 354.636 91.032,353.227 90.307,352.841 89.950 C 352.456 89.592,351.254 88.909,350.170 88.431 C 349.087 87.953,347.520 87.093,346.689 86.519 C 345.004 85.356,342.007 85.033,341.120 85.920 C 340.700 86.340,340.580 96.616,340.496 139.616 L 340.391 192.792 316.896 192.577 C 303.973 192.459,284.111 192.191,272.758 191.982 C 261.405 191.772,249.662 191.600,246.662 191.600 L 241.208 191.600 241.469 112.100 C 241.749 26.775,241.823 30.222,239.698 29.295 C 239.094 29.032,236.980 27.910,235.000 26.802 C 233.020 25.694,230.140 24.138,228.600 23.345 C 227.060 22.551,224.360 21.120,222.600 20.165 C 220.840 19.211,218.230 17.850,216.800 17.142 C 215.370 16.434,214.105 15.716,213.989 15.548 C 213.873 15.379,212.523 14.656,210.989 13.941 C 209.455 13.226,207.987 12.432,207.727 12.176 C 207.466 11.920,206.071 11.196,204.627 10.566 C 203.182 9.937,202.000 9.317,202.000 9.188 C 202.000 9.060,200.695 8.335,199.100 7.577 C 197.505 6.820,196.110 6.099,196.000 5.975 C 195.890 5.852,194.057 4.817,191.926 3.675 C 188.215 1.687,187.471 1.466,185.895 1.877 M212.222 17.639 C 225.850 24.921,237.405 31.135,237.900 31.449 L 238.800 32.018 238.800 113.145 L 238.800 194.272 262.700 194.534 C 275.845 194.679,299.245 194.916,314.700 195.062 L 342.800 195.328 342.800 141.888 C 342.800 111.783,342.953 88.353,343.150 88.231 C 343.342 88.112,355.087 94.212,369.250 101.787 L 395.000 115.559 394.840 194.280 C 394.752 237.576,394.572 286.830,394.440 303.734 L 394.200 334.468 389.600 336.800 C 365.378 349.079,187.067 438.001,186.934 437.867 C 186.421 437.354,187.488 320.716,188.009 320.394 C 188.307 320.210,189.732 319.769,191.176 319.415 C 194.001 318.721,200.844 316.880,209.800 314.405 C 212.880 313.553,218.910 311.925,223.200 310.787 C 227.490 309.648,232.505 308.285,234.345 307.758 C 236.184 307.231,237.939 306.800,238.245 306.800 C 238.712 306.800,238.800 310.237,238.800 328.375 L 238.800 349.949 242.500 348.224 C 249.536 344.944,256.215 341.879,260.000 340.193 C 262.090 339.262,269.020 336.123,275.400 333.216 C 288.054 327.451,296.718 323.505,306.600 319.006 C 310.120 317.403,316.060 314.699,319.800 312.995 C 323.540 311.292,330.200 308.225,334.600 306.180 L 342.600 302.461 342.703 274.831 C 342.784 252.855,342.703 247.202,342.303 247.208 C 342.026 247.213,339.370 247.575,336.400 248.013 C 330.656 248.860,311.857 251.539,273.200 257.018 C 260.110 258.874,246.340 260.840,242.600 261.387 C 235.638 262.406,228.825 263.374,211.600 265.791 C 206.210 266.548,199.280 267.529,196.200 267.972 C 193.120 268.415,189.955 268.870,189.166 268.983 L 187.732 269.188 187.466 229.294 C 187.204 189.918,187.085 4.400,187.322 4.400 C 187.390 4.400,198.595 10.358,212.222 17.639 M257.728 40.475 C 255.956 41.332,255.985 40.223,256.095 103.889 C 256.199 164.177,256.208 164.786,257.000 165.569 C 257.702 166.262,258.562 166.391,264.000 166.612 C 267.410 166.751,270.470 166.975,270.800 167.111 C 271.130 167.246,282.110 167.949,295.200 168.673 C 308.290 169.396,319.910 170.096,321.022 170.228 C 322.876 170.447,323.151 170.367,324.327 169.268 L 325.610 168.070 325.505 121.812 L 325.400 75.554 324.417 74.813 C 323.876 74.405,322.256 73.488,320.817 72.776 C 319.378 72.064,318.110 71.373,318.000 71.241 C 317.890 71.108,316.540 70.388,315.000 69.641 C 313.460 68.893,312.110 68.158,312.000 68.007 C 311.890 67.856,310.570 67.156,309.067 66.451 C 307.564 65.747,306.124 64.993,305.867 64.776 C 305.382 64.367,302.086 62.613,297.600 60.376 C 296.170 59.662,294.910 58.945,294.800 58.781 C 294.690 58.618,293.295 57.901,291.700 57.188 C 290.105 56.476,288.800 55.761,288.800 55.600 C 288.800 55.440,287.450 54.719,285.800 54.000 C 284.150 53.281,282.800 52.560,282.800 52.398 C 282.800 52.237,281.677 51.618,280.305 51.023 C 278.933 50.428,277.718 49.801,277.605 49.631 C 277.492 49.461,276.140 48.727,274.600 48.000 C 273.060 47.273,271.710 46.553,271.600 46.400 C 271.490 46.247,270.140 45.527,268.600 44.800 C 267.060 44.073,265.710 43.359,265.600 43.212 C 265.303 42.815,259.457 39.996,258.996 40.027 C 258.778 40.042,258.208 40.244,257.728 40.475 M271.291 49.326 C 277.951 52.916,292.265 60.599,303.100 66.400 L 322.800 76.948 322.800 122.220 L 322.800 167.493 320.100 167.329 C 318.615 167.238,309.570 166.730,300.000 166.199 C 290.430 165.668,277.245 164.920,270.700 164.538 L 258.800 163.842 258.800 103.321 C 258.800 70.034,258.886 42.800,258.991 42.800 C 259.096 42.800,264.631 45.737,271.291 49.326 M88.600 95.837 C 87.500 96.411,85.618 97.249,84.419 97.699 C 83.219 98.150,81.781 98.942,81.223 99.459 C 80.665 99.977,80.071 100.400,79.904 100.400 C 79.737 100.400,79.600 167.360,79.600 249.200 C 79.600 348.133,79.734 398.000,80.000 398.000 C 80.220 398.000,80.400 398.338,80.400 398.751 C 80.400 399.702,80.953 400.153,83.200 401.037 C 84.190 401.426,85.090 401.854,85.200 401.988 C 86.636 403.735,92.367 404.833,93.602 403.598 C 94.514 402.686,94.711 96.537,93.800 95.651 C 92.825 94.703,90.621 94.782,88.600 95.837 M92.000 249.800 C 92.000 371.306,91.899 401.995,91.500 401.976 C 91.225 401.962,89.110 401.017,86.800 399.876 L 82.600 397.800 82.600 249.615 L 82.600 101.431 83.600 100.922 C 86.452 99.472,90.684 97.665,91.300 97.635 C 91.966 97.602,92.000 105.101,92.000 249.800 M11.818 133.171 C 11.692 133.375,10.916 133.760,10.094 134.028 C 7.798 134.774,2.306 137.507,1.939 138.085 C 1.481 138.807,1.507 358.103,1.965 359.309 C 2.324 360.252,5.141 361.842,10.305 364.017 C 12.471 364.929,14.841 364.919,15.765 363.995 C 16.076 363.684,16.200 330.909,16.200 249.003 L 16.200 134.446 15.317 133.623 C 14.415 132.783,12.232 132.501,11.818 133.171 M13.600 249.000 C 13.600 339.459,13.499 362.398,13.100 362.389 C 12.825 362.383,10.710 361.438,8.400 360.289 L 4.200 358.200 4.200 248.806 L 4.200 139.411 8.400 137.523 C 10.710 136.485,12.825 135.627,13.100 135.618 C 13.499 135.604,13.600 158.537,13.600 249.000 " stroke="none" fill="#f9fbfb" fill-rule="evenodd"></path><path id="path2" d="M86.800 99.801 L 83.000 101.570 82.899 249.465 C 82.840 337.541,82.946 397.506,83.162 397.722 C 83.477 398.037,91.105 401.600,91.465 401.600 C 91.539 401.600,91.600 333.290,91.600 249.800 C 91.600 128.618,91.499 98.003,91.100 98.016 C 90.825 98.025,88.890 98.828,86.800 99.801 M8.400 137.834 L 4.600 139.586 4.600 248.872 L 4.600 358.159 8.400 360.053 C 10.490 361.095,12.425 361.959,12.700 361.974 C 13.099 361.995,13.200 339.147,13.200 249.000 C 13.200 158.845,13.099 136.008,12.700 136.041 C 12.425 136.063,10.490 136.870,8.400 137.834 " stroke="none" fill="#242424" fill-rule="evenodd"></path><path id="path3" d="M190.400 6.184 C 190.400 6.294,191.120 6.751,192.000 7.200 C 192.880 7.649,193.600 7.926,193.600 7.816 C 193.600 7.706,192.880 7.249,192.000 6.800 C 191.120 6.351,190.400 6.074,190.400 6.184 M196.400 9.384 C 196.400 9.494,197.120 9.951,198.000 10.400 C 198.880 10.849,199.600 11.126,199.600 11.016 C 199.600 10.906,198.880 10.449,198.000 10.000 C 197.120 9.551,196.400 9.274,196.400 9.384 M201.600 12.154 C 201.600 12.360,203.942 13.748,204.900 14.110 C 206.317 14.646,205.542 13.984,203.600 13.000 C 202.500 12.443,201.600 12.062,201.600 12.154 M207.600 15.387 C 207.600 15.497,208.500 16.043,209.600 16.600 C 210.700 17.157,211.600 17.523,211.600 17.413 C 211.600 17.303,210.700 16.757,209.600 16.200 C 208.500 15.643,207.600 15.277,207.600 15.387 M212.800 18.138 C 212.800 18.428,217.260 20.873,217.448 20.686 C 217.539 20.594,216.531 19.942,215.207 19.236 C 213.883 18.530,212.800 18.036,212.800 18.138 M218.800 21.337 C 218.800 21.624,224.034 24.500,224.219 24.315 C 224.306 24.227,223.122 23.478,221.589 22.650 C 220.055 21.821,218.800 21.231,218.800 21.337 M224.800 24.557 C 224.800 24.845,230.009 27.725,230.194 27.539 C 230.278 27.455,229.099 26.704,227.573 25.870 C 226.048 25.036,224.800 24.445,224.800 24.557 M231.354 28.157 C 231.768 28.492,233.523 29.503,235.253 30.403 L 238.398 32.039 238.500 113.320 L 238.602 194.600 238.701 113.349 C 238.780 48.726,238.698 32.019,238.300 31.713 C 237.407 31.025,230.577 27.529,231.354 28.157 M258.800 103.400 L 258.800 164.000 260.300 163.936 C 261.777 163.873,261.780 163.869,260.500 163.711 L 259.200 163.549 259.200 103.342 L 259.200 43.135 260.500 43.912 C 262.920 45.358,271.200 49.655,271.200 49.464 C 271.200 49.270,259.352 42.800,258.997 42.800 C 258.889 42.800,258.800 70.070,258.800 103.400 M272.400 50.188 C 272.400 50.298,273.480 50.934,274.800 51.600 C 276.120 52.266,277.200 52.722,277.200 52.612 C 277.200 52.502,276.120 51.866,274.800 51.200 C 273.480 50.534,272.400 50.078,272.400 50.188 M277.600 52.988 C 277.600 53.098,278.680 53.734,280.000 54.400 C 281.320 55.066,282.400 55.522,282.400 55.412 C 282.400 55.302,281.320 54.666,280.000 54.000 C 278.680 53.334,277.600 52.878,277.600 52.988 M283.600 56.188 C 283.600 56.298,284.680 56.934,286.000 57.600 C 287.320 58.266,288.400 58.722,288.400 58.612 C 288.400 58.502,287.320 57.866,286.000 57.200 C 284.680 56.534,283.600 56.078,283.600 56.188 M288.800 58.988 C 288.800 59.098,289.880 59.734,291.200 60.400 C 292.520 61.066,293.600 61.522,293.600 61.412 C 293.600 61.302,292.520 60.666,291.200 60.000 C 289.880 59.334,288.800 58.878,288.800 58.988 M295.600 62.584 C 295.600 62.694,296.320 63.151,297.200 63.600 C 298.080 64.049,298.800 64.326,298.800 64.216 C 298.800 64.106,298.080 63.649,297.200 63.200 C 296.320 62.751,295.600 62.474,295.600 62.584 M300.800 65.387 C 300.800 65.497,301.700 66.043,302.800 66.600 C 303.900 67.157,304.800 67.523,304.800 67.413 C 304.800 67.303,303.900 66.757,302.800 66.200 C 301.700 65.643,300.800 65.277,300.800 65.387 M306.800 68.584 C 306.800 68.694,307.520 69.151,308.400 69.600 C 309.280 70.049,310.000 70.326,310.000 70.216 C 310.000 70.106,309.280 69.649,308.400 69.200 C 307.520 68.751,306.800 68.474,306.800 68.584 M312.000 71.387 C 312.000 71.497,312.900 72.043,314.000 72.600 C 315.100 73.157,316.000 73.523,316.000 73.413 C 316.000 73.303,315.100 72.757,314.000 72.200 C 312.900 71.643,312.000 71.277,312.000 71.387 M318.000 74.587 C 318.000 74.697,318.900 75.243,320.000 75.800 C 321.100 76.357,322.000 76.723,322.000 76.613 C 322.000 76.503,321.100 75.957,320.000 75.400 C 318.900 74.843,318.000 74.477,318.000 74.587 M343.067 88.267 C 342.920 88.413,342.800 112.531,342.800 141.861 L 342.800 195.188 330.700 195.300 L 318.600 195.412 330.900 195.506 L 343.200 195.600 343.200 141.957 C 343.200 93.641,343.262 88.338,343.821 88.553 C 344.177 88.689,344.337 88.622,344.197 88.395 C 343.914 87.938,343.449 87.885,343.067 88.267 M346.400 89.787 C 346.400 89.897,347.300 90.443,348.400 91.000 C 349.500 91.557,350.400 91.923,350.400 91.813 C 350.400 91.703,349.500 91.157,348.400 90.600 C 347.300 90.043,346.400 89.677,346.400 89.787 M352.400 92.987 C 352.400 93.097,353.300 93.643,354.400 94.200 C 355.500 94.757,356.400 95.123,356.400 95.013 C 356.400 94.903,355.500 94.357,354.400 93.800 C 353.300 93.243,352.400 92.877,352.400 92.987 M358.400 96.187 C 358.400 96.297,359.300 96.843,360.400 97.400 C 361.500 97.957,362.400 98.323,362.400 98.213 C 362.400 98.103,361.500 97.557,360.400 97.000 C 359.300 96.443,358.400 96.077,358.400 96.187 M91.798 249.800 C 91.798 333.620,91.844 367.850,91.900 325.867 C 91.956 283.885,91.956 215.305,91.900 173.467 C 91.844 131.630,91.798 165.980,91.798 249.800 M363.600 98.987 C 363.600 99.097,364.500 99.643,365.600 100.200 C 366.700 100.757,367.600 101.123,367.600 101.013 C 367.600 100.903,366.700 100.357,365.600 99.800 C 364.500 99.243,363.600 98.877,363.600 98.987 M187.395 158.200 C 187.395 190.100,187.442 203.091,187.500 187.069 C 187.558 171.046,187.558 144.946,187.500 129.069 C 187.442 113.191,187.395 126.300,187.395 158.200 M369.600 102.187 C 369.600 102.297,370.500 102.843,371.600 103.400 C 372.700 103.957,373.600 104.323,373.600 104.213 C 373.600 104.103,372.700 103.557,371.600 103.000 C 370.500 102.443,369.600 102.077,369.600 102.187 M375.600 105.384 C 375.600 105.494,376.320 105.951,377.200 106.400 C 378.080 106.849,378.800 107.126,378.800 107.016 C 378.800 106.906,378.080 106.449,377.200 106.000 C 376.320 105.551,375.600 105.274,375.600 105.384 M381.600 108.584 C 381.600 108.694,382.320 109.151,383.200 109.600 C 384.080 110.049,384.800 110.326,384.800 110.216 C 384.800 110.106,384.080 109.649,383.200 109.200 C 382.320 108.751,381.600 108.474,381.600 108.584 M386.800 111.387 C 386.800 111.497,387.700 112.043,388.800 112.600 C 389.900 113.157,390.800 113.523,390.800 113.413 C 390.800 113.303,389.900 112.757,388.800 112.200 C 387.700 111.643,386.800 111.277,386.800 111.387 M392.150 114.318 C 392.278 114.526,392.926 114.921,393.589 115.195 L 394.795 115.695 394.900 148.148 L 395.005 180.600 395.102 148.108 L 395.200 115.616 393.558 114.779 C 392.655 114.318,392.021 114.111,392.150 114.318 M266.307 164.290 C 267.026 164.379,268.106 164.377,268.707 164.286 C 269.308 164.195,268.720 164.122,267.400 164.124 C 266.080 164.126,265.588 164.201,266.307 164.290 M273.500 164.689 C 274.215 164.778,275.385 164.778,276.100 164.689 C 276.815 164.601,276.230 164.528,274.800 164.528 C 273.370 164.528,272.785 164.601,273.500 164.689 M280.311 165.093 C 281.251 165.178,282.691 165.177,283.511 165.091 C 284.330 165.005,283.560 164.936,281.800 164.937 C 280.040 164.939,279.370 165.009,280.311 165.093 M292.800 165.796 C 297.090 166.091,301.860 166.320,303.400 166.305 C 307.443 166.265,300.354 165.768,291.600 165.479 L 285.000 165.260 292.800 165.796 M307.507 166.690 C 308.226 166.779,309.306 166.777,309.907 166.686 C 310.508 166.595,309.920 166.522,308.600 166.524 C 307.280 166.526,306.788 166.601,307.507 166.690 M314.900 167.087 C 315.505 167.178,316.495 167.178,317.100 167.087 C 317.705 166.995,317.210 166.920,316.000 166.920 C 314.790 166.920,314.295 166.995,314.900 167.087 M394.594 238.600 C 394.594 264.560,394.641 275.121,394.700 262.069 C 394.758 249.017,394.758 227.777,394.700 214.869 C 394.641 201.961,394.593 212.640,394.594 238.600 M251.924 194.699 C 255.073 194.767,260.113 194.767,263.124 194.699 C 266.136 194.631,263.560 194.576,257.400 194.576 C 251.240 194.576,248.776 194.632,251.924 194.699 M292.100 195.099 C 295.125 195.167,300.075 195.167,303.100 195.099 C 306.125 195.031,303.650 194.975,297.600 194.975 C 291.550 194.975,289.075 195.031,292.100 195.099 M342.305 247.133 C 342.706 247.388,342.789 253.166,342.705 275.089 C 342.647 290.288,342.735 302.640,342.900 302.538 C 343.638 302.082,343.241 246.800,342.500 246.806 C 341.994 246.811,341.940 246.901,342.305 247.133 M325.882 249.095 C 323.507 249.427,321.651 249.784,321.756 249.889 C 321.967 250.100,332.400 248.786,332.400 248.548 C 332.400 248.298,330.392 248.467,325.882 249.095 M310.900 251.476 C 311.285 251.576,311.915 251.576,312.300 251.476 C 312.685 251.375,312.370 251.293,311.600 251.293 C 310.830 251.293,310.515 251.375,310.900 251.476 M303.800 252.249 C 299.499 252.915,298.458 253.274,301.800 252.938 C 305.476 252.569,310.377 251.698,308.800 251.694 C 308.030 251.692,305.780 251.942,303.800 252.249 M285.400 254.855 C 279.636 255.716,277.558 256.092,277.712 256.245 C 277.873 256.407,289.025 254.900,289.800 254.612 C 290.526 254.342,287.843 254.490,285.400 254.855 M263.200 258.036 C 261.990 258.224,259.598 258.586,257.885 258.840 C 256.171 259.095,254.849 259.382,254.945 259.479 C 255.116 259.649,266.594 258.114,267.400 257.813 C 268.119 257.544,265.451 257.686,263.200 258.036 M4.194 308.400 C 4.194 335.790,4.242 346.995,4.300 333.300 C 4.358 319.605,4.358 297.195,4.300 283.500 C 4.242 269.805,4.194 281.010,4.194 308.400 M239.221 261.436 C 237.143 261.738,235.253 262.077,235.021 262.188 C 234.413 262.479,238.894 262.008,242.400 261.411 C 246.429 260.726,243.971 260.745,239.221 261.436 M216.600 264.649 C 212.299 265.315,211.258 265.674,214.600 265.338 C 218.276 264.969,223.177 264.098,221.600 264.094 C 220.830 264.092,218.580 264.342,216.600 264.649 M195.000 267.819 L 192.200 268.342 194.800 268.127 C 196.230 268.008,198.120 267.771,199.000 267.599 L 200.600 267.288 199.200 267.291 C 198.430 267.293,196.540 267.530,195.000 267.819 M338.400 304.400 C 337.190 305.039,336.380 305.562,336.600 305.562 C 336.820 305.562,337.990 305.039,339.200 304.400 C 340.410 303.761,341.220 303.238,341.000 303.238 C 340.780 303.238,339.610 303.761,338.400 304.400 M332.000 307.400 C 331.010 307.930,330.380 308.364,330.600 308.364 C 330.820 308.364,331.810 307.930,332.800 307.400 C 333.790 306.870,334.420 306.436,334.200 306.436 C 333.980 306.436,332.990 306.870,332.000 307.400 M235.081 307.487 C 233.806 307.822,232.841 308.174,232.937 308.270 C 233.033 308.366,234.192 308.165,235.513 307.822 C 236.835 307.480,238.023 307.200,238.154 307.200 C 238.286 307.200,238.441 316.875,238.500 328.700 L 238.607 350.200 238.704 328.500 C 238.794 308.050,238.760 306.802,238.100 306.840 C 237.715 306.862,236.356 307.153,235.081 307.487 M325.000 310.594 C 323.460 311.330,322.380 311.941,322.600 311.951 C 322.820 311.961,324.260 311.361,325.800 310.619 C 327.340 309.876,328.420 309.266,328.200 309.262 C 327.980 309.258,326.540 309.857,325.000 310.594 M224.463 310.409 C 221.290 311.346,220.592 311.662,222.400 311.345 C 224.208 311.028,228.385 309.683,227.600 309.671 C 227.270 309.665,225.858 309.998,224.463 310.409 M212.463 313.609 C 209.290 314.546,208.592 314.862,210.400 314.545 C 212.208 314.228,216.385 312.883,215.600 312.871 C 215.270 312.865,213.858 313.198,212.463 313.609 M318.000 313.800 C 317.010 314.330,316.380 314.764,316.600 314.764 C 316.820 314.764,317.810 314.330,318.800 313.800 C 319.790 313.270,320.420 312.836,320.200 312.836 C 319.980 312.836,318.990 313.270,318.000 313.800 M311.400 316.800 C 309.640 317.646,308.380 318.341,308.600 318.345 C 308.820 318.349,310.440 317.659,312.200 316.811 C 313.960 315.963,315.220 315.268,315.000 315.266 C 314.780 315.264,313.160 315.954,311.400 316.800 M201.081 316.687 C 199.806 317.022,198.841 317.374,198.937 317.470 C 199.116 317.650,204.068 316.459,204.367 316.164 C 204.662 315.873,203.456 316.065,201.081 316.687 M192.600 319.003 C 192.380 319.079,191.146 319.436,189.857 319.795 C 188.568 320.154,187.590 320.523,187.683 320.617 C 187.873 320.806,193.188 319.346,193.520 319.013 C 193.750 318.783,193.247 318.777,192.600 319.003 M304.400 320.000 C 303.630 320.422,303.180 320.766,303.400 320.766 C 303.620 320.766,304.430 320.422,305.200 320.000 C 305.970 319.578,306.420 319.234,306.200 319.234 C 305.980 319.234,305.170 319.578,304.400 320.000 M297.800 322.994 C 296.260 323.730,295.180 324.341,295.400 324.351 C 295.620 324.361,297.060 323.761,298.600 323.019 C 300.140 322.276,301.220 321.666,301.000 321.662 C 300.780 321.658,299.340 322.257,297.800 322.994 M291.600 325.800 C 290.610 326.330,289.980 326.764,290.200 326.764 C 290.420 326.764,291.410 326.330,292.400 325.800 C 293.390 325.270,294.020 324.836,293.800 324.836 C 293.580 324.836,292.590 325.270,291.600 325.800 M284.600 328.994 C 283.060 329.730,281.980 330.341,282.200 330.351 C 282.420 330.361,283.860 329.761,285.400 329.019 C 286.940 328.276,288.020 327.666,287.800 327.662 C 287.580 327.658,286.140 328.257,284.600 328.994 M187.385 350.400 C 187.385 361.070,187.437 365.435,187.500 360.100 C 187.563 354.765,187.563 346.035,187.500 340.700 C 187.437 335.365,187.385 339.730,187.385 350.400 M277.600 332.200 C 276.610 332.730,275.980 333.164,276.200 333.164 C 276.420 333.164,277.410 332.730,278.400 332.200 C 279.390 331.670,280.020 331.236,279.800 331.236 C 279.580 331.236,278.590 331.670,277.600 332.200 M270.600 335.374 C 269.500 335.903,268.720 336.351,268.867 336.368 C 269.289 336.418,272.800 334.852,272.800 334.614 C 272.800 334.312,272.814 334.307,270.600 335.374 M390.700 335.826 C 389.655 336.370,388.800 336.905,388.800 337.014 C 388.800 337.193,392.760 335.323,393.167 334.952 C 393.662 334.501,392.361 334.962,390.700 335.826 M264.400 338.200 C 263.410 338.730,262.780 339.164,263.000 339.164 C 263.220 339.164,264.210 338.730,265.200 338.200 C 266.190 337.670,266.820 337.236,266.600 337.236 C 266.380 337.236,265.390 337.670,264.400 338.200 M384.700 338.827 C 383.875 339.263,383.200 339.701,383.200 339.801 C 383.200 340.035,385.162 339.192,386.189 338.518 C 387.394 337.727,386.390 337.935,384.700 338.827 M257.000 341.571 C 255.680 342.213,254.713 342.752,254.850 342.769 C 255.245 342.818,259.600 340.833,259.600 340.605 C 259.600 340.304,259.606 340.302,257.000 341.571 M378.300 342.027 C 377.475 342.463,376.800 342.908,376.800 343.018 C 376.800 343.196,379.959 341.719,380.367 341.351 C 380.827 340.934,379.625 341.328,378.300 342.027 M251.200 344.200 C 250.210 344.730,249.580 345.164,249.800 345.164 C 250.020 345.164,251.010 344.730,252.000 344.200 C 252.990 343.670,253.620 343.236,253.400 343.236 C 253.180 343.236,252.190 343.670,251.200 344.200 M372.300 345.026 C 371.255 345.570,370.400 346.105,370.400 346.214 C 370.400 346.393,374.360 344.523,374.767 344.152 C 375.262 343.701,373.961 344.162,372.300 345.026 M243.000 347.982 C 240.800 349.053,239.115 349.945,239.256 349.965 C 239.396 349.984,241.376 349.114,243.656 348.031 C 245.935 346.948,247.620 346.056,247.400 346.048 C 247.180 346.041,245.200 346.911,243.000 347.982 M365.900 348.226 C 364.855 348.770,364.000 349.305,364.000 349.414 C 364.000 349.593,367.960 347.723,368.367 347.352 C 368.862 346.901,367.561 347.362,365.900 348.226 M360.300 351.026 C 359.255 351.570,358.400 352.105,358.400 352.214 C 358.400 352.393,362.360 350.523,362.767 350.152 C 363.262 349.701,361.961 350.162,360.300 351.026 M353.900 354.226 C 352.855 354.770,352.000 355.305,352.000 355.414 C 352.000 355.593,355.960 353.723,356.367 353.352 C 356.862 352.901,355.561 353.362,353.900 354.226 M347.500 357.426 C 346.455 357.970,345.600 358.505,345.600 358.614 C 345.600 358.793,349.560 356.923,349.967 356.552 C 350.462 356.101,349.161 356.562,347.500 357.426 M341.900 360.226 C 340.855 360.770,340.000 361.305,340.000 361.414 C 340.000 361.593,343.960 359.723,344.367 359.352 C 344.862 358.901,343.561 359.362,341.900 360.226 M335.500 363.426 C 334.455 363.970,333.600 364.505,333.600 364.614 C 333.600 364.793,337.560 362.923,337.967 362.552 C 338.462 362.101,337.161 362.562,335.500 363.426 M329.100 366.626 C 328.055 367.170,327.200 367.705,327.200 367.814 C 327.200 367.993,331.160 366.123,331.567 365.752 C 332.062 365.301,330.761 365.762,329.100 366.626 M322.700 369.826 C 321.655 370.370,320.800 370.905,320.800 371.014 C 320.800 371.193,324.760 369.323,325.167 368.952 C 325.662 368.501,324.361 368.962,322.700 369.826 M317.100 372.626 C 316.055 373.170,315.200 373.705,315.200 373.814 C 315.200 373.993,319.160 372.123,319.567 371.752 C 320.062 371.301,318.761 371.762,317.100 372.626 M310.300 376.026 C 309.035 376.679,308.000 377.303,308.000 377.412 C 308.000 377.591,312.760 375.325,313.167 374.953 C 313.690 374.473,312.298 374.994,310.300 376.026 M304.700 378.826 C 303.435 379.479,302.400 380.103,302.400 380.212 C 302.400 380.391,307.160 378.125,307.567 377.753 C 308.090 377.273,306.698 377.794,304.700 378.826 M298.300 382.026 C 297.035 382.679,296.000 383.303,296.000 383.412 C 296.000 383.591,300.760 381.325,301.167 380.953 C 301.690 380.473,300.298 380.994,298.300 382.026 M292.300 385.026 C 291.255 385.570,290.400 386.105,290.400 386.214 C 290.400 386.393,294.360 384.523,294.767 384.152 C 295.262 383.701,293.961 384.162,292.300 385.026 M285.900 388.225 C 284.415 388.987,283.200 389.701,283.200 389.811 C 283.200 389.989,288.760 387.327,289.167 386.953 C 289.714 386.451,288.237 387.025,285.900 388.225 M279.900 391.226 C 278.635 391.879,277.600 392.503,277.600 392.612 C 277.600 392.791,282.360 390.525,282.767 390.153 C 283.290 389.673,281.898 390.194,279.900 391.226 M273.500 394.426 C 272.235 395.079,271.200 395.703,271.200 395.812 C 271.200 395.991,275.960 393.725,276.367 393.353 C 276.890 392.873,275.498 393.394,273.500 394.426 M267.100 397.626 C 265.835 398.279,264.800 398.903,264.800 399.012 C 264.800 399.191,269.560 396.925,269.967 396.553 C 270.490 396.073,269.098 396.594,267.100 397.626 M261.500 400.426 C 260.235 401.079,259.200 401.703,259.200 401.812 C 259.200 401.991,263.960 399.725,264.367 399.353 C 264.890 398.873,263.498 399.394,261.500 400.426 M186.896 419.700 C 186.843 429.765,186.897 438.000,187.016 438.000 C 187.400 438.000,190.400 436.390,190.400 436.184 C 190.400 436.074,189.682 436.350,188.804 436.798 L 187.208 437.612 187.100 419.506 L 186.992 401.400 186.896 419.700 M255.100 403.626 C 253.835 404.279,252.800 404.903,252.800 405.012 C 252.800 405.191,257.560 402.925,257.967 402.553 C 258.490 402.073,257.098 402.594,255.100 403.626 M248.700 406.826 C 247.435 407.479,246.400 408.103,246.400 408.212 C 246.400 408.391,251.160 406.125,251.567 405.753 C 252.090 405.273,250.698 405.794,248.700 406.826 M242.700 409.825 C 241.215 410.587,240.000 411.301,240.000 411.411 C 240.000 411.589,245.560 408.927,245.967 408.553 C 246.514 408.051,245.037 408.625,242.700 409.825 M236.700 412.826 C 235.435 413.479,234.400 414.103,234.400 414.212 C 234.400 414.391,239.160 412.125,239.567 411.753 C 240.090 411.273,238.698 411.794,236.700 412.826 M230.300 416.026 C 229.035 416.679,228.000 417.303,228.000 417.412 C 228.000 417.591,232.760 415.325,233.167 414.953 C 233.690 414.473,232.298 414.994,230.300 416.026 M224.300 419.025 C 222.815 419.787,221.600 420.501,221.600 420.611 C 221.600 420.789,227.160 418.127,227.567 417.753 C 228.114 417.251,226.637 417.825,224.300 419.025 M217.900 422.225 C 216.415 422.987,215.200 423.701,215.200 423.811 C 215.200 423.989,220.760 421.327,221.167 420.953 C 221.714 420.451,220.237 421.025,217.900 422.225 M202.400 430.000 C 195.910 433.276,190.780 435.957,191.000 435.957 C 191.220 435.957,196.710 433.276,203.200 430.000 C 209.690 426.724,214.820 424.043,214.600 424.043 C 214.380 424.043,208.890 426.724,202.400 430.000 " stroke="none" fill="#48cece" fill-rule="evenodd"></path><path id="path4" d="M84.400 100.600 C 83.850 100.914,83.580 101.172,83.800 101.172 C 84.020 101.172,84.650 100.914,85.200 100.600 C 85.750 100.286,86.020 100.028,85.800 100.028 C 85.580 100.028,84.950 100.286,84.400 100.600 M82.667 101.467 C 81.949 102.185,82.380 397.486,83.100 398.051 C 83.721 398.538,83.743 398.527,83.299 397.958 C 82.899 397.445,82.818 367.387,82.899 249.258 C 82.955 167.826,82.985 101.200,82.967 101.200 C 82.948 101.200,82.813 101.320,82.667 101.467 M13.000 249.000 C 13.000 311.370,13.135 362.400,13.300 362.400 C 13.465 362.400,13.600 311.370,13.600 249.000 C 13.600 186.630,13.465 135.600,13.300 135.600 C 13.135 135.600,13.000 186.630,13.000 249.000 M8.800 137.400 C 8.250 137.714,7.980 137.972,8.200 137.972 C 8.420 137.972,9.050 137.714,9.600 137.400 C 10.150 137.086,10.420 136.828,10.200 136.828 C 9.980 136.828,9.350 137.086,8.800 137.400 M4.185 139.700 C 4.080 139.975,4.041 166.930,4.097 199.600 L 4.200 259.000 4.400 199.100 C 4.510 166.155,4.549 139.200,4.487 139.200 C 4.426 139.200,4.289 139.425,4.185 139.700 M88.800 400.800 C 89.570 401.222,90.380 401.566,90.600 401.566 C 90.820 401.566,90.370 401.222,89.600 400.800 C 88.830 400.378,88.020 400.034,87.800 400.034 C 87.580 400.034,88.030 400.378,88.800 400.800 " stroke="none" fill="#40b4c0" fill-rule="evenodd"></path></g></svg>