<svg id="svg" version="1.1" xmlns="http://www.w3.org/2000/svg" xmlns:xlink="http://www.w3.org/1999/xlink" width="400" height="443.7718277066356" viewBox="0, 0, 400,443.7718277066356"><g id="svgg"><path id="path0" d="M185.893 1.364 C 185.223 2.034,185.392 270.415,186.063 271.700 C 186.573 272.677,203.670 271.278,206.600 270.020 C 207.040 269.831,211.539 269.184,216.598 268.581 C 221.656 267.978,226.066 267.341,226.398 267.165 C 226.729 266.989,231.230 266.356,236.400 265.758 C 241.570 265.160,245.890 264.549,246.000 264.401 C 246.110 264.253,250.520 263.624,255.800 263.003 C 261.080 262.383,265.490 261.754,265.600 261.605 C 265.710 261.457,270.030 260.845,275.200 260.246 C 280.370 259.647,284.960 258.999,285.400 258.806 C 285.840 258.613,290.250 257.981,295.200 257.400 C 300.150 256.819,304.560 256.189,305.000 256.000 C 305.440 255.811,309.850 255.181,314.800 254.600 C 319.750 254.019,324.160 253.390,324.600 253.201 C 325.296 252.903,341.688 250.773,343.138 250.793 C 343.584 250.799,343.635 254.151,343.437 270.500 C 343.079 300.001,342.932 303.103,341.865 303.665 C 341.389 303.915,340.910 304.233,340.800 304.371 C 340.690 304.509,339.790 304.960,338.800 305.372 C 337.002 306.121,334.411 307.308,328.000 310.320 C 326.130 311.198,324.158 312.050,323.619 312.211 C 323.079 312.373,322.407 312.736,322.125 313.018 C 321.843 313.300,320.439 313.921,319.006 314.398 C 317.573 314.875,316.400 315.412,316.400 315.592 C 316.400 315.772,315.050 316.411,313.400 317.013 C 311.750 317.615,310.400 318.248,310.400 318.421 C 310.400 318.594,309.227 319.125,307.794 319.602 C 306.361 320.079,304.966 320.683,304.694 320.944 C 304.422 321.204,302.895 321.925,301.300 322.544 C 299.705 323.164,298.400 323.835,298.400 324.035 C 298.400 324.236,298.152 324.400,297.850 324.400 C 297.301 324.400,294.757 325.460,290.200 327.587 C 288.880 328.203,287.125 328.922,286.300 329.184 C 285.475 329.447,284.800 329.813,284.800 329.998 C 284.800 330.183,283.627 330.725,282.194 331.202 C 280.761 331.679,279.366 332.283,279.094 332.544 C 278.822 332.804,277.295 333.525,275.700 334.144 C 274.105 334.764,272.800 335.391,272.800 335.538 C 272.800 335.685,272.037 336.043,271.104 336.335 C 270.171 336.626,268.236 337.450,266.804 338.165 C 265.372 338.881,263.300 339.805,262.200 340.218 C 261.100 340.632,259.978 341.186,259.706 341.450 C 259.434 341.715,258.039 342.321,256.606 342.798 C 255.173 343.275,254.000 343.806,254.000 343.979 C 254.000 344.152,252.650 344.785,251.000 345.387 C 249.350 345.989,248.000 346.619,248.000 346.787 C 248.000 346.955,246.650 347.585,245.000 348.187 C 243.350 348.789,241.962 349.488,241.914 349.741 C 241.867 349.993,241.708 342.730,241.561 333.600 C 241.154 308.461,240.854 305.862,238.508 307.181 C 238.119 307.400,235.820 308.035,233.400 308.592 C 230.980 309.149,228.640 309.774,228.200 309.981 C 227.760 310.188,225.330 310.842,222.800 311.434 C 220.270 312.026,218.020 312.644,217.800 312.807 C 217.580 312.970,215.195 313.605,212.500 314.219 C 209.805 314.832,207.600 315.484,207.600 315.667 C 207.600 315.850,207.316 316.000,206.969 316.000 C 206.023 316.000,197.461 318.063,197.000 318.402 C 196.780 318.564,194.440 319.200,191.800 319.814 C 184.922 321.416,185.600 319.076,185.600 341.195 C 185.600 351.465,185.480 378.518,185.334 401.312 L 185.068 442.757 186.074 443.215 C 187.039 443.655,192.945 441.730,193.605 440.761 C 193.718 440.595,194.978 439.959,196.405 439.348 C 197.832 438.737,199.092 438.107,199.205 437.948 C 199.318 437.789,200.578 437.159,202.005 436.548 C 203.432 435.937,204.692 435.307,204.805 435.148 C 204.918 434.989,206.178 434.359,207.605 433.748 C 209.032 433.137,210.295 432.503,210.411 432.338 C 210.528 432.174,211.968 431.469,213.611 430.771 C 215.255 430.074,216.690 429.372,216.800 429.212 C 216.910 429.051,218.170 428.405,219.600 427.776 C 221.030 427.146,222.290 426.516,222.400 426.376 C 222.510 426.235,223.770 425.605,225.200 424.976 C 226.630 424.346,227.890 423.716,228.000 423.576 C 228.110 423.435,229.370 422.805,230.800 422.176 C 232.230 421.546,233.492 420.903,233.605 420.745 C 233.718 420.588,234.978 419.959,236.405 419.348 C 237.832 418.737,239.092 418.107,239.205 417.948 C 239.318 417.789,240.578 417.159,242.005 416.548 C 243.432 415.937,244.692 415.307,244.805 415.148 C 244.918 414.989,246.178 414.359,247.605 413.748 C 249.032 413.137,250.292 412.507,250.405 412.348 C 250.518 412.189,251.778 411.559,253.205 410.948 C 254.632 410.337,255.892 409.707,256.005 409.548 C 256.118 409.389,257.378 408.759,258.805 408.148 C 260.232 407.537,261.495 406.903,261.611 406.738 C 261.728 406.574,263.168 405.869,264.811 405.171 C 266.455 404.474,267.890 403.765,268.000 403.596 C 268.110 403.428,269.370 402.799,270.800 402.200 C 272.230 401.601,273.490 400.971,273.600 400.800 C 273.710 400.629,274.970 399.999,276.400 399.400 C 277.830 398.801,279.090 398.171,279.200 398.000 C 279.310 397.829,280.570 397.199,282.000 396.600 C 283.430 396.001,284.690 395.371,284.800 395.200 C 284.910 395.029,286.170 394.399,287.600 393.800 C 289.030 393.201,290.290 392.577,290.400 392.415 C 290.510 392.253,291.770 391.605,293.200 390.976 C 294.630 390.346,295.892 389.703,296.005 389.545 C 296.118 389.388,297.378 388.759,298.805 388.148 C 300.232 387.537,301.492 386.907,301.605 386.748 C 301.718 386.589,302.978 385.957,304.405 385.343 C 305.832 384.729,307.201 384.032,307.448 383.794 C 307.694 383.557,308.999 382.924,310.348 382.388 C 311.696 381.852,312.800 381.297,312.800 381.155 C 312.800 381.013,314.240 380.302,316.000 379.575 C 317.760 378.849,319.200 378.136,319.200 377.991 C 319.200 377.846,320.460 377.220,322.000 376.600 C 323.540 375.980,324.800 375.350,324.800 375.200 C 324.800 375.050,326.060 374.420,327.600 373.800 C 329.140 373.180,330.400 372.550,330.400 372.400 C 330.400 372.250,331.660 371.620,333.200 371.000 C 334.740 370.380,336.000 369.750,336.000 369.600 C 336.000 369.450,337.260 368.820,338.800 368.200 C 340.340 367.580,341.600 366.950,341.600 366.800 C 341.600 366.650,342.860 366.020,344.400 365.400 C 345.940 364.780,347.200 364.150,347.200 364.000 C 347.200 363.850,348.460 363.220,350.000 362.600 C 351.540 361.980,352.800 361.348,352.800 361.196 C 352.800 361.044,354.015 360.409,355.500 359.785 C 356.985 359.160,358.292 358.517,358.405 358.354 C 358.518 358.192,359.778 357.557,361.205 356.943 C 362.632 356.329,364.001 355.632,364.248 355.394 C 364.494 355.157,365.799 354.524,367.148 353.988 C 368.496 353.452,369.600 352.897,369.600 352.755 C 369.600 352.613,371.040 351.902,372.800 351.175 C 374.560 350.449,376.000 349.736,376.000 349.591 C 376.000 349.446,377.260 348.820,378.800 348.200 C 380.340 347.580,381.600 346.950,381.600 346.800 C 381.600 346.650,382.860 346.020,384.400 345.400 C 385.940 344.780,387.200 344.150,387.200 344.000 C 387.200 343.850,388.460 343.220,390.000 342.600 C 391.540 341.980,392.800 341.350,392.800 341.200 C 392.800 341.050,394.050 340.424,395.578 339.809 C 397.106 339.194,398.462 338.416,398.590 338.082 C 398.848 337.408,399.101 288.603,399.388 183.948 C 399.571 117.439,399.551 114.865,398.845 114.052 C 398.442 113.587,397.052 112.726,395.756 112.138 C 394.460 111.550,393.310 110.949,393.200 110.804 C 393.090 110.659,391.920 110.013,390.600 109.370 C 389.280 108.726,388.110 108.091,388.000 107.957 C 387.890 107.823,386.900 107.259,385.800 106.702 C 384.700 106.146,382.450 104.955,380.800 104.056 C 379.150 103.157,376.630 101.856,375.200 101.164 C 373.770 100.473,372.510 99.779,372.400 99.622 C 372.290 99.465,371.120 98.819,369.800 98.187 C 368.480 97.555,367.310 96.917,367.200 96.769 C 367.090 96.622,365.830 95.929,364.400 95.231 C 360.301 93.229,356.637 91.297,356.195 90.905 C 355.972 90.707,354.717 90.055,353.407 89.455 C 352.097 88.855,350.929 88.210,350.813 88.021 C 350.514 87.540,346.042 85.600,345.230 85.600 C 343.561 85.600,343.600 84.277,343.600 140.540 L 343.600 194.519 329.100 194.261 C 321.125 194.120,297.966 193.885,277.635 193.740 L 240.671 193.477 240.936 150.839 C 241.082 127.387,241.314 90.740,241.451 69.400 L 241.701 30.600 240.550 29.358 C 239.918 28.675,238.275 27.615,236.900 27.003 C 235.525 26.391,234.400 25.760,234.400 25.600 C 234.400 25.440,233.597 25.002,232.616 24.627 C 231.635 24.253,230.193 23.513,229.412 22.983 C 228.631 22.453,227.049 21.619,225.896 21.131 C 224.743 20.642,223.704 20.105,223.586 19.937 C 223.469 19.769,222.029 18.932,220.386 18.077 C 211.907 13.660,207.780 11.443,207.600 11.205 C 207.490 11.060,206.535 10.594,205.479 10.171 C 204.422 9.747,203.252 9.130,202.879 8.800 C 202.505 8.470,201.210 7.759,200.000 7.221 C 198.790 6.682,197.440 5.947,197.000 5.587 C 196.560 5.227,195.210 4.520,194.000 4.016 C 192.790 3.512,191.710 2.966,191.600 2.804 C 190.666 1.420,186.809 0.448,185.893 1.364 M203.237 11.036 C 211.687 15.566,223.010 21.623,228.400 24.497 C 233.790 27.371,238.515 29.993,238.900 30.323 C 239.562 30.892,239.600 35.328,239.600 112.997 L 239.600 195.070 266.500 195.335 C 281.295 195.481,305.054 195.720,319.299 195.865 L 345.197 196.130 345.299 141.685 L 345.400 87.240 370.400 100.650 C 384.150 108.025,395.927 114.364,396.571 114.735 L 397.742 115.411 397.670 160.005 C 397.631 184.532,397.482 234.406,397.339 270.837 L 397.079 337.073 292.412 389.337 C 234.846 418.081,187.537 441.600,187.282 441.600 C 186.810 441.600,186.902 389.685,187.457 342.897 L 187.695 322.795 189.748 322.228 C 190.876 321.916,196.930 320.287,203.200 318.608 C 209.470 316.928,216.895 314.935,219.700 314.177 C 222.505 313.420,227.185 312.157,230.100 311.372 C 233.015 310.587,236.247 309.709,237.282 309.421 C 239.808 308.719,239.600 306.795,239.600 330.867 C 239.600 342.710,239.755 352.400,239.944 352.400 C 240.134 352.400,242.249 351.480,244.644 350.356 C 247.040 349.232,255.840 345.202,264.200 341.400 C 272.560 337.598,281.650 333.462,284.400 332.210 C 289.154 330.045,292.840 328.369,308.000 321.478 C 311.630 319.829,315.500 318.078,316.600 317.589 C 320.158 316.005,340.530 306.540,342.900 305.369 L 345.200 304.233 345.200 276.540 C 345.200 261.309,345.065 248.772,344.900 248.681 C 344.636 248.535,333.260 250.104,303.600 254.377 C 283.212 257.315,269.169 259.306,255.400 261.214 C 250.780 261.854,245.290 262.646,243.200 262.975 C 241.110 263.303,232.830 264.482,224.800 265.596 C 216.770 266.709,208.580 267.878,206.600 268.194 C 200.470 269.172,187.880 270.813,187.721 270.655 C 187.343 270.276,187.093 2.800,187.471 2.800 C 187.692 2.800,194.787 6.506,203.237 11.036 M258.866 40.334 C 257.602 41.598,256.860 161.827,258.100 164.532 C 258.766 165.984,258.211 165.906,274.400 166.819 C 282.210 167.260,296.250 168.053,305.600 168.582 C 326.862 169.784,325.009 169.771,325.984 168.725 C 326.795 167.854,326.800 167.589,326.800 121.894 L 326.800 75.938 325.674 74.812 C 325.054 74.192,323.569 73.277,322.374 72.777 C 321.178 72.277,319.840 71.573,319.400 71.213 C 318.960 70.853,317.610 70.118,316.400 69.579 C 315.190 69.041,313.898 68.330,313.529 68.000 C 313.159 67.670,311.764 66.968,310.429 66.440 C 309.093 65.912,308.000 65.360,308.000 65.213 C 308.000 65.067,306.875 64.419,305.500 63.774 C 304.125 63.128,302.807 62.420,302.570 62.200 C 302.334 61.980,301.164 61.352,299.970 60.804 C 298.777 60.257,297.710 59.697,297.600 59.561 C 297.490 59.425,296.500 58.859,295.400 58.302 C 294.300 57.746,292.050 56.556,290.400 55.658 C 288.750 54.760,286.230 53.447,284.800 52.740 C 283.370 52.033,282.104 51.315,281.987 51.145 C 281.871 50.975,280.701 50.348,279.387 49.752 C 278.074 49.156,276.910 48.549,276.800 48.404 C 276.690 48.259,275.520 47.613,274.200 46.970 C 272.880 46.326,271.710 45.690,271.600 45.555 C 271.490 45.421,270.320 44.793,269.000 44.161 C 267.680 43.528,266.510 42.900,266.400 42.764 C 266.181 42.495,260.154 39.600,259.811 39.600 C 259.695 39.600,259.270 39.930,258.866 40.334 M279.200 51.789 C 287.890 56.456,297.160 61.415,299.800 62.809 C 310.024 68.208,323.808 75.675,324.292 76.077 C 324.863 76.550,325.069 167.419,324.500 167.702 C 324.335 167.785,317.000 167.434,308.200 166.922 C 299.400 166.411,285.000 165.589,276.200 165.096 L 260.200 164.200 260.099 102.891 L 259.997 41.582 261.699 42.443 C 262.634 42.917,270.510 47.123,279.200 51.789 M86.200 96.754 C 84.440 97.592,82.325 98.500,81.500 98.770 C 80.675 99.041,80.000 99.518,80.000 99.831 C 80.000 100.144,79.820 100.400,79.600 100.400 C 78.786 100.400,79.094 400.846,79.909 401.859 C 80.796 402.961,84.406 404.948,87.100 405.816 C 88.255 406.188,89.200 406.651,89.200 406.846 C 89.200 407.490,91.064 407.213,91.738 406.469 C 92.731 405.371,92.765 96.822,91.771 95.829 C 90.833 94.890,89.731 95.073,86.200 96.754 M90.800 251.200 C 90.800 335.874,90.665 405.228,90.500 405.320 C 90.335 405.411,88.175 404.529,85.700 403.360 L 81.200 401.233 81.200 251.082 L 81.200 100.931 85.700 98.909 C 88.175 97.797,90.335 96.968,90.500 97.067 C 90.665 97.166,90.800 166.526,90.800 251.200 M9.172 134.478 C 7.978 134.916,6.415 135.468,5.700 135.704 C 4.985 135.941,4.400 136.270,4.400 136.436 C 4.400 136.602,3.725 136.952,2.900 137.213 C 2.075 137.474,1.175 137.973,0.900 138.321 C -0.011 139.473,0.187 361.691,1.100 362.484 C 1.485 362.819,2.295 363.210,2.900 363.354 C 3.505 363.498,4.000 363.763,4.000 363.944 C 4.000 364.125,5.305 364.793,6.900 365.429 C 8.495 366.066,9.860 366.724,9.933 366.893 C 10.202 367.512,11.727 367.176,12.453 366.339 C 13.232 365.440,13.669 135.703,12.894 134.571 C 12.311 133.720,11.307 133.695,9.172 134.478 M11.600 250.400 C 11.600 313.514,11.465 365.228,11.300 365.320 C 11.135 365.411,8.975 364.529,6.500 363.360 L 2.000 361.233 2.006 250.316 L 2.011 139.400 4.683 138.200 C 6.153 137.540,8.176 136.620,9.178 136.155 C 10.180 135.690,11.135 135.386,11.300 135.479 C 11.465 135.571,11.600 187.286,11.600 250.400 " stroke="none" fill="#eff3f3" fill-rule="evenodd"></path><path id="path1" d="M88.400 98.097 C 87.850 98.341,86.095 99.127,84.500 99.844 L 81.600 101.148 81.600 251.099 L 81.600 401.051 85.566 402.925 C 87.748 403.956,89.728 404.800,89.966 404.800 C 90.277 404.800,90.400 361.251,90.400 251.200 C 90.400 128.572,90.299 97.605,89.900 97.627 C 89.625 97.642,88.950 97.854,88.400 98.097 M8.181 136.995 C 7.091 137.542,5.345 138.346,4.300 138.781 L 2.400 139.572 2.402 250.286 L 2.405 361.000 6.425 362.900 C 8.637 363.945,10.616 364.800,10.823 364.800 C 11.058 364.800,11.200 321.738,11.200 250.400 C 11.200 156.873,11.105 136.000,10.681 136.000 C 10.395 136.000,9.270 136.448,8.181 136.995 " stroke="none" fill="#242424" fill-rule="evenodd"></path><path id="path2" d="M187.341 70.848 C 187.484 108.332,187.713 168.520,187.851 204.600 C 187.989 240.680,188.161 270.267,188.233 270.349 C 188.371 270.506,190.466 270.236,200.000 268.834 C 213.333 266.874,217.417 266.291,225.400 265.207 C 230.020 264.580,235.510 263.789,237.600 263.449 C 239.690 263.110,243.650 262.554,246.400 262.214 C 249.150 261.874,252.930 261.330,254.800 261.005 C 256.670 260.679,261.659 259.965,265.886 259.417 C 270.114 258.870,273.984 258.321,274.486 258.197 C 274.989 258.074,279.990 257.341,285.600 256.570 C 307.486 253.561,315.493 252.432,317.800 252.030 C 319.120 251.801,323.620 251.151,327.800 250.586 C 331.980 250.022,337.020 249.303,339.000 248.989 C 340.980 248.674,343.185 248.413,343.900 248.409 L 345.200 248.400 345.200 276.508 L 345.200 304.617 340.700 306.773 C 335.376 309.323,333.798 310.055,323.800 314.614 C 319.620 316.520,315.300 318.491,314.200 318.993 C 308.867 321.430,295.703 327.406,288.200 330.796 C 287.320 331.194,285.430 332.060,284.000 332.720 C 282.570 333.381,279.330 334.855,276.800 335.996 C 274.270 337.137,271.300 338.487,270.200 338.997 C 269.100 339.506,264.960 341.395,261.000 343.195 C 257.040 344.995,252.900 346.892,251.800 347.412 C 246.247 350.035,239.999 352.800,239.623 352.800 C 239.331 352.800,239.200 346.058,239.200 331.000 C 239.200 319.010,239.155 309.202,239.100 309.205 C 239.045 309.207,238.010 309.489,236.800 309.830 C 234.009 310.616,225.674 312.889,219.200 314.628 C 216.450 315.367,211.500 316.703,208.200 317.596 C 204.900 318.490,199.860 319.841,197.000 320.600 C 194.140 321.359,190.990 322.228,190.000 322.533 L 188.200 323.087 187.956 333.043 C 187.822 338.520,187.568 365.191,187.391 392.313 L 187.070 441.626 267.635 401.368 C 311.946 379.226,359.090 355.668,372.400 349.016 L 396.600 336.922 396.843 335.161 C 396.977 334.192,397.157 284.369,397.243 224.441 L 397.400 115.482 371.600 101.618 L 345.800 87.754 345.556 107.777 C 345.422 118.790,345.287 143.257,345.256 162.149 L 345.200 196.498 333.500 196.252 C 327.065 196.116,307.400 195.912,289.800 195.799 C 272.200 195.686,253.615 195.485,248.500 195.352 L 239.200 195.110 239.200 112.835 L 239.200 30.559 237.500 29.695 C 235.963 28.914,232.925 27.299,224.000 22.521 C 218.521 19.587,214.635 17.515,211.400 15.800 C 209.640 14.867,207.030 13.476,205.600 12.708 C 204.170 11.941,200.210 9.828,196.800 8.012 C 193.390 6.196,189.808 4.257,188.841 3.703 L 187.081 2.697 187.341 70.848 M260.000 102.792 L 260.000 163.585 260.900 163.772 C 261.973 163.995,262.391 164.020,291.200 165.566 C 303.630 166.234,315.790 166.964,318.221 167.190 C 320.653 167.415,323.038 167.600,323.521 167.600 L 324.400 167.600 324.400 122.038 L 324.400 76.476 322.100 75.169 C 320.835 74.449,318.810 73.336,317.600 72.695 C 316.390 72.054,314.156 70.871,312.634 70.065 C 311.113 69.259,309.403 68.349,308.834 68.042 C 291.670 58.781,260.319 42.000,260.184 42.000 C 260.083 42.000,260.000 69.357,260.000 102.792 " stroke="none" fill="#04bcbc" fill-rule="evenodd"></path><path id="path3" d="M187.644 2.956 C 188.076 3.425,206.512 13.221,206.669 13.064 C 206.801 12.933,188.962 3.259,187.825 2.845 C 187.591 2.760,187.510 2.810,187.644 2.956 M207.200 13.344 C 207.200 13.649,212.444 16.490,212.641 16.292 C 212.741 16.192,211.557 15.446,210.011 14.634 C 208.465 13.821,207.200 13.241,207.200 13.344 M213.200 16.559 C 213.200 16.851,216.910 18.823,217.101 18.633 C 217.199 18.534,216.362 17.989,215.240 17.420 C 214.118 16.852,213.200 16.464,213.200 16.559 M219.200 19.739 C 219.200 20.010,222.837 22.097,223.009 21.924 C 223.090 21.843,222.266 21.277,221.178 20.666 C 220.090 20.054,219.200 19.637,219.200 19.739 M224.400 22.541 C 224.400 22.808,228.090 24.843,228.263 24.671 C 228.340 24.593,227.503 24.039,226.402 23.440 C 225.301 22.840,224.400 22.436,224.400 22.541 M229.600 25.387 C 229.600 25.497,230.500 26.043,231.600 26.600 C 232.700 27.157,233.600 27.523,233.600 27.413 C 233.600 27.303,232.700 26.757,231.600 26.200 C 230.500 25.643,229.600 25.277,229.600 25.387 M235.600 28.584 C 235.600 28.694,236.320 29.151,237.200 29.600 C 238.080 30.049,238.800 30.326,238.800 30.216 C 238.800 30.106,238.080 29.649,237.200 29.200 C 236.320 28.751,235.600 28.474,235.600 28.584 M239.396 113.000 C 239.396 158.320,239.443 176.801,239.500 154.068 C 239.557 131.336,239.557 94.256,239.500 71.668 C 239.443 49.081,239.396 67.680,239.396 113.000 M262.400 42.987 C 262.400 43.097,263.300 43.643,264.400 44.200 C 265.500 44.757,266.400 45.123,266.400 45.013 C 266.400 44.903,265.500 44.357,264.400 43.800 C 263.300 43.243,262.400 42.877,262.400 42.987 M267.600 45.787 C 267.600 45.897,268.500 46.443,269.600 47.000 C 270.700 47.557,271.600 47.923,271.600 47.813 C 271.600 47.703,270.700 47.157,269.600 46.600 C 268.500 46.043,267.600 45.677,267.600 45.787 M272.800 48.587 C 272.800 48.697,273.700 49.243,274.800 49.800 C 275.900 50.357,276.800 50.723,276.800 50.613 C 276.800 50.503,275.900 49.957,274.800 49.400 C 273.700 48.843,272.800 48.477,272.800 48.587 M278.000 51.387 C 278.000 51.497,278.900 52.043,280.000 52.600 C 281.100 53.157,282.000 53.523,282.000 53.413 C 282.000 53.303,281.100 52.757,280.000 52.200 C 278.900 51.643,278.000 51.277,278.000 51.387 M283.200 54.187 C 283.200 54.297,284.100 54.843,285.200 55.400 C 286.300 55.957,287.200 56.323,287.200 56.213 C 287.200 56.103,286.300 55.557,285.200 55.000 C 284.100 54.443,283.200 54.077,283.200 54.187 M289.200 57.387 C 289.200 57.497,290.100 58.043,291.200 58.600 C 292.300 59.157,293.200 59.523,293.200 59.413 C 293.200 59.303,292.300 58.757,291.200 58.200 C 290.100 57.643,289.200 57.277,289.200 57.387 M294.400 60.188 C 294.400 60.298,295.480 60.934,296.800 61.600 C 298.120 62.266,299.200 62.722,299.200 62.612 C 299.200 62.502,298.120 61.866,296.800 61.200 C 295.480 60.534,294.400 60.078,294.400 60.188 M299.600 62.933 C 299.600 63.209,308.830 68.103,309.010 67.923 C 309.090 67.843,307.144 66.703,304.686 65.389 C 299.547 62.643,299.600 62.668,299.600 62.933 M309.778 68.364 C 310.079 68.852,313.996 70.938,314.209 70.724 C 314.281 70.652,313.250 69.991,311.919 69.253 C 310.588 68.516,309.624 68.116,309.778 68.364 M315.400 71.408 C 316.365 72.198,319.225 73.708,319.408 73.525 C 319.480 73.453,318.428 72.800,317.070 72.073 C 315.711 71.347,314.960 71.048,315.400 71.408 M320.000 73.783 C 320.000 73.898,320.992 74.553,322.203 75.237 L 324.407 76.480 324.303 122.202 C 324.247 147.349,324.335 167.840,324.500 167.738 C 324.665 167.636,324.800 147.046,324.800 121.981 L 324.800 76.410 323.300 75.468 C 321.196 74.147,320.000 73.536,320.000 73.783 M187.394 134.600 C 187.395 165.400,187.442 177.941,187.500 162.469 C 187.558 146.997,187.558 121.797,187.500 106.469 C 187.442 91.141,187.394 103.800,187.394 134.600 M345.384 105.200 C 345.384 115.210,345.436 119.305,345.500 114.300 C 345.563 109.295,345.563 101.105,345.500 96.100 C 345.436 91.095,345.384 95.190,345.384 105.200 M346.800 88.184 C 346.800 88.294,347.520 88.751,348.400 89.200 C 349.280 89.649,350.000 89.926,350.000 89.816 C 350.000 89.706,349.280 89.249,348.400 88.800 C 347.520 88.351,346.800 88.074,346.800 88.184 M352.000 90.984 C 352.000 91.094,352.720 91.551,353.600 92.000 C 354.480 92.449,355.200 92.726,355.200 92.616 C 355.200 92.506,354.480 92.049,353.600 91.600 C 352.720 91.151,352.000 90.874,352.000 90.984 M357.200 93.787 C 357.200 93.897,358.100 94.443,359.200 95.000 C 360.300 95.557,361.200 95.923,361.200 95.813 C 361.200 95.703,360.300 95.157,359.200 94.600 C 358.100 94.043,357.200 93.677,357.200 93.787 M90.200 251.200 C 90.200 336.078,90.335 405.440,90.500 405.338 C 90.665 405.236,90.800 335.874,90.800 251.200 C 90.800 166.526,90.665 97.164,90.500 97.062 C 90.335 96.960,90.200 166.322,90.200 251.200 M363.200 96.984 C 363.200 97.094,363.920 97.551,364.800 98.000 C 365.680 98.449,366.400 98.726,366.400 98.616 C 366.400 98.506,365.680 98.049,364.800 97.600 C 363.920 97.151,363.200 96.874,363.200 96.984 M368.400 99.784 C 368.400 99.894,369.120 100.351,370.000 100.800 C 370.880 101.249,371.600 101.526,371.600 101.416 C 371.600 101.306,370.880 100.849,370.000 100.400 C 369.120 99.951,368.400 99.674,368.400 99.784 M373.600 102.584 C 373.600 102.694,374.320 103.151,375.200 103.600 C 376.080 104.049,376.800 104.326,376.800 104.216 C 376.800 104.106,376.080 103.649,375.200 103.200 C 374.320 102.751,373.600 102.474,373.600 102.584 M378.800 105.387 C 378.800 105.497,379.700 106.043,380.800 106.600 C 381.900 107.157,382.800 107.523,382.800 107.413 C 382.800 107.303,381.900 106.757,380.800 106.200 C 379.700 105.643,378.800 105.277,378.800 105.387 M384.000 108.187 C 384.000 108.297,384.900 108.843,386.000 109.400 C 387.100 109.957,388.000 110.323,388.000 110.213 C 388.000 110.103,387.100 109.557,386.000 109.000 C 384.900 108.443,384.000 108.077,384.000 108.187 M390.000 111.387 C 390.000 111.497,390.900 112.043,392.000 112.600 C 393.100 113.157,394.000 113.523,394.000 113.413 C 394.000 113.303,393.100 112.757,392.000 112.200 C 390.900 111.643,390.000 111.277,390.000 111.387 M395.200 114.153 C 395.200 114.278,395.734 114.656,396.387 114.993 L 397.573 115.607 397.709 119.903 L 397.845 124.200 397.822 119.821 L 397.800 115.443 396.500 114.685 C 395.785 114.268,395.200 114.028,395.200 114.153 M11.000 250.400 C 11.000 313.718,11.135 365.440,11.300 365.338 C 11.692 365.096,11.692 135.704,11.300 135.462 C 11.135 135.360,11.000 187.082,11.000 250.400 M260.255 164.089 C 260.361 164.260,262.012 164.375,263.924 164.346 C 267.757 164.285,267.352 164.107,262.931 163.907 C 261.353 163.836,260.149 163.917,260.255 164.089 M268.500 164.687 C 269.105 164.778,270.095 164.778,270.700 164.687 C 271.305 164.595,270.810 164.520,269.600 164.520 C 268.390 164.520,267.895 164.595,268.500 164.687 M276.100 165.087 C 276.705 165.178,277.695 165.178,278.300 165.087 C 278.905 164.995,278.410 164.920,277.200 164.920 C 275.990 164.920,275.495 164.995,276.100 165.087 M283.507 165.490 C 284.226 165.579,285.306 165.577,285.907 165.486 C 286.508 165.395,285.920 165.322,284.600 165.324 C 283.280 165.326,282.788 165.401,283.507 165.490 M290.691 165.889 C 291.401 165.977,292.661 165.979,293.491 165.892 C 294.321 165.805,293.740 165.733,292.200 165.731 C 290.660 165.729,289.981 165.800,290.691 165.889 M302.800 166.625 C 307.090 166.904,311.950 167.121,313.600 167.107 C 315.250 167.093,313.090 166.854,308.800 166.575 C 304.510 166.296,299.650 166.079,298.000 166.093 C 296.350 166.107,298.510 166.346,302.800 166.625 M317.700 167.487 C 318.305 167.578,319.295 167.578,319.900 167.487 C 320.505 167.395,320.010 167.320,318.800 167.320 C 317.590 167.320,317.095 167.395,317.700 167.487 M397.392 222.200 C 397.392 243.760,397.441 252.521,397.500 241.670 C 397.559 230.818,397.559 213.178,397.500 202.470 C 397.441 191.761,397.392 200.640,397.392 222.200 M254.725 195.499 C 258.314 195.566,264.074 195.566,267.525 195.499 C 270.976 195.433,268.040 195.378,261.000 195.378 C 253.960 195.379,251.136 195.433,254.725 195.499 M295.924 195.899 C 299.073 195.967,304.113 195.967,307.124 195.899 C 310.136 195.831,307.560 195.776,301.400 195.776 C 295.240 195.776,292.776 195.832,295.924 195.899 M336.100 196.297 C 337.805 196.372,340.595 196.372,342.300 196.297 C 344.005 196.222,342.610 196.161,339.200 196.161 C 335.790 196.161,334.395 196.222,336.100 196.297 M187.698 233.900 L 187.600 270.800 188.500 270.754 C 189.174 270.719,189.225 270.661,188.702 270.525 C 188.046 270.353,187.998 268.167,187.900 233.671 L 187.796 197.000 187.698 233.900 M338.200 249.049 C 334.062 249.690,332.754 250.105,336.000 249.747 C 339.490 249.362,344.319 248.498,343.000 248.494 C 342.340 248.492,340.180 248.742,338.200 249.049 M318.641 251.831 C 316.684 252.135,314.974 252.494,314.841 252.629 C 314.592 252.883,316.424 252.657,321.600 251.796 C 323.250 251.522,324.060 251.293,323.400 251.288 C 322.740 251.282,320.599 251.526,318.641 251.831 M298.843 254.633 C 296.777 254.934,294.977 255.295,294.843 255.435 C 294.581 255.711,297.223 255.403,302.000 254.601 C 306.046 253.922,303.553 253.947,298.843 254.633 M278.682 257.495 C 276.307 257.827,274.451 258.184,274.556 258.289 C 274.767 258.500,285.200 257.186,285.200 256.948 C 285.200 256.698,283.192 256.867,278.682 257.495 M258.803 260.318 C 256.495 260.658,254.820 261.007,255.080 261.093 C 255.601 261.267,264.882 260.051,265.160 259.773 C 265.454 259.479,263.186 259.674,258.803 260.318 M239.800 263.044 C 237.820 263.348,235.930 263.678,235.600 263.777 C 234.495 264.110,240.166 263.512,243.000 262.996 C 246.755 262.313,244.326 262.349,239.800 263.044 M220.400 265.800 C 218.530 266.074,216.640 266.402,216.200 266.528 C 214.967 266.882,219.837 266.384,223.200 265.811 C 227.059 265.155,224.860 265.146,220.400 265.800 M200.800 268.604 C 195.997 269.314,194.972 269.582,198.000 269.338 C 201.195 269.080,207.055 268.101,205.400 268.101 C 204.740 268.101,202.670 268.327,200.800 268.604 M342.400 305.600 C 341.190 306.239,340.380 306.762,340.600 306.762 C 340.820 306.762,341.990 306.239,343.200 305.600 C 344.410 304.961,345.220 304.438,345.000 304.438 C 344.780 304.438,343.610 304.961,342.400 305.600 M336.600 308.385 C 335.280 309.016,334.330 309.547,334.489 309.566 C 334.929 309.618,339.200 307.675,339.200 307.422 C 339.200 307.129,339.339 307.078,336.600 308.385 M239.107 330.838 C 239.206 351.380,239.258 352.798,239.907 352.768 C 240.324 352.749,240.401 352.657,240.100 352.535 C 239.709 352.377,239.600 347.650,239.600 330.790 C 239.600 318.942,239.465 309.164,239.300 309.062 C 239.135 308.960,239.048 318.759,239.107 330.838 M232.281 310.687 C 231.006 311.022,230.041 311.375,230.138 311.471 C 230.342 311.675,234.766 310.568,235.106 310.228 C 235.422 309.911,234.948 309.988,232.281 310.687 M331.000 310.974 C 329.900 311.503,329.120 311.951,329.267 311.968 C 329.689 312.018,333.200 310.452,333.200 310.214 C 333.200 309.912,333.214 309.907,331.000 310.974 M221.281 313.679 C 219.676 314.128,218.437 314.570,218.528 314.661 C 218.694 314.828,224.855 313.244,225.167 312.955 C 225.520 312.627,224.084 312.894,221.281 313.679 M324.400 314.000 C 323.630 314.422,323.180 314.766,323.400 314.766 C 323.620 314.766,324.430 314.422,325.200 314.000 C 325.970 313.578,326.420 313.234,326.200 313.234 C 325.980 313.234,325.170 313.578,324.400 314.000 M210.600 316.594 C 208.840 317.107,207.671 317.544,208.001 317.564 C 208.690 317.605,213.999 316.134,214.320 315.813 C 214.669 315.465,213.969 315.611,210.600 316.594 M319.200 316.400 C 318.430 316.822,317.980 317.166,318.200 317.166 C 318.420 317.166,319.230 316.822,320.000 316.400 C 320.770 315.978,321.220 315.634,321.000 315.634 C 320.780 315.634,319.970 315.978,319.200 316.400 M199.600 319.633 C 198.390 320.048,197.940 320.291,198.600 320.172 C 200.543 319.822,202.800 319.184,202.800 318.985 C 202.800 318.665,201.873 318.853,199.600 319.633 M311.600 319.800 C 310.610 320.330,309.912 320.772,310.049 320.782 C 310.436 320.810,314.000 319.185,314.000 318.981 C 314.000 318.634,313.388 318.843,311.600 319.800 M189.500 322.240 L 187.600 322.824 187.688 331.712 L 187.776 340.600 187.988 331.848 L 188.200 323.097 190.400 322.389 C 191.610 322.000,192.330 321.676,192.000 321.669 C 191.670 321.662,190.545 321.919,189.500 322.240 M306.000 322.400 C 305.230 322.822,304.780 323.166,305.000 323.166 C 305.220 323.166,306.030 322.822,306.800 322.400 C 307.570 321.978,308.020 321.634,307.800 321.634 C 307.580 321.634,306.770 321.978,306.000 322.400 M300.200 324.994 C 298.660 325.730,297.580 326.341,297.800 326.351 C 298.020 326.361,299.460 325.761,301.000 325.019 C 302.540 324.276,303.620 323.666,303.400 323.662 C 303.180 323.658,301.740 324.257,300.200 324.994 M293.200 328.200 C 292.210 328.730,291.580 329.164,291.800 329.164 C 292.020 329.164,293.010 328.730,294.000 328.200 C 294.990 327.670,295.620 327.236,295.400 327.236 C 295.180 327.236,294.190 327.670,293.200 328.200 M286.600 331.185 C 285.280 331.816,284.313 332.347,284.450 332.366 C 284.840 332.419,289.200 330.436,289.200 330.205 C 289.200 329.932,289.323 329.885,286.600 331.185 M280.400 334.000 C 279.630 334.422,279.113 334.774,279.251 334.783 C 279.665 334.811,282.400 333.605,282.400 333.395 C 282.400 333.046,281.825 333.220,280.400 334.000 M396.800 335.390 C 396.800 336.529,396.584 336.891,395.600 337.400 C 393.925 338.266,394.093 338.534,395.800 337.719 C 397.045 337.126,398.054 334.000,397.000 334.000 C 396.890 334.000,396.800 334.625,396.800 335.390 M275.200 336.400 C 274.430 336.822,273.980 337.166,274.200 337.166 C 274.420 337.166,275.230 336.822,276.000 336.400 C 276.770 335.978,277.220 335.634,277.000 335.634 C 276.780 335.634,275.970 335.978,275.200 336.400 M269.000 339.200 C 267.680 339.826,266.730 340.353,266.889 340.369 C 267.335 340.417,271.600 338.473,271.600 338.222 C 271.600 337.944,271.823 337.860,269.000 339.200 M391.100 339.626 C 389.835 340.279,388.800 340.903,388.800 341.012 C 388.800 341.191,393.560 338.925,393.967 338.553 C 394.490 338.073,393.098 338.594,391.100 339.626 M262.400 342.200 C 261.410 342.730,260.780 343.164,261.000 343.164 C 261.220 343.164,262.210 342.730,263.200 342.200 C 264.190 341.670,264.820 341.236,264.600 341.236 C 264.380 341.236,263.390 341.670,262.400 342.200 M385.500 342.426 C 384.235 343.079,383.200 343.703,383.200 343.812 C 383.200 343.991,387.960 341.725,388.367 341.353 C 388.890 340.873,387.498 341.394,385.500 342.426 M187.385 361.200 C 187.385 371.430,187.436 375.615,187.500 370.500 C 187.563 365.385,187.563 357.015,187.500 351.900 C 187.436 346.785,187.385 350.970,187.385 361.200 M255.800 345.200 C 254.040 346.046,252.780 346.741,253.000 346.745 C 253.220 346.749,254.840 346.059,256.600 345.211 C 258.360 344.363,259.620 343.668,259.400 343.666 C 259.180 343.664,257.560 344.354,255.800 345.200 M378.800 345.800 C 377.370 346.549,376.340 347.170,376.511 347.181 C 376.937 347.207,381.600 344.837,381.600 344.594 C 381.600 344.325,381.694 344.285,378.800 345.800 M249.400 348.174 C 248.300 348.703,247.520 349.151,247.667 349.168 C 248.089 349.218,251.600 347.652,251.600 347.414 C 251.600 347.112,251.614 347.107,249.400 348.174 M364.400 353.000 C 358.130 356.166,353.136 358.767,353.303 358.778 C 353.727 358.809,376.000 347.642,376.000 347.399 C 376.000 347.122,376.916 346.679,364.400 353.000 M243.200 351.000 C 242.210 351.530,241.580 351.964,241.800 351.964 C 242.020 351.964,243.010 351.530,244.000 351.000 C 244.990 350.470,245.620 350.036,245.400 350.036 C 245.180 350.036,244.190 350.470,243.200 351.000 M350.700 359.826 C 349.655 360.370,348.800 360.905,348.800 361.014 C 348.800 361.124,349.700 360.757,350.800 360.200 C 351.900 359.643,352.800 359.100,352.800 358.993 C 352.800 358.729,352.836 358.714,350.700 359.826 M344.000 363.200 C 342.790 363.839,341.941 364.371,342.113 364.381 C 342.538 364.407,346.400 362.436,346.400 362.193 C 346.400 361.926,346.455 361.903,344.000 363.200 M339.200 365.600 C 337.990 366.239,337.141 366.771,337.313 366.781 C 337.738 366.807,341.600 364.836,341.600 364.593 C 341.600 364.326,341.655 364.303,339.200 365.600 M333.600 368.400 C 331.950 369.258,330.739 369.969,330.910 369.980 C 331.335 370.007,336.800 367.238,336.800 366.995 C 336.800 366.725,336.932 366.667,333.600 368.400 M327.600 371.400 C 326.170 372.149,325.140 372.770,325.311 372.781 C 325.737 372.807,330.400 370.437,330.400 370.194 C 330.400 369.925,330.494 369.885,327.600 371.400 M322.000 374.200 C 320.570 374.949,319.540 375.570,319.711 375.581 C 320.137 375.607,324.800 373.237,324.800 372.994 C 324.800 372.725,324.894 372.685,322.000 374.200 M316.000 377.200 C 314.790 377.839,313.941 378.371,314.113 378.381 C 314.538 378.407,318.400 376.436,318.400 376.193 C 318.400 375.926,318.455 375.903,316.000 377.200 M311.200 379.600 C 309.990 380.239,309.141 380.771,309.313 380.781 C 309.738 380.807,313.600 378.836,313.600 378.593 C 313.600 378.326,313.655 378.303,311.200 379.600 M305.600 382.400 C 303.950 383.258,302.739 383.969,302.910 383.980 C 303.335 384.007,308.800 381.238,308.800 380.995 C 308.800 380.725,308.932 380.667,305.600 382.400 M299.200 385.600 C 297.550 386.458,296.339 387.169,296.510 387.180 C 296.935 387.207,302.400 384.438,302.400 384.195 C 302.400 383.925,302.532 383.867,299.200 385.600 M293.200 388.600 C 291.770 389.349,290.740 389.970,290.911 389.981 C 291.337 390.007,296.000 387.637,296.000 387.394 C 296.000 387.125,296.094 387.085,293.200 388.600 M287.200 391.600 C 285.990 392.239,285.141 392.771,285.313 392.781 C 285.738 392.807,289.600 390.836,289.600 390.593 C 289.600 390.326,289.655 390.303,287.200 391.600 M282.000 394.200 C 281.010 394.730,280.342 395.172,280.516 395.182 C 280.941 395.206,284.000 393.634,284.000 393.392 C 284.000 393.127,284.017 393.120,282.000 394.200 M276.800 396.800 C 275.590 397.439,274.741 397.971,274.913 397.981 C 275.338 398.007,279.200 396.036,279.200 395.793 C 279.200 395.526,279.255 395.503,276.800 396.800 M270.800 399.800 C 269.370 400.549,268.340 401.170,268.511 401.181 C 268.937 401.207,273.600 398.837,273.600 398.594 C 273.600 398.325,273.694 398.285,270.800 399.800 M264.800 402.800 C 263.590 403.439,262.741 403.971,262.913 403.981 C 263.338 404.007,267.200 402.036,267.200 401.793 C 267.200 401.526,267.255 401.503,264.800 402.800 M259.600 405.400 C 258.610 405.930,257.942 406.372,258.116 406.382 C 258.541 406.406,261.600 404.834,261.600 404.592 C 261.600 404.327,261.617 404.320,259.600 405.400 M254.000 408.200 C 253.010 408.730,252.342 409.172,252.516 409.182 C 252.941 409.206,256.000 407.634,256.000 407.392 C 256.000 407.127,256.017 407.120,254.000 408.200 M248.800 410.800 C 247.590 411.439,246.741 411.971,246.913 411.981 C 247.338 412.007,251.200 410.036,251.200 409.793 C 251.200 409.526,251.255 409.503,248.800 410.800 M242.400 414.000 C 241.190 414.639,240.341 415.171,240.513 415.181 C 240.938 415.207,244.800 413.236,244.800 412.993 C 244.800 412.726,244.855 412.703,242.400 414.000 M236.800 416.800 C 236.030 417.222,235.544 417.574,235.720 417.583 C 236.144 417.605,238.400 416.432,238.400 416.190 C 238.400 415.928,238.377 415.937,236.800 416.800 M186.978 429.400 C 186.978 436.220,187.032 439.066,187.099 435.725 C 187.166 432.384,187.166 426.804,187.099 423.325 C 187.033 419.846,186.978 422.580,186.978 429.400 M230.800 419.800 C 229.810 420.330,229.142 420.772,229.316 420.782 C 229.741 420.806,232.800 419.234,232.800 418.992 C 232.800 418.727,232.817 418.720,230.800 419.800 M225.285 422.471 C 224.342 422.929,223.649 423.382,223.746 423.479 C 223.945 423.679,227.200 422.089,227.200 421.792 C 227.200 421.537,227.247 421.520,225.285 422.471 M220.039 425.022 C 219.291 425.347,218.779 425.713,218.902 425.836 C 219.133 426.066,221.600 424.927,221.600 424.590 C 221.600 424.342,221.619 424.336,220.039 425.022 M214.453 427.853 C 213.713 428.176,213.201 428.534,213.316 428.650 C 213.537 428.871,216.000 427.715,216.000 427.390 C 216.000 427.163,216.113 427.129,214.453 427.853 M208.176 430.987 C 207.749 431.310,207.591 431.580,207.824 431.587 C 208.056 431.594,208.596 431.336,209.024 431.013 C 209.451 430.690,209.609 430.420,209.376 430.413 C 209.144 430.406,208.604 430.664,208.176 430.987 M202.489 433.865 C 201.768 434.220,201.256 434.589,201.352 434.685 C 201.548 434.882,204.000 433.683,204.000 433.390 C 204.000 433.126,203.963 433.138,202.489 433.865 M196.700 436.629 C 196.095 436.957,195.600 437.300,195.600 437.392 C 195.600 437.679,197.990 436.740,198.224 436.361 C 198.546 435.841,197.964 435.943,196.700 436.629 M191.300 439.396 C 190.585 439.707,190.000 440.056,190.000 440.172 C 190.000 440.419,192.026 439.596,192.580 439.124 C 193.105 438.676,192.814 438.738,191.300 439.396 " stroke="none" fill="#41cccc" fill-rule="evenodd"></path><path id="path4" d="M88.400 97.800 C 87.094 98.547,87.551 98.555,89.254 97.816 C 89.994 97.494,90.330 97.231,90.000 97.230 C 89.670 97.229,88.950 97.486,88.400 97.800 M82.089 100.623 L 81.200 101.245 81.299 251.323 L 81.398 401.400 81.599 251.268 L 81.800 101.135 82.800 100.582 C 83.350 100.277,83.615 100.022,83.389 100.014 C 83.163 100.006,82.578 100.280,82.089 100.623 M5.800 137.791 C 4.700 138.309,3.920 138.748,4.067 138.767 C 4.486 138.819,8.000 137.253,8.000 137.014 C 8.000 136.740,8.128 136.694,5.800 137.791 M2.185 139.700 C 2.081 139.975,2.041 189.970,2.098 250.800 L 2.200 361.400 2.400 250.300 C 2.510 189.195,2.549 139.200,2.487 139.200 C 2.426 139.200,2.289 139.425,2.185 139.700 M4.529 362.262 C 4.900 362.633,8.000 363.997,8.000 363.789 C 8.000 363.581,4.950 362.000,4.549 362.000 C 4.394 362.000,4.385 362.118,4.529 362.262 M82.974 401.958 C 83.097 402.158,83.780 402.524,84.490 402.771 C 85.988 403.294,85.535 402.779,83.875 402.073 C 83.256 401.809,82.850 401.758,82.974 401.958 " stroke="none" fill="#848484" fill-rule="evenodd"></path></g></svg>