<svg id="svg" version="1.1" xmlns="http://www.w3.org/2000/svg" xmlns:xlink="http://www.w3.org/1999/xlink" width="400" height="63.20098239869013" viewBox="0, 0, 400,63.20098239869013"><g id="svgg"><path id="path0" d="M4.167 21.333 L 4.167 42.667 8.163 42.667 L 12.160 42.667 12.254 42.292 C 12.305 42.085,12.325 35.390,12.299 27.412 L 12.250 12.908 12.813 13.829 C 13.123 14.335,13.531 15.012,13.720 15.333 C 13.909 15.654,14.240 16.142,14.456 16.417 C 14.671 16.692,14.976 17.087,15.132 17.296 C 15.289 17.504,15.511 17.781,15.627 17.911 C 15.742 18.040,16.472 18.995,17.249 20.032 C 18.026 21.068,18.832 22.136,19.039 22.404 C 19.247 22.672,19.418 22.934,19.419 22.987 C 19.422 23.144,20.896 25.072,21.124 25.217 C 21.239 25.290,21.333 25.436,21.333 25.542 C 21.333 25.648,21.551 25.963,21.818 26.242 C 22.084 26.521,23.700 28.625,25.408 30.917 C 27.115 33.208,28.650 35.248,28.818 35.448 C 28.986 35.649,29.402 36.193,29.743 36.657 L 30.362 37.500 31.410 37.500 L 32.459 37.500 33.188 36.601 C 33.589 36.107,34.067 35.494,34.250 35.238 C 34.433 34.983,34.837 34.469,35.148 34.095 C 35.643 33.501,36.192 32.732,36.750 31.855 C 37.123 31.268,40.245 27.088,40.504 26.830 C 40.657 26.677,41.032 26.184,41.338 25.734 C 41.644 25.284,41.942 24.879,41.999 24.833 C 42.057 24.787,42.797 23.813,43.644 22.667 C 44.491 21.521,45.291 20.453,45.422 20.294 C 45.553 20.134,45.862 19.684,46.108 19.294 C 46.355 18.903,47.121 17.882,47.810 17.025 C 48.500 16.167,49.368 14.881,49.740 14.167 L 50.417 12.867 50.417 27.725 L 50.417 42.583 54.988 42.628 C 58.535 42.662,59.590 42.625,59.694 42.461 C 59.768 42.345,59.829 32.744,59.831 21.125 L 59.833 0.000 55.685 0.000 L 51.537 0.000 51.106 0.542 C 50.870 0.840,50.225 1.683,49.674 2.417 C 49.123 3.150,48.573 3.862,48.452 4.000 C 47.922 4.604,47.166 5.643,47.164 5.774 C 47.162 5.852,46.980 6.142,46.760 6.417 C 46.539 6.692,45.964 7.438,45.482 8.075 C 44.557 9.298,44.346 9.566,43.651 10.399 C 43.413 10.684,42.963 11.262,42.651 11.684 C 42.339 12.106,41.528 13.193,40.850 14.100 C 40.172 15.008,39.309 16.162,38.933 16.667 C 38.558 17.171,38.156 17.683,38.041 17.805 C 37.925 17.926,37.745 18.189,37.640 18.388 C 37.534 18.587,37.310 18.900,37.142 19.083 C 36.973 19.267,35.815 20.767,34.567 22.417 C 33.320 24.067,32.278 25.417,32.253 25.417 C 32.227 25.417,31.728 24.795,31.145 24.035 C 30.561 23.275,29.821 22.326,29.500 21.925 C 29.179 21.525,28.527 20.684,28.050 20.057 C 27.573 19.430,26.915 18.579,26.588 18.167 C 25.273 16.510,23.010 13.628,21.750 12.005 C 21.017 11.060,20.264 10.129,20.077 9.935 C 19.890 9.742,19.237 8.908,18.627 8.083 C 18.016 7.258,17.453 6.508,17.375 6.417 C 17.298 6.325,16.752 5.612,16.163 4.833 C 15.210 3.574,13.495 1.431,12.595 0.377 C 12.277 0.005,12.224 -0.000,8.220 -0.000 L 4.167 0.000 4.167 21.333 M95.391 1.042 C 94.660 2.244,94.283 2.931,93.397 4.667 C 92.531 6.364,90.352 10.189,90.066 10.513 C 89.938 10.658,89.833 10.818,89.833 10.868 C 89.833 10.919,89.321 11.850,88.694 12.938 C 88.068 14.026,87.112 15.704,86.571 16.667 C 86.029 17.629,85.497 18.567,85.389 18.750 C 85.280 18.933,85.057 19.346,84.893 19.667 C 84.730 19.987,84.499 20.349,84.381 20.470 C 84.179 20.678,84.102 20.922,84.147 21.208 C 84.158 21.277,84.092 21.333,84.000 21.333 C 83.908 21.333,83.833 21.419,83.833 21.523 C 83.833 21.710,80.890 27.014,80.332 27.833 C 80.175 28.063,79.849 28.606,79.607 29.042 C 79.365 29.477,78.968 30.190,78.726 30.625 C 78.484 31.060,77.798 32.279,77.201 33.333 C 75.963 35.524,75.279 36.760,74.713 37.833 C 74.495 38.246,74.247 38.696,74.160 38.833 C 73.570 39.770,72.167 42.348,72.167 42.494 C 72.167 42.617,73.711 42.658,77.184 42.627 L 82.201 42.583 82.559 41.918 C 82.756 41.552,82.960 41.214,83.013 41.168 C 83.067 41.121,83.217 40.822,83.347 40.504 C 83.658 39.742,85.659 35.821,85.900 35.500 C 86.004 35.362,86.312 34.819,86.586 34.292 L 87.083 33.334 100.430 33.334 L 113.777 33.333 114.013 33.792 C 114.143 34.044,114.287 34.287,114.333 34.333 C 114.379 34.379,114.578 34.717,114.775 35.083 C 114.972 35.450,115.279 36.012,115.457 36.333 C 115.870 37.079,117.813 40.647,118.428 41.792 L 118.899 42.667 124.455 42.667 C 130.953 42.667,130.546 42.837,129.284 40.647 C 128.788 39.787,128.101 38.558,127.756 37.917 C 127.411 37.275,127.076 36.712,127.012 36.667 C 126.947 36.621,126.645 36.133,126.341 35.583 C 126.036 35.033,125.584 34.246,125.335 33.833 C 125.087 33.421,124.263 31.996,123.504 30.667 C 122.745 29.337,121.977 28.037,121.796 27.777 C 121.616 27.517,121.136 26.654,120.729 25.860 C 120.323 25.066,119.922 24.304,119.840 24.167 C 119.758 24.029,119.347 23.348,118.928 22.653 C 118.509 21.957,118.167 21.345,118.167 21.292 C 118.167 21.239,117.904 20.797,117.583 20.310 C 117.263 19.823,117.000 19.361,117.000 19.284 C 117.000 19.206,116.906 19.042,116.792 18.919 C 116.677 18.796,116.021 17.709,115.333 16.503 C 114.646 15.298,113.682 13.623,113.192 12.781 C 112.702 11.939,112.003 10.700,111.639 10.027 C 111.275 9.355,110.837 8.567,110.665 8.277 C 109.990 7.137,108.913 5.241,108.851 5.083 C 108.815 4.992,108.655 4.729,108.496 4.500 C 108.336 4.271,107.924 3.562,107.580 2.924 C 107.237 2.286,106.853 1.662,106.728 1.537 C 106.602 1.412,106.500 1.237,106.500 1.148 C 106.500 1.059,106.336 0.765,106.135 0.493 L 105.771 0.000 100.897 0.000 L 96.024 0.000 95.391 1.042 M130.581 0.208 C 130.722 0.778,130.883 1.167,130.979 1.167 C 131.037 1.167,131.190 1.410,131.318 1.708 C 131.446 2.006,131.764 2.573,132.025 2.967 C 132.286 3.361,132.500 3.714,132.500 3.751 C 132.500 3.788,132.735 4.216,133.023 4.701 C 133.509 5.519,133.785 5.999,134.359 7.019 C 134.483 7.238,134.628 7.454,134.683 7.500 C 134.737 7.546,134.887 7.784,135.016 8.030 C 135.145 8.276,135.749 9.326,136.360 10.363 C 138.604 14.180,139.230 15.266,139.609 16.000 C 139.822 16.412,140.180 17.050,140.406 17.417 C 140.632 17.783,140.920 18.271,141.047 18.500 C 141.175 18.729,141.432 19.179,141.618 19.500 C 141.805 19.821,142.390 20.833,142.920 21.750 C 143.449 22.667,144.532 24.504,145.326 25.833 C 147.868 30.089,149.084 32.228,149.042 32.366 C 149.019 32.440,149.087 32.500,149.194 32.500 C 149.301 32.500,149.341 32.548,149.283 32.606 C 149.224 32.665,149.343 32.946,149.546 33.231 C 149.750 33.517,149.918 33.787,149.921 33.833 C 149.923 33.879,150.044 34.104,150.188 34.333 C 150.332 34.563,150.668 35.120,150.934 35.573 C 151.199 36.025,151.642 36.778,151.917 37.246 C 152.192 37.714,153.007 39.127,153.729 40.385 L 155.042 42.673 158.468 42.628 L 161.894 42.583 162.384 41.750 C 162.654 41.292,163.180 40.354,163.552 39.667 C 163.924 38.979,164.669 37.667,165.207 36.750 C 165.746 35.833,166.408 34.633,166.678 34.083 C 166.949 33.533,167.232 32.971,167.307 32.833 C 167.382 32.696,167.578 32.321,167.741 32.000 C 168.030 31.433,170.821 26.418,171.218 25.751 C 171.327 25.568,171.537 25.230,171.684 25.001 C 171.831 24.771,172.388 23.758,172.921 22.750 C 173.455 21.742,174.066 20.637,174.279 20.295 C 174.492 19.953,174.667 19.641,174.667 19.602 C 174.667 19.562,174.957 19.017,175.313 18.390 C 175.668 17.763,176.334 16.537,176.793 15.667 C 177.252 14.796,178.321 12.846,179.169 11.333 C 180.017 9.821,180.876 8.283,181.078 7.917 C 181.281 7.550,181.976 6.313,182.624 5.167 C 183.272 4.021,184.178 2.390,184.637 1.542 L 185.473 0.000 180.422 0.000 L 175.372 0.000 175.065 0.458 C 174.896 0.710,174.635 1.142,174.485 1.417 C 173.764 2.738,173.007 4.150,171.627 6.750 C 170.799 8.308,169.869 10.019,169.561 10.551 C 169.252 11.083,169.000 11.555,169.000 11.601 C 169.000 11.647,168.702 12.179,168.338 12.783 C 167.974 13.386,167.716 13.945,167.764 14.023 C 167.813 14.102,167.761 14.167,167.649 14.167 C 167.536 14.167,167.493 14.216,167.553 14.275 C 167.613 14.335,167.448 14.767,167.186 15.234 C 166.925 15.701,166.436 16.592,166.099 17.213 C 165.351 18.597,164.898 19.406,164.602 19.886 C 164.478 20.086,164.020 20.925,163.582 21.750 C 161.714 25.277,160.438 27.638,159.979 28.417 C 159.709 28.875,159.400 29.456,159.291 29.708 C 159.019 30.340,158.952 30.301,158.427 29.208 C 158.174 28.681,157.684 27.762,157.337 27.167 C 156.239 25.277,154.568 22.297,153.835 20.917 C 153.445 20.183,153.035 19.471,152.922 19.333 C 152.559 18.887,149.000 12.549,148.814 12.017 C 148.715 11.732,148.554 11.500,148.456 11.500 C 148.358 11.500,148.326 11.452,148.384 11.394 C 148.442 11.335,148.343 11.081,148.163 10.828 C 147.983 10.575,147.779 10.229,147.709 10.059 C 147.640 9.889,147.277 9.225,146.902 8.583 C 146.340 7.621,143.603 2.813,142.918 1.584 C 142.816 1.400,142.560 0.969,142.350 0.625 L 141.967 0.000 136.248 0.000 C 131.757 0.000,130.541 0.045,130.581 0.208 M102.584 12.292 C 103.580 14.285,104.520 16.104,104.672 16.333 C 104.824 16.563,105.421 17.650,105.997 18.750 C 106.574 19.850,107.598 21.769,108.273 23.015 C 108.948 24.261,109.500 25.330,109.500 25.390 C 109.500 25.451,105.481 25.500,100.569 25.500 C 95.658 25.500,91.664 25.444,91.695 25.375 C 91.726 25.306,91.860 24.969,91.993 24.625 C 92.125 24.281,92.294 24.000,92.367 24.000 C 92.440 24.000,92.500 23.850,92.500 23.667 C 92.500 23.483,92.570 23.333,92.655 23.333 C 92.741 23.333,92.862 23.165,92.925 22.958 C 93.023 22.634,94.556 19.698,95.590 17.856 C 96.619 16.021,97.493 14.425,98.163 13.158 C 99.761 10.135,100.583 8.667,100.676 8.667 C 100.729 8.667,101.588 10.298,102.584 12.292 M196.577 10.542 C 196.533 10.656,196.517 17.912,196.540 26.667 L 196.583 42.583 201.583 42.583 L 206.583 42.583 206.626 32.443 L 206.669 22.302 205.460 20.836 C 204.794 20.029,204.025 19.089,203.750 18.746 C 201.662 16.142,196.817 10.333,196.734 10.333 C 196.691 10.333,196.620 10.427,196.577 10.542 " stroke="none" fill="#04bcbc" fill-rule="evenodd"></path><path id="path1" d="M196.500 2.760 L 196.500 5.519 198.125 7.445 C 200.165 9.862,204.492 15.131,205.546 16.481 C 205.984 17.041,206.416 17.500,206.505 17.500 C 206.608 17.500,206.667 14.305,206.667 8.750 L 206.667 0.000 201.583 0.000 L 196.500 0.000 196.500 2.760 M218.844 1.125 C 219.422 1.744,220.686 3.108,221.655 4.157 C 222.624 5.206,224.467 7.157,225.750 8.493 C 227.033 9.828,229.658 12.597,231.583 14.646 C 233.508 16.695,236.189 19.544,237.541 20.977 L 239.998 23.583 239.999 33.125 L 240.000 42.667 245.083 42.667 L 250.167 42.667 250.167 33.066 L 250.167 23.466 251.192 22.275 C 251.755 21.619,253.850 19.396,255.847 17.333 C 257.843 15.271,259.753 13.246,260.090 12.833 C 260.427 12.421,262.337 10.396,264.333 8.333 C 266.329 6.271,268.732 3.721,269.673 2.667 C 270.614 1.613,271.536 0.581,271.721 0.375 L 272.058 0.000 266.124 0.000 L 260.191 0.000 256.058 4.542 C 253.785 7.040,250.544 10.602,248.855 12.458 C 247.165 14.315,245.735 15.833,245.676 15.833 C 245.565 15.833,242.595 12.570,241.417 11.153 C 241.050 10.712,239.025 8.453,236.917 6.132 C 234.808 3.811,232.713 1.482,232.260 0.956 L 231.436 0.000 224.616 0.000 L 217.795 0.000 218.844 1.125 M287.644 0.078 C 287.599 0.123,287.273 0.198,286.921 0.243 C 283.771 0.646,281.973 2.461,281.219 6.000 C 280.759 8.158,280.756 34.339,281.216 36.471 C 281.991 40.062,283.520 41.535,287.250 42.283 C 289.456 42.725,325.174 42.745,327.167 42.305 C 331.064 41.445,332.607 39.912,333.243 36.265 C 333.672 33.802,333.619 8.013,333.180 5.885 C 332.538 2.776,330.940 0.941,328.417 0.413 C 328.142 0.356,327.729 0.262,327.500 0.204 C 327.009 0.080,287.767 -0.044,287.644 0.078 M353.833 21.070 C 353.833 32.658,353.879 42.258,353.934 42.403 C 354.026 42.641,356.031 42.667,374.934 42.667 L 395.833 42.667 395.833 38.500 L 395.833 34.333 380.000 34.333 L 364.167 34.333 364.167 17.167 L 364.167 0.000 359.000 0.000 L 353.833 0.000 353.833 21.070 M323.333 21.083 L 323.333 34.333 307.167 34.333 L 291.000 34.333 291.000 21.083 L 291.000 7.833 307.167 7.833 L 323.333 7.833 323.333 21.083 M4.667 56.167 C 4.246 56.587,4.159 62.340,4.565 62.875 C 4.764 63.137,5.154 63.167,8.388 63.167 C 12.536 63.167,12.333 63.251,12.333 61.519 L 12.333 60.516 11.708 60.342 C 10.578 60.028,10.500 60.071,10.500 61.000 L 10.500 61.833 8.333 61.833 L 6.167 61.833 6.167 59.583 L 6.167 57.333 8.333 57.333 L 10.500 57.333 10.500 58.000 C 10.500 58.729,10.653 58.794,11.813 58.563 C 12.325 58.460,12.333 58.442,12.333 57.479 C 12.333 55.844,12.308 55.833,8.333 55.833 C 5.222 55.833,4.978 55.856,4.667 56.167 M15.833 56.167 C 15.453 56.547,15.318 62.181,15.673 62.844 C 15.932 63.328,23.787 63.345,24.224 62.862 C 24.460 62.602,24.500 62.113,24.500 59.529 C 24.500 55.484,24.925 55.833,20.000 55.833 C 16.389 55.833,16.147 55.853,15.833 56.167 M27.833 59.500 L 27.833 63.167 28.579 63.167 L 29.324 63.167 29.370 60.895 L 29.417 58.622 32.141 60.895 C 34.825 63.134,34.876 63.167,35.682 63.167 L 36.500 63.167 36.500 59.500 L 36.500 55.833 35.671 55.833 L 34.842 55.833 34.796 58.168 L 34.750 60.502 31.923 58.168 C 29.388 56.074,29.031 55.833,28.465 55.833 L 27.833 55.833 27.833 59.500 M40.362 56.219 C 40.048 56.554,40.000 56.796,40.000 58.052 C 40.000 60.195,39.953 60.167,43.500 60.167 L 46.333 60.167 46.333 61.000 L 46.333 61.833 43.833 61.833 L 41.333 61.833 41.333 61.312 C 41.333 60.794,41.329 60.791,40.641 60.901 C 39.711 61.050,39.667 61.091,39.667 61.806 C 39.667 63.147,39.725 63.167,43.734 63.167 C 48.062 63.167,47.833 63.291,47.833 60.945 C 47.833 58.620,47.903 58.667,44.417 58.667 L 41.667 58.667 41.667 58.000 L 41.667 57.333 43.917 57.333 L 46.167 57.333 46.167 57.769 C 46.167 58.187,46.950 58.257,47.540 57.892 C 47.838 57.708,47.662 56.553,47.281 56.196 C 46.665 55.618,40.909 55.637,40.362 56.219 M49.333 56.583 L 49.333 57.333 51.000 57.333 L 52.667 57.333 52.667 60.250 L 52.667 63.167 53.583 63.167 L 54.500 63.167 54.500 60.250 L 54.500 57.333 56.083 57.333 L 57.667 57.333 57.667 56.583 L 57.667 55.833 53.500 55.833 L 49.333 55.833 49.333 56.583 M59.667 59.500 L 59.667 63.167 60.583 63.167 L 61.500 63.167 61.500 61.833 L 61.500 60.500 62.212 60.500 C 62.881 60.500,63.005 60.581,64.250 61.833 L 65.576 63.167 66.970 63.167 L 68.364 63.167 66.814 61.875 L 65.264 60.583 66.007 60.531 C 67.275 60.441,67.500 60.081,67.500 58.144 C 67.500 55.742,67.670 55.833,63.219 55.833 L 59.667 55.833 59.667 59.500 M70.833 59.178 C 70.833 63.606,70.384 63.167,74.917 63.167 C 79.450 63.167,79.000 63.606,79.000 59.178 L 79.000 55.833 78.083 55.833 L 77.167 55.833 77.167 58.833 L 77.167 61.833 74.917 61.833 L 72.667 61.833 72.667 58.833 L 72.667 55.833 71.750 55.833 L 70.833 55.833 70.833 59.178 M82.833 56.167 C 82.453 56.547,82.318 62.181,82.673 62.844 C 82.835 63.148,83.056 63.167,86.397 63.167 C 90.579 63.167,90.500 63.198,90.500 61.536 L 90.500 60.516 89.875 60.342 C 88.745 60.028,88.667 60.071,88.667 61.000 L 88.667 61.833 86.417 61.833 L 84.167 61.833 84.167 59.583 L 84.167 57.333 86.417 57.333 L 88.667 57.333 88.667 58.000 C 88.667 58.729,88.820 58.794,89.979 58.563 C 90.492 58.460,90.500 58.442,90.500 57.479 C 90.500 55.844,90.474 55.833,86.500 55.833 C 83.389 55.833,83.144 55.856,82.833 56.167 M92.167 56.583 L 92.167 57.333 93.750 57.333 L 95.333 57.333 95.333 60.250 L 95.333 63.167 96.250 63.167 L 97.167 63.167 97.167 60.250 L 97.167 57.333 98.833 57.333 L 100.500 57.333 100.500 56.583 L 100.500 55.833 96.333 55.833 L 92.167 55.833 92.167 56.583 M102.444 55.944 C 102.383 56.006,102.333 57.656,102.333 59.611 L 102.333 63.167 103.250 63.167 L 104.167 63.167 104.167 59.500 L 104.167 55.833 103.361 55.833 C 102.918 55.833,102.506 55.883,102.444 55.944 M107.833 56.167 C 107.453 56.547,107.318 62.181,107.673 62.844 C 107.836 63.150,108.063 63.167,112.000 63.167 C 117.000 63.167,116.500 63.573,116.500 59.511 C 116.500 55.487,116.924 55.833,112.000 55.833 C 108.389 55.833,108.147 55.853,107.833 56.167 M120.000 59.500 L 120.000 63.167 120.745 63.167 L 121.491 63.167 121.537 60.895 L 121.583 58.622 124.307 60.895 C 126.992 63.134,127.043 63.167,127.849 63.167 L 128.667 63.167 128.667 59.500 L 128.667 55.833 127.838 55.833 L 127.009 55.833 126.963 58.168 L 126.917 60.502 124.090 58.168 C 121.555 56.074,121.198 55.833,120.632 55.833 L 120.000 55.833 120.000 59.500 M147.333 59.500 L 147.333 63.167 151.083 63.167 L 154.833 63.167 154.833 62.500 L 154.833 61.833 151.917 61.833 L 149.000 61.833 149.000 61.000 L 149.000 60.167 150.667 60.167 L 152.333 60.167 152.333 59.417 L 152.333 58.667 150.667 58.667 L 149.000 58.667 149.000 58.000 L 149.000 57.333 151.917 57.333 L 154.833 57.333 154.833 56.583 L 154.833 55.833 151.083 55.833 L 147.333 55.833 147.333 59.500 M157.833 59.500 L 157.833 63.167 158.579 63.167 L 159.324 63.167 159.370 60.895 L 159.417 58.622 162.141 60.895 C 164.825 63.134,164.876 63.167,165.682 63.167 L 166.500 63.167 166.500 59.500 L 166.500 55.833 165.671 55.833 L 164.842 55.833 164.796 58.168 L 164.750 60.502 161.923 58.168 C 159.388 56.074,159.031 55.833,158.465 55.833 L 157.833 55.833 157.833 59.500 M170.000 56.167 C 169.511 56.656,169.486 62.452,169.971 62.891 C 170.237 63.131,170.778 63.167,174.132 63.167 C 178.688 63.167,178.333 63.370,178.333 60.761 L 178.333 59.000 176.083 59.000 L 173.833 59.000 173.833 59.750 L 173.833 60.500 175.250 60.500 L 176.667 60.500 176.667 61.167 L 176.667 61.833 174.083 61.833 L 171.500 61.833 171.500 59.583 L 171.500 57.333 174.083 57.333 L 176.667 57.333 176.667 57.772 C 176.667 58.186,176.702 58.204,177.292 58.107 C 177.635 58.050,178.010 58.003,178.125 58.002 C 178.518 57.998,178.381 56.603,177.948 56.196 C 177.373 55.656,170.536 55.631,170.000 56.167 M181.667 59.500 L 181.667 63.167 182.583 63.167 L 183.500 63.167 183.500 59.500 L 183.500 55.833 182.583 55.833 L 181.667 55.833 181.667 59.500 M187.000 59.500 L 187.000 63.167 187.829 63.167 L 188.657 63.167 188.704 60.895 L 188.750 58.622 191.474 60.895 C 194.066 63.057,194.233 63.167,194.932 63.167 L 195.667 63.167 195.667 59.500 L 195.667 55.833 194.921 55.833 L 194.176 55.833 194.130 58.168 L 194.083 60.502 191.257 58.168 C 188.594 55.968,188.388 55.833,187.715 55.833 L 187.000 55.833 187.000 59.500 M199.000 59.500 L 199.000 63.167 202.750 63.167 L 206.500 63.167 206.500 62.500 L 206.500 61.833 203.667 61.833 L 200.833 61.833 200.833 61.000 L 200.833 60.167 202.500 60.167 L 204.167 60.167 204.167 59.417 L 204.167 58.667 202.500 58.667 L 200.833 58.667 200.833 58.000 L 200.833 57.333 203.667 57.333 L 206.500 57.333 206.500 56.583 L 206.500 55.833 202.750 55.833 L 199.000 55.833 199.000 59.500 M209.500 59.500 L 209.500 63.167 213.250 63.167 L 217.000 63.167 217.000 62.500 L 217.000 61.833 214.167 61.833 L 211.333 61.833 211.333 61.000 L 211.333 60.167 212.917 60.167 L 214.500 60.167 214.500 59.417 L 214.500 58.667 212.917 58.667 L 211.333 58.667 211.333 58.000 L 211.333 57.333 214.167 57.333 L 217.000 57.333 217.000 56.583 L 217.000 55.833 213.250 55.833 L 209.500 55.833 209.500 59.500 M220.000 59.500 L 220.000 63.167 220.917 63.167 L 221.833 63.167 221.833 61.833 L 221.833 60.500 222.481 60.500 C 223.072 60.500,223.244 60.618,224.427 61.833 L 225.724 63.167 227.211 63.167 L 228.697 63.167 227.147 61.875 L 225.597 60.583 226.340 60.531 C 227.608 60.441,227.833 60.081,227.833 58.144 C 227.833 55.742,228.003 55.833,223.552 55.833 L 220.000 55.833 220.000 59.500 M231.167 59.500 L 231.167 63.167 232.000 63.167 L 232.833 63.167 232.833 59.500 L 232.833 55.833 232.000 55.833 L 231.167 55.833 231.167 59.500 M236.500 59.500 L 236.500 63.167 237.329 63.167 L 238.157 63.167 238.204 60.891 L 238.250 58.615 239.917 60.008 C 240.833 60.774,242.027 61.798,242.570 62.283 C 243.473 63.092,243.625 63.167,244.362 63.167 L 245.167 63.167 245.167 59.500 L 245.167 55.833 244.333 55.833 L 243.500 55.833 243.500 58.178 L 243.500 60.523 243.042 60.194 C 242.790 60.014,242.321 59.603,242.000 59.282 C 240.159 57.438,237.929 55.833,237.210 55.833 L 236.500 55.833 236.500 59.500 M248.667 56.167 C 248.287 56.547,248.151 62.181,248.506 62.844 C 248.669 63.149,248.893 63.167,252.563 63.167 C 257.309 63.167,257.000 63.333,257.000 60.779 L 257.000 59.000 254.667 59.000 L 252.333 59.000 252.333 59.750 L 252.333 60.500 253.750 60.500 L 255.167 60.500 255.167 61.167 L 255.167 61.833 252.667 61.833 L 250.167 61.833 250.167 59.583 L 250.167 57.333 252.667 57.333 L 255.167 57.333 255.167 57.750 C 255.167 58.203,255.302 58.237,256.375 58.060 C 257.167 57.929,257.306 56.846,256.614 56.196 C 256.039 55.656,249.203 55.631,248.667 56.167 M276.415 59.349 C 275.316 61.290,274.390 62.947,274.358 63.031 C 274.139 63.604,276.431 63.056,276.750 62.459 L 277.083 61.834 279.203 61.834 L 281.323 61.833 281.703 62.499 L 282.083 63.164 283.208 63.165 C 283.827 63.166,284.327 63.110,284.319 63.042 C 284.311 62.973,283.393 61.342,282.277 59.417 L 280.250 55.917 279.331 55.868 L 278.413 55.819 276.415 59.349 M286.500 59.500 L 286.500 63.167 287.417 63.167 L 288.333 63.167 288.333 61.833 L 288.333 60.500 288.962 60.500 C 289.527 60.500,289.727 60.636,290.917 61.833 L 292.242 63.167 293.720 63.167 L 295.197 63.167 293.647 61.875 L 292.097 60.583 292.840 60.531 C 294.108 60.441,294.333 60.081,294.333 58.144 C 294.333 55.742,294.503 55.833,290.052 55.833 L 286.500 55.833 286.500 59.500 M297.833 56.167 C 297.453 56.547,297.318 62.181,297.673 62.844 C 297.835 63.148,298.056 63.167,301.413 63.167 C 305.569 63.167,305.500 63.195,305.500 61.471 L 305.500 60.516 304.875 60.342 C 303.745 60.028,303.667 60.071,303.667 61.000 L 303.667 61.833 301.417 61.833 L 299.167 61.833 299.167 59.583 L 299.167 57.333 301.417 57.333 L 303.667 57.333 303.667 58.000 C 303.667 58.729,303.820 58.794,304.979 58.563 C 305.492 58.460,305.500 58.442,305.500 57.479 C 305.500 55.844,305.474 55.833,301.500 55.833 C 298.389 55.833,298.144 55.856,297.833 56.167 M308.500 59.500 L 308.500 63.167 309.417 63.167 L 310.333 63.167 310.333 61.667 L 310.333 60.167 312.917 60.167 L 315.500 60.167 315.500 61.667 L 315.500 63.167 316.333 63.167 L 317.167 63.167 317.167 59.500 L 317.167 55.833 316.333 55.833 L 315.500 55.833 315.500 57.250 L 315.500 58.667 312.917 58.667 L 310.333 58.667 310.333 57.250 L 310.333 55.833 309.417 55.833 L 308.500 55.833 308.500 59.500 M320.833 59.500 L 320.833 63.167 321.750 63.167 L 322.667 63.167 322.667 59.500 L 322.667 55.833 321.750 55.833 L 320.833 55.833 320.833 59.500 M324.667 56.583 L 324.667 57.333 326.250 57.333 L 327.833 57.333 327.833 60.250 L 327.833 63.167 328.750 63.167 L 329.667 63.167 329.667 60.250 L 329.667 57.333 331.333 57.333 L 333.000 57.333 333.000 56.583 L 333.000 55.833 328.833 55.833 L 324.667 55.833 324.667 56.583 M334.944 55.944 C 334.883 56.006,334.833 57.656,334.833 59.611 L 334.833 63.167 338.667 63.167 L 342.500 63.167 342.500 62.500 L 342.500 61.833 339.583 61.833 L 336.667 61.833 336.667 61.000 L 336.667 60.167 338.333 60.167 L 340.000 60.167 340.000 59.417 L 340.000 58.667 338.333 58.667 L 336.667 58.667 336.667 58.000 L 336.667 57.333 339.583 57.333 L 342.500 57.333 342.500 56.583 L 342.500 55.833 338.778 55.833 C 336.731 55.833,335.006 55.883,334.944 55.944 M345.362 56.219 C 345.019 56.585,345.000 56.756,345.000 59.515 C 345.000 63.505,344.622 63.167,349.083 63.167 C 353.235 63.167,353.167 63.195,353.167 61.471 L 353.167 60.516 352.542 60.342 C 351.411 60.028,351.333 60.071,351.333 61.000 L 351.333 61.833 349.083 61.833 L 346.833 61.833 346.833 59.583 L 346.833 57.333 349.083 57.333 L 351.333 57.333 351.333 58.000 C 351.333 58.729,351.487 58.794,352.646 58.563 C 353.362 58.419,353.434 56.919,352.758 56.242 C 352.134 55.619,345.944 55.600,345.362 56.219 M354.667 56.583 L 354.667 57.333 356.333 57.333 L 358.000 57.333 358.000 60.250 L 358.000 63.167 358.917 63.167 L 359.833 63.167 359.833 60.250 L 359.833 57.333 361.417 57.333 L 363.000 57.333 363.000 56.583 L 363.000 55.833 358.833 55.833 L 354.667 55.833 354.667 56.583 M365.000 59.224 C 365.000 63.574,364.565 63.167,369.216 63.167 C 373.594 63.167,373.167 63.599,373.167 59.178 L 373.167 55.833 372.333 55.833 L 371.500 55.833 371.500 58.833 L 371.500 61.833 369.167 61.833 L 366.833 61.833 366.833 58.833 L 366.833 55.833 365.917 55.833 L 365.000 55.833 365.000 59.224 M376.833 59.500 L 376.833 63.167 377.750 63.167 L 378.667 63.167 378.667 61.833 L 378.667 60.500 379.387 60.500 C 380.071 60.500,380.172 60.568,381.376 61.833 L 382.644 63.167 384.087 63.167 L 385.530 63.167 383.980 61.875 L 382.430 60.583 383.173 60.531 C 384.442 60.441,384.667 60.081,384.667 58.144 C 384.667 55.742,384.837 55.833,380.385 55.833 L 376.833 55.833 376.833 59.500 M388.000 59.500 L 388.000 63.167 391.750 63.167 L 395.500 63.167 395.500 62.500 L 395.500 61.833 392.667 61.833 L 389.833 61.833 389.833 61.000 L 389.833 60.167 391.417 60.167 L 393.000 60.167 393.000 59.417 L 393.000 58.667 391.417 58.667 L 389.833 58.667 389.833 58.000 L 389.833 57.333 392.667 57.333 L 395.500 57.333 395.500 56.583 L 395.500 55.833 391.750 55.833 L 388.000 55.833 388.000 59.500 M22.667 59.583 L 22.667 61.833 20.000 61.833 L 17.333 61.833 17.333 59.583 L 17.333 57.333 20.000 57.333 L 22.667 57.333 22.667 59.583 M65.467 57.533 C 65.577 57.643,65.667 57.928,65.667 58.167 C 65.667 58.907,65.412 59.000,63.383 59.000 L 61.500 59.000 61.500 58.167 L 61.500 57.333 63.383 57.333 C 64.626 57.333,65.335 57.401,65.467 57.533 M114.667 59.583 L 114.667 61.833 112.000 61.833 L 109.333 61.833 109.333 59.583 L 109.333 57.333 112.000 57.333 L 114.667 57.333 114.667 59.583 M225.678 57.506 C 225.884 57.616,226.000 57.855,226.000 58.167 C 226.000 58.866,225.613 59.000,223.594 59.000 L 221.833 59.000 221.833 58.167 L 221.833 57.333 223.594 57.333 C 224.563 57.333,225.500 57.411,225.678 57.506 M292.178 57.506 C 292.384 57.616,292.500 57.855,292.500 58.167 C 292.500 58.866,292.113 59.000,290.094 59.000 L 288.333 59.000 288.333 58.167 L 288.333 57.333 290.094 57.333 C 291.063 57.333,292.000 57.411,292.178 57.506 M382.511 57.506 C 382.717 57.616,382.833 57.855,382.833 58.167 C 382.833 58.866,382.447 59.000,380.428 59.000 L 378.667 59.000 378.667 58.167 L 378.667 57.333 380.428 57.333 C 381.396 57.333,382.334 57.411,382.511 57.506 M279.879 59.083 L 280.497 60.333 279.249 60.333 C 278.562 60.333,278.000 60.300,278.000 60.260 C 278.000 60.220,278.225 59.777,278.500 59.276 C 278.775 58.775,279.000 58.245,279.000 58.099 C 279.000 57.557,279.277 57.867,279.879 59.083 M136.167 59.500 L 136.167 60.333 137.833 60.333 L 139.500 60.333 139.500 59.500 L 139.500 58.667 137.833 58.667 L 136.167 58.667 136.167 59.500 M264.667 59.500 L 264.667 60.333 266.417 60.333 L 268.167 60.333 268.167 59.500 L 268.167 58.667 266.417 58.667 L 264.667 58.667 264.667 59.500 " stroke="none" fill="#242424" fill-rule="evenodd"></path><path id="path2" d="" stroke="none" fill="#1498c0" fill-rule="evenodd"></path><path id="path3" d="" stroke="none" fill="#144874" fill-rule="evenodd"></path><path id="path4" d="" stroke="none" fill="#144c24" fill-rule="evenodd"></path></g></svg>