<svg id="svg" version="1.1" xmlns="http://www.w3.org/2000/svg" xmlns:xlink="http://www.w3.org/1999/xlink" width="400" height="563.0434782608695" viewBox="0, 0, 400,563.0434782608695"><g id="svgg"><path id="path0" d="M182.323 70.292 C 182.473 70.901,182.563 73.245,182.524 75.500 C 182.474 78.334,182.592 79.600,182.906 79.600 C 183.230 79.600,183.223 79.737,182.880 80.080 C 182.330 80.630,182.231 82.000,182.740 82.000 C 182.928 82.000,183.063 82.881,183.040 83.959 C 183.018 85.036,182.887 85.849,182.750 85.766 C 182.528 85.631,182.586 87.017,182.947 90.500 C 183.010 91.105,182.925 91.600,182.757 91.600 C 182.590 91.600,182.378 91.105,182.287 90.500 C 182.195 89.895,182.093 92.895,182.060 97.167 C 182.027 101.438,182.111 104.823,182.246 104.687 C 182.381 104.552,182.462 102.272,182.425 99.621 C 182.386 96.760,182.515 94.800,182.743 94.800 C 182.980 94.800,183.128 99.290,183.130 106.500 C 183.132 120.461,183.066 119.200,183.800 119.200 C 184.130 119.200,184.400 119.470,184.400 119.800 C 184.400 120.130,184.130 120.400,183.800 120.400 C 182.780 120.400,182.901 322.805,183.921 323.729 C 184.776 324.502,187.496 324.515,187.925 323.747 C 188.129 323.384,189.345 323.208,191.934 323.166 C 194.917 323.119,195.608 322.998,195.438 322.553 C 195.267 322.108,195.910 322.000,198.733 322.000 C 200.691 322.000,202.429 321.811,202.668 321.572 C 202.904 321.336,204.756 321.096,206.784 321.038 C 209.047 320.973,210.582 320.753,210.758 320.467 C 210.941 320.172,212.462 319.982,214.923 319.948 C 217.910 319.907,218.800 319.769,218.800 319.347 C 218.800 318.846,220.587 318.666,225.660 318.656 C 226.041 318.655,226.234 318.432,226.117 318.127 C 225.959 317.715,226.693 317.600,229.477 317.600 C 231.437 317.600,233.211 317.433,233.420 317.230 C 233.629 317.026,235.450 316.801,237.466 316.730 C 239.616 316.654,241.104 316.435,241.066 316.200 C 241.027 315.966,242.452 315.752,244.500 315.684 C 246.537 315.617,248.000 315.398,248.000 315.161 C 248.000 314.936,248.168 314.856,248.372 314.983 C 248.577 315.109,248.858 315.030,248.996 314.807 C 249.136 314.580,250.833 314.400,252.824 314.400 C 254.791 314.400,256.400 314.250,256.400 314.067 C 256.400 313.681,256.452 313.673,260.315 313.477 C 261.919 313.396,263.440 313.120,263.695 312.865 C 263.951 312.609,264.664 312.400,265.280 312.400 C 266.009 312.400,266.400 312.190,266.400 311.800 C 266.400 311.457,266.760 311.200,267.243 311.200 C 267.828 311.200,268.015 311.384,267.855 311.800 C 267.502 312.722,269.091 312.551,269.593 311.613 C 269.919 311.005,270.218 310.900,270.907 311.155 C 272.010 311.563,272.800 311.317,272.800 310.567 C 272.800 310.255,272.980 310.000,273.200 310.000 C 273.420 310.000,273.600 310.270,273.600 310.600 C 273.600 310.933,273.956 311.200,274.400 311.200 C 274.844 311.200,275.200 310.933,275.200 310.600 C 275.200 310.227,275.578 310.000,276.200 310.000 C 276.822 310.000,277.200 310.227,277.200 310.600 C 277.200 310.930,277.451 311.200,277.757 311.200 C 278.064 311.200,278.418 310.930,278.545 310.600 C 278.723 310.136,279.497 310.000,281.954 310.000 C 283.813 310.000,285.191 309.826,285.273 309.581 C 285.353 309.342,286.661 309.159,288.330 309.153 C 290.559 309.146,291.301 309.001,291.479 308.538 C 291.607 308.205,291.821 308.100,291.956 308.305 C 292.090 308.509,292.740 308.800,293.400 308.951 C 294.274 309.150,294.437 309.114,294.000 308.818 C 293.580 308.534,293.550 308.395,293.900 308.356 C 294.175 308.325,294.580 308.255,294.800 308.200 C 295.020 308.145,296.370 308.078,297.800 308.050 C 299.822 308.011,300.400 307.867,300.400 307.400 C 300.400 306.629,300.699 306.641,301.502 307.444 C 302.079 308.021,302.193 308.025,302.595 307.475 C 302.914 307.038,303.899 306.831,306.022 306.757 C 307.660 306.699,309.260 306.460,309.577 306.226 C 310.033 305.889,310.080 305.925,309.800 306.400 C 309.504 306.902,309.549 306.917,310.072 306.493 C 310.416 306.215,311.766 305.932,313.071 305.865 C 314.376 305.798,315.659 305.611,315.922 305.448 C 316.199 305.277,316.405 305.374,316.413 305.676 C 316.421 306.032,316.590 305.983,316.941 305.522 C 317.346 304.989,318.195 304.828,320.924 304.768 C 323.287 304.716,324.537 304.517,324.845 304.146 C 325.153 303.775,326.244 303.600,328.249 303.600 C 330.059 303.600,331.200 303.436,331.200 303.176 C 331.200 302.943,331.380 302.864,331.600 303.000 C 331.856 303.158,332.000 309.189,332.000 319.777 C 332.000 335.970,332.016 336.311,332.800 336.516 C 333.911 336.806,333.911 338.794,332.800 339.084 C 331.819 339.341,331.713 341.000,332.644 341.521 C 333.231 341.849,333.229 341.903,332.619 342.138 C 332.029 342.364,331.957 343.123,332.016 348.497 C 332.097 355.967,332.087 356.000,329.581 356.000 C 328.517 356.000,327.536 356.180,327.400 356.400 C 327.264 356.620,326.626 356.800,325.982 356.800 C 325.036 356.800,324.705 357.053,324.261 358.116 C 323.746 359.349,323.607 359.422,322.056 359.274 C 320.806 359.155,320.400 359.258,320.400 359.694 C 320.400 360.085,320.012 360.248,319.200 360.200 C 318.276 360.145,318.000 360.298,318.000 360.864 C 318.000 361.269,317.820 361.600,317.600 361.600 C 317.380 361.600,317.197 361.375,317.194 361.100 C 317.190 360.767,317.058 360.800,316.800 361.200 C 316.587 361.530,316.404 361.620,316.393 361.400 C 316.383 361.180,316.141 361.307,315.856 361.683 C 315.565 362.065,314.686 362.410,313.857 362.465 C 312.838 362.534,312.440 362.726,312.576 363.083 C 312.710 363.432,312.401 363.600,311.621 363.600 C 310.986 363.600,310.392 363.825,310.300 364.100 C 310.208 364.375,309.698 364.608,309.167 364.618 C 308.631 364.628,308.245 364.851,308.300 365.118 C 308.355 365.383,308.226 365.600,308.013 365.600 C 307.799 365.600,307.725 365.860,307.847 366.177 C 308.020 366.629,307.646 366.763,306.134 366.792 C 302.687 366.858,302.725 366.845,302.983 367.875 C 303.259 368.973,302.432 369.482,301.355 368.879 C 300.223 368.245,298.400 369.084,298.400 370.239 C 298.400 371.188,297.342 371.430,293.716 371.310 C 293.449 371.301,293.246 371.408,293.263 371.547 C 293.482 373.294,293.230 373.497,291.000 373.368 L 288.800 373.241 288.800 374.461 C 288.800 375.670,288.783 375.679,286.910 375.530 C 284.929 375.373,283.600 376.123,283.600 377.400 C 283.600 378.023,282.594 378.237,282.254 377.687 C 281.618 376.658,278.951 377.688,279.128 378.894 L 279.308 380.117 277.344 379.857 C 275.311 379.587,274.549 379.992,273.899 381.687 C 273.735 382.114,273.362 382.263,272.815 382.120 C 271.552 381.790,268.144 382.825,268.970 383.287 C 270.139 383.941,269.191 384.404,266.996 384.252 C 264.902 384.106,264.834 384.134,264.589 385.251 C 264.350 386.338,263.107 386.764,261.100 386.447 C 260.935 386.421,260.800 386.580,260.800 386.800 C 260.800 387.020,260.530 387.200,260.200 387.200 C 259.867 387.200,259.600 387.556,259.600 388.000 C 259.600 388.879,259.128 389.004,258.029 388.415 C 257.525 388.146,257.085 388.202,256.555 388.603 C 256.140 388.917,255.620 389.178,255.400 389.181 C 255.180 389.185,255.270 389.013,255.600 388.800 C 255.930 388.587,256.015 388.409,255.789 388.406 C 255.296 388.399,254.000 389.846,254.000 390.405 C 254.000 390.622,253.708 390.800,253.351 390.800 C 252.792 390.800,252.778 390.706,253.251 390.119 C 253.768 389.478,253.742 389.478,252.811 390.119 C 252.267 390.494,251.491 390.800,251.087 390.800 C 250.683 390.800,250.464 390.980,250.600 391.200 C 250.736 391.420,250.489 391.600,250.052 391.600 C 249.615 391.600,249.011 391.846,248.710 392.147 C 248.409 392.448,247.766 392.820,247.281 392.974 C 246.797 393.128,246.400 393.422,246.400 393.627 C 246.400 393.832,245.955 394.000,245.410 394.000 C 244.715 394.000,244.236 394.357,243.800 395.200 C 243.057 396.636,242.701 396.691,241.870 395.500 C 241.343 394.744,241.239 394.712,241.221 395.300 C 241.203 395.915,240.293 396.236,239.100 396.047 C 238.935 396.021,238.800 396.270,238.800 396.600 C 238.800 397.145,238.246 397.354,236.916 397.310 C 236.649 397.301,236.469 397.498,236.516 397.747 C 236.562 397.996,236.134 398.254,235.565 398.320 L 234.530 398.441 234.263 383.535 C 234.052 371.736,233.884 368.567,233.462 368.331 C 232.604 367.851,232.614 364.094,233.473 363.929 C 234.139 363.801,234.674 358.454,234.030 358.370 C 233.903 358.354,233.384 358.263,232.876 358.169 C 232.323 358.067,232.051 358.159,232.199 358.399 C 232.336 358.619,232.167 358.800,231.824 358.800 C 231.481 358.800,231.200 358.620,231.200 358.400 C 231.200 358.180,231.026 358.000,230.813 358.000 C 230.599 358.000,230.529 358.270,230.655 358.600 C 230.841 359.085,230.494 359.200,228.843 359.200 C 227.657 359.200,226.800 359.380,226.800 359.629 C 226.800 360.103,225.812 361.200,225.386 361.200 C 225.237 361.200,225.203 360.968,225.312 360.685 C 225.570 360.013,223.404 360.036,222.727 360.713 C 222.459 360.981,221.615 361.200,220.851 361.200 C 220.088 361.200,219.179 361.454,218.831 361.764 C 218.484 362.075,217.591 362.423,216.846 362.538 C 216.102 362.653,215.301 362.939,215.066 363.174 C 214.832 363.408,213.686 363.600,212.520 363.600 C 211.354 363.600,210.438 363.735,210.485 363.900 C 210.532 364.065,210.336 364.622,210.050 365.138 L 209.531 366.077 208.731 365.218 C 208.099 364.540,207.812 364.458,207.365 364.829 C 206.932 365.188,206.800 365.187,206.800 364.825 C 206.800 364.565,206.617 364.466,206.393 364.604 C 206.170 364.742,206.091 365.023,206.217 365.228 C 206.344 365.432,205.819 365.600,205.052 365.600 C 204.285 365.600,203.398 365.859,203.081 366.176 C 202.764 366.493,201.627 366.808,200.553 366.876 C 199.479 366.944,198.630 367.180,198.667 367.400 C 198.703 367.620,197.983 367.789,197.067 367.775 C 195.393 367.749,194.000 368.496,194.000 369.419 C 194.000 370.300,192.834 370.411,192.386 369.574 C 191.925 368.713,189.710 368.691,189.900 369.549 C 189.960 369.817,189.428 370.000,188.587 370.000 C 187.701 370.000,187.089 370.223,186.945 370.600 C 186.788 371.007,186.150 371.200,184.957 371.200 L 183.200 371.200 183.200 402.000 C 183.200 430.658,183.247 432.800,183.876 432.800 C 184.505 432.800,184.504 432.836,183.864 433.304 C 183.311 433.708,183.162 434.506,183.113 437.326 C 183.079 439.262,182.895 440.941,182.705 441.059 C 182.515 441.176,182.402 440.449,182.454 439.444 C 182.506 438.438,182.425 437.492,182.274 437.341 C 182.123 437.190,182.000 438.391,182.000 440.010 C 182.000 442.683,182.054 442.882,182.587 442.176 C 183.291 441.246,183.321 441.383,182.808 443.172 C 182.533 444.132,182.552 444.701,182.871 445.086 C 183.211 445.496,183.209 445.751,182.863 446.097 C 182.296 446.664,182.248 447.341,182.799 447.001 C 183.058 446.841,183.073 447.083,182.842 447.691 C 182.438 448.753,182.449 448.287,182.306 469.658 L 182.200 485.516 183.400 485.365 C 184.060 485.281,184.800 484.940,185.044 484.607 C 185.288 484.273,186.059 484.000,186.757 484.000 C 187.515 484.000,188.118 483.759,188.255 483.400 C 188.391 483.048,188.991 482.800,189.709 482.800 C 190.383 482.800,190.828 482.695,190.700 482.567 C 190.307 482.173,191.949 480.800,192.813 480.800 C 193.259 480.800,193.729 480.530,193.855 480.200 C 193.982 479.870,194.516 479.600,195.043 479.600 C 195.627 479.600,196.000 479.366,196.000 479.000 C 196.000 478.567,196.444 478.400,197.600 478.400 C 198.480 478.400,199.200 478.220,199.200 478.000 C 199.200 477.780,199.571 477.600,200.024 477.600 C 200.477 477.600,200.745 477.435,200.620 477.232 C 200.495 477.030,201.069 476.644,201.896 476.374 C 202.723 476.105,203.490 475.775,203.600 475.642 C 204.130 475.001,206.828 473.925,207.378 474.136 C 207.767 474.285,208.000 474.154,208.000 473.787 C 208.000 473.279,208.472 473.101,209.464 473.236 C 209.609 473.256,209.888 472.986,210.084 472.636 C 210.280 472.286,210.782 472.000,211.200 472.000 C 211.618 472.000,212.111 471.731,212.295 471.403 C 212.478 471.074,213.104 470.766,213.686 470.718 C 214.267 470.670,214.655 470.488,214.548 470.315 C 214.440 470.142,214.794 470.000,215.334 470.000 C 215.873 470.000,216.418 469.730,216.545 469.400 C 216.679 469.051,217.277 468.800,217.975 468.800 C 218.877 468.800,219.118 468.651,218.945 468.200 C 218.777 467.763,218.992 467.600,219.734 467.600 C 220.294 467.600,220.869 467.413,221.010 467.184 C 221.152 466.955,222.152 466.381,223.234 465.909 C 224.315 465.436,225.200 464.904,225.200 464.725 C 225.200 464.546,225.740 464.400,226.400 464.400 C 227.200 464.400,227.600 464.200,227.600 463.800 C 227.600 463.431,227.975 463.200,228.576 463.200 C 229.113 463.200,229.664 463.020,229.800 462.800 C 229.936 462.580,230.402 462.400,230.836 462.400 C 231.270 462.400,231.729 462.130,231.855 461.800 C 231.986 461.460,232.582 461.200,233.230 461.200 C 234.083 461.200,234.316 461.047,234.145 460.600 C 233.970 460.146,234.217 460.000,235.157 460.000 C 235.995 460.000,236.400 459.805,236.400 459.400 C 236.400 459.027,236.778 458.800,237.400 458.800 C 237.950 458.800,238.400 458.620,238.400 458.400 C 238.400 458.180,238.738 458.000,239.151 458.000 C 239.564 458.000,240.126 457.730,240.400 457.400 C 240.674 457.070,241.326 456.800,241.849 456.800 C 242.428 456.800,242.800 456.565,242.800 456.200 C 242.800 455.832,243.174 455.600,243.767 455.600 C 244.298 455.600,244.793 455.422,244.867 455.203 C 244.940 454.985,245.495 454.766,246.100 454.716 C 246.705 454.666,247.200 454.417,247.200 454.163 C 247.200 453.908,247.752 453.590,248.427 453.455 C 249.108 453.318,249.542 453.030,249.403 452.805 C 249.260 452.574,249.572 452.400,250.127 452.400 C 250.663 452.400,251.326 452.130,251.600 451.800 C 251.874 451.470,252.391 451.194,252.749 451.187 C 253.107 451.180,253.732 450.923,254.139 450.615 C 254.545 450.307,255.130 450.152,255.439 450.270 C 255.777 450.400,256.000 450.230,256.000 449.843 C 256.000 449.463,256.333 449.200,256.813 449.200 C 257.259 449.200,257.729 448.930,257.855 448.600 C 257.987 448.258,258.583 448.000,259.243 448.000 C 259.879 448.000,260.400 447.823,260.400 447.608 C 260.400 447.392,260.850 447.102,261.400 446.964 C 261.950 446.826,262.400 446.572,262.400 446.400 C 262.400 446.228,262.850 445.974,263.400 445.836 C 263.950 445.698,264.400 445.408,264.400 445.192 C 264.400 444.977,264.828 444.800,265.351 444.800 C 265.874 444.800,266.526 444.530,266.800 444.200 C 267.074 443.870,267.525 443.600,267.803 443.600 C 268.081 443.600,268.811 443.339,269.426 443.020 C 270.040 442.702,270.691 442.532,270.871 442.644 C 271.052 442.756,271.200 442.567,271.200 442.224 C 271.200 441.863,271.543 441.600,272.013 441.600 C 272.459 441.600,272.929 441.330,273.055 441.000 C 273.182 440.670,273.706 440.400,274.219 440.400 C 274.733 440.400,275.264 440.220,275.400 440.000 C 275.536 439.780,276.002 439.600,276.436 439.600 C 276.870 439.600,277.329 439.330,277.455 439.000 C 277.582 438.670,278.032 438.400,278.455 438.400 C 278.879 438.400,279.329 438.130,279.455 437.800 C 279.582 437.470,280.012 437.200,280.410 437.200 C 281.129 437.200,283.611 436.048,284.004 435.532 C 284.116 435.384,284.701 435.140,285.304 434.988 C 285.907 434.837,286.400 434.553,286.400 434.357 C 286.400 434.160,286.850 434.000,287.400 434.000 C 288.022 434.000,288.400 433.773,288.400 433.400 C 288.400 433.027,288.778 432.800,289.400 432.800 C 289.950 432.800,290.400 432.620,290.400 432.400 C 290.400 432.180,290.738 432.000,291.151 432.000 C 291.564 432.000,292.126 431.730,292.400 431.400 C 292.674 431.070,293.214 430.800,293.600 430.800 C 293.986 430.800,294.526 430.530,294.800 430.200 C 295.074 429.870,295.625 429.600,296.025 429.600 C 296.425 429.600,296.864 429.420,297.000 429.200 C 297.136 428.980,297.602 428.800,298.036 428.800 C 298.470 428.800,298.929 428.530,299.055 428.200 C 299.187 427.858,299.783 427.600,300.443 427.600 C 301.205 427.600,301.600 427.395,301.600 427.000 C 301.600 426.486,302.597 426.178,303.700 426.353 C 303.865 426.379,303.955 426.179,303.900 425.909 C 303.845 425.640,304.234 425.353,304.765 425.273 C 305.296 425.193,305.985 424.872,306.297 424.560 C 306.609 424.248,307.031 424.096,307.235 424.222 C 307.439 424.348,307.714 424.169,307.846 423.825 C 307.978 423.481,308.497 423.200,309.000 423.200 C 309.503 423.200,310.018 422.930,310.145 422.600 C 310.271 422.270,310.719 422.000,311.138 422.000 C 311.558 422.000,312.133 421.722,312.415 421.382 C 312.697 421.042,313.154 420.850,313.431 420.957 C 313.708 421.063,314.033 420.891,314.154 420.575 C 314.279 420.250,314.902 420.000,315.587 420.000 C 316.399 420.000,316.800 419.801,316.800 419.400 C 316.800 419.064,317.157 418.800,317.613 418.800 C 318.059 418.800,318.529 418.530,318.655 418.200 C 318.782 417.870,319.239 417.600,319.671 417.600 C 320.104 417.600,320.727 417.330,321.057 417.000 C 321.387 416.670,322.004 416.400,322.429 416.400 C 322.853 416.400,323.200 416.220,323.200 416.000 C 323.200 415.780,323.740 415.600,324.400 415.600 C 325.200 415.600,325.600 415.400,325.600 415.000 C 325.600 414.627,325.978 414.400,326.600 414.400 C 327.150 414.400,327.600 414.220,327.600 414.000 C 327.600 413.780,327.857 413.600,328.171 413.600 C 328.486 413.600,328.989 413.375,329.290 413.100 C 330.280 412.194,332.448 411.200,333.432 411.200 C 333.984 411.200,334.357 410.989,334.300 410.709 C 334.245 410.440,334.650 410.152,335.200 410.069 C 335.750 409.987,336.308 409.746,336.440 409.533 C 336.572 409.321,336.991 409.101,337.372 409.045 C 337.753 408.989,338.195 408.732,338.354 408.474 C 338.514 408.215,339.117 407.965,339.694 407.917 C 340.270 407.869,340.654 407.687,340.546 407.512 C 340.438 407.337,340.676 407.092,341.075 406.968 C 341.474 406.843,342.113 406.575,342.495 406.371 C 342.877 406.167,343.487 406.000,343.850 406.000 C 344.214 406.000,344.715 405.722,344.964 405.382 C 345.212 405.042,345.817 404.734,346.308 404.697 C 346.798 404.660,347.200 404.398,347.200 404.115 C 347.200 403.809,347.688 403.600,348.400 403.600 C 349.117 403.600,349.560 403.408,349.500 403.124 C 349.445 402.862,349.760 402.572,350.200 402.479 C 350.640 402.387,351.148 402.053,351.330 401.738 C 351.529 401.392,351.965 401.262,352.430 401.409 C 352.853 401.544,353.200 401.479,353.200 401.266 C 353.200 400.787,355.436 399.969,355.787 400.320 C 355.927 400.461,355.924 400.266,355.778 399.888 C 355.570 399.345,355.736 399.200,356.570 399.200 C 357.150 399.200,357.729 398.930,357.855 398.600 C 357.982 398.270,358.516 398.000,359.043 398.000 C 359.569 398.000,360.000 397.820,360.000 397.600 C 360.000 397.380,360.431 397.200,360.957 397.200 C 361.484 397.200,362.018 396.930,362.145 396.600 C 362.271 396.270,362.831 396.000,363.387 396.000 C 364.021 396.000,364.400 395.775,364.400 395.400 C 364.400 395.000,364.800 394.800,365.600 394.800 C 366.436 394.800,366.800 394.605,366.800 394.157 C 366.800 393.770,367.023 393.600,367.361 393.730 C 367.670 393.848,368.255 393.693,368.661 393.385 C 369.068 393.077,369.721 392.820,370.113 392.813 C 370.504 392.806,370.929 392.530,371.055 392.200 C 371.182 391.870,371.716 391.600,372.243 391.600 C 372.827 391.600,373.200 391.366,373.200 391.000 C 373.200 390.670,373.500 390.400,373.866 390.400 C 374.764 390.400,377.600 389.127,377.600 388.723 C 377.600 388.545,378.031 388.400,378.557 388.400 C 379.084 388.400,379.618 388.130,379.745 387.800 C 379.871 387.470,380.431 387.200,380.987 387.200 C 381.621 387.200,382.000 386.975,382.000 386.600 C 382.000 386.270,382.270 386.000,382.600 386.000 C 383.679 386.000,383.481 363.199,382.400 362.916 C 381.872 362.778,381.600 362.370,381.600 361.716 C 381.600 361.062,381.872 360.654,382.400 360.516 C 383.151 360.319,383.846 261.381,383.231 242.045 C 383.136 239.040,383.224 237.968,383.550 238.169 C 383.797 238.322,384.000 238.257,384.000 238.024 C 384.000 237.791,383.865 237.600,383.700 237.600 C 383.535 237.600,383.394 235.903,383.387 233.830 C 383.379 231.756,383.485 230.129,383.621 230.213 C 383.757 230.297,383.758 229.608,383.624 228.683 C 383.490 227.757,383.506 226.190,383.660 225.200 C 384.223 221.590,384.060 217.309,383.350 217.036 C 382.823 216.834,382.755 216.465,382.991 215.093 C 383.151 214.162,383.324 212.230,383.375 210.800 C 383.426 209.370,383.593 207.923,383.745 207.584 C 383.897 207.245,383.972 205.310,383.911 203.284 C 383.850 201.258,383.956 199.600,384.147 199.600 C 384.339 199.600,384.428 194.404,384.347 188.001 C 384.234 179.067,384.085 176.401,383.700 176.401 C 383.425 176.400,383.200 176.220,383.200 176.000 C 383.200 175.780,383.197 175.465,383.194 175.300 C 383.191 175.135,382.606 174.797,381.894 174.548 C 381.182 174.299,380.633 173.932,380.672 173.731 C 380.712 173.530,380.355 173.337,379.878 173.301 C 379.402 173.265,378.949 173.048,378.873 172.818 C 378.796 172.588,378.208 172.400,377.567 172.400 C 376.796 172.400,376.400 172.196,376.400 171.800 C 376.400 171.470,376.050 171.200,375.623 171.200 C 374.703 171.200,372.000 169.678,372.000 169.160 C 372.000 168.962,371.651 168.800,371.224 168.800 C 370.797 168.800,370.328 168.608,370.183 168.372 C 370.038 168.137,369.172 167.997,368.259 168.060 C 366.625 168.173,366.601 168.155,366.637 166.881 C 366.667 165.825,366.546 165.627,365.979 165.807 C 365.597 165.928,365.008 165.751,364.671 165.414 C 364.333 165.076,363.684 164.800,363.229 164.800 C 362.773 164.800,362.400 164.638,362.400 164.439 C 362.400 164.241,361.860 163.890,361.200 163.660 C 360.540 163.430,360.000 163.052,360.000 162.821 C 360.000 162.589,359.565 162.400,359.033 162.400 C 358.502 162.400,357.993 162.180,357.903 161.910 C 357.799 161.597,357.117 161.465,356.014 161.545 C 354.409 161.661,354.305 161.608,354.518 160.790 C 354.702 160.087,354.514 159.823,353.574 159.468 C 352.928 159.224,352.400 158.873,352.400 158.689 C 352.400 158.504,352.247 158.447,352.061 158.563 C 351.874 158.678,351.341 158.419,350.877 157.986 C 350.413 157.554,349.743 157.200,349.388 157.200 C 349.033 157.200,348.473 156.930,348.143 156.600 C 347.813 156.270,347.215 156.000,346.814 156.000 C 346.413 156.000,345.977 155.718,345.845 155.373 C 345.667 154.909,345.162 154.779,343.902 154.873 C 342.395 154.985,342.185 154.897,342.072 154.099 C 341.954 153.267,340.416 151.977,340.387 152.686 C 340.380 152.859,340.155 152.719,339.887 152.375 C 339.619 152.032,339.074 151.628,338.675 151.478 C 338.276 151.328,338.033 151.069,338.136 150.903 C 338.239 150.736,337.867 150.573,337.309 150.539 C 336.752 150.506,336.142 150.236,335.954 149.939 C 335.766 149.643,335.609 149.532,335.606 149.693 C 335.603 149.854,335.001 149.650,334.269 149.239 C 333.045 148.551,332.901 148.544,332.480 149.146 C 332.083 149.714,332.056 149.694,332.275 149.000 C 332.414 148.560,332.402 148.312,332.249 148.448 C 332.096 148.584,331.980 171.849,331.992 200.148 L 332.014 251.600 324.020 251.600 C 317.078 251.600,316.055 251.679,316.255 252.200 C 316.424 252.639,316.205 252.800,315.443 252.800 C 314.783 252.800,314.400 252.580,314.400 252.200 C 314.400 251.682,312.997 251.600,304.174 251.600 C 297.889 251.600,293.649 251.440,293.174 251.186 C 292.621 250.890,292.400 250.901,292.400 251.223 C 292.400 251.522,291.824 251.601,290.700 251.458 C 288.444 251.170,288.450 251.173,289.600 250.768 C 290.503 250.449,290.483 250.436,289.400 250.628 C 288.740 250.745,287.744 250.887,287.187 250.943 C 286.630 250.999,285.970 251.171,285.720 251.326 C 285.469 251.481,284.983 251.326,284.640 250.983 C 284.160 250.503,283.712 250.441,282.708 250.714 C 281.988 250.909,280.860 250.920,280.200 250.738 C 278.856 250.367,275.298 250.717,274.967 251.253 C 274.639 251.784,272.800 251.666,272.583 251.100 C 272.388 250.591,268.212 250.494,243.518 250.426 L 234.035 250.400 234.009 225.711 C 233.986 204.359,233.903 200.977,233.391 200.691 C 232.891 200.411,232.800 198.611,232.800 189.013 C 232.800 177.902,232.917 176.178,233.642 176.626 C 233.846 176.752,234.000 174.422,234.000 171.200 C 234.000 167.829,233.850 165.645,233.629 165.782 C 233.425 165.908,233.134 165.622,232.983 165.147 C 232.597 163.931,233.218 142.836,233.647 142.571 C 234.152 142.259,234.105 119.200,233.600 119.200 C 233.353 119.200,233.200 117.125,233.200 113.776 C 233.200 110.460,233.347 108.444,233.579 108.587 C 233.810 108.730,234.006 106.504,234.079 102.911 L 234.200 97.000 232.500 95.242 C 231.565 94.275,230.800 93.361,230.800 93.212 C 230.800 93.062,229.810 92.974,228.600 93.017 C 226.427 93.093,226.400 93.080,226.400 91.947 C 226.400 90.990,226.234 90.800,225.400 90.800 C 224.778 90.800,224.400 90.573,224.400 90.200 C 224.400 89.805,224.005 89.600,223.243 89.600 C 222.561 89.600,221.987 89.342,221.845 88.972 C 221.685 88.555,221.335 88.430,220.802 88.599 C 220.232 88.780,220.000 88.672,220.000 88.227 C 220.000 87.882,219.730 87.600,219.400 87.600 C 219.070 87.600,218.797 87.285,218.794 86.900 C 218.789 86.355,218.712 86.320,218.444 86.743 C 218.189 87.146,218.025 87.164,217.810 86.816 C 217.648 86.554,216.872 86.399,216.060 86.466 C 214.730 86.576,214.601 86.496,214.610 85.573 C 214.617 84.793,214.401 84.541,213.674 84.481 C 212.465 84.381,211.925 84.045,212.217 83.572 C 212.344 83.368,211.897 83.200,211.224 83.200 C 210.551 83.200,210.000 83.032,210.000 82.827 C 210.000 82.622,209.609 82.330,209.131 82.178 C 208.653 82.026,208.068 81.736,207.831 81.532 C 207.594 81.329,206.770 80.826,206.000 80.416 C 205.230 80.006,204.645 79.474,204.700 79.235 C 204.841 78.622,204.564 78.693,203.786 79.471 C 202.965 80.292,201.866 79.763,201.671 78.453 C 201.601 77.977,201.396 77.679,201.217 77.790 C 201.037 77.901,200.668 77.723,200.396 77.396 C 200.084 77.019,199.194 76.800,197.978 76.800 C 196.176 76.800,196.045 76.730,195.927 75.700 C 195.836 74.912,195.544 74.564,194.900 74.472 C 194.405 74.402,194.000 74.126,194.000 73.859 C 194.000 73.593,193.505 73.337,192.900 73.291 C 192.269 73.243,191.398 72.737,190.856 72.103 C 190.337 71.497,190.025 71.213,190.163 71.472 C 190.300 71.732,190.230 72.058,190.007 72.196 C 189.783 72.334,189.600 72.252,189.600 72.014 C 189.600 71.775,189.195 71.402,188.700 71.184 C 188.205 70.966,187.260 70.460,186.600 70.059 C 185.511 69.398,185.356 69.389,184.930 69.965 C 184.502 70.542,184.349 70.535,183.255 69.892 L 182.050 69.184 182.323 70.292 M251.867 106.267 C 251.534 106.600,251.510 221.700,251.843 222.567 C 252.039 223.078,252.764 223.200,255.594 223.200 C 258.188 223.200,259.229 223.353,259.589 223.786 C 260.190 224.511,262.798 224.472,263.081 223.734 C 263.358 223.010,264.659 223.056,264.945 223.800 C 265.137 224.300,266.281 224.400,271.811 224.400 C 276.696 224.400,278.372 224.521,278.164 224.858 C 277.965 225.181,278.195 225.238,278.940 225.051 C 279.523 224.904,280.000 224.923,280.000 225.092 C 280.000 225.262,282.475 225.425,285.500 225.455 C 294.867 225.550,297.600 225.684,297.600 226.048 C 297.600 226.638,314.279 226.492,314.505 225.900 C 314.938 224.768,314.821 138.400,314.387 138.400 C 314.148 138.400,314.064 138.220,314.200 138.000 C 314.336 137.780,314.257 137.600,314.024 137.600 C 313.791 137.600,313.600 137.870,313.600 138.200 C 313.600 138.530,313.246 138.800,312.814 138.800 C 311.963 138.800,311.198 137.706,311.487 136.900 C 311.657 136.428,310.882 136.210,309.646 136.383 C 309.287 136.433,309.179 136.231,309.341 135.809 C 309.488 135.426,309.427 135.260,309.192 135.405 C 308.972 135.541,308.333 135.290,307.771 134.848 C 307.209 134.406,306.519 134.133,306.239 134.241 C 305.958 134.348,305.497 134.158,305.215 133.818 C 304.933 133.478,304.448 133.200,304.138 133.200 C 303.829 133.200,303.476 132.941,303.354 132.625 C 303.192 132.203,302.598 132.086,301.127 132.186 L 299.121 132.323 299.291 131.161 C 299.445 130.113,299.351 130.000,298.331 130.000 C 297.592 130.000,297.200 129.792,297.200 129.400 C 297.200 129.058,296.840 128.800,296.363 128.800 C 295.356 128.800,293.510 127.436,293.914 126.989 C 294.071 126.815,293.885 126.786,293.500 126.924 C 293.112 127.063,292.800 126.983,292.800 126.745 C 292.800 126.508,292.545 126.412,292.233 126.532 C 291.921 126.652,291.567 126.491,291.446 126.175 C 291.294 125.778,290.588 125.600,289.170 125.600 C 287.507 125.600,287.158 125.485,287.345 125.000 C 287.616 124.294,287.244 123.126,286.829 123.382 C 286.672 123.479,286.040 123.298,285.426 122.980 C 284.811 122.661,284.078 122.400,283.797 122.400 C 283.516 122.400,283.182 122.130,283.055 121.800 C 282.929 121.470,282.350 121.200,281.770 121.200 C 280.996 121.200,280.776 121.040,280.945 120.600 C 281.099 120.197,280.926 120.000,280.416 120.000 C 279.999 120.000,279.388 119.731,279.058 119.401 C 278.711 119.053,278.168 118.914,277.764 119.069 C 277.322 119.239,277.165 119.181,277.332 118.910 C 277.622 118.442,276.765 118.000,275.567 118.000 C 275.145 118.000,274.800 117.730,274.800 117.400 C 274.800 117.070,274.455 116.800,274.033 116.800 C 273.612 116.800,273.195 116.586,273.108 116.325 C 273.008 116.023,272.196 115.885,270.875 115.945 C 268.808 116.039,268.800 116.035,268.800 114.820 C 268.800 113.800,268.643 113.600,267.843 113.600 C 267.316 113.600,266.782 113.330,266.655 113.000 C 266.529 112.670,266.170 112.400,265.858 112.400 C 265.547 112.400,264.789 112.139,264.174 111.820 C 263.560 111.502,262.909 111.332,262.729 111.444 C 262.548 111.556,262.398 111.412,262.395 111.124 C 262.388 110.267,259.414 109.057,258.007 109.339 C 256.850 109.570,256.779 109.516,256.886 108.493 C 256.980 107.592,256.824 107.376,256.000 107.262 C 255.450 107.185,254.856 106.870,254.680 106.562 C 254.355 105.990,252.353 105.781,251.867 106.267 M383.483 220.895 C 383.387 221.393,383.305 221.080,383.301 220.200 C 383.296 219.320,383.375 218.913,383.475 219.295 C 383.575 219.678,383.579 220.398,383.483 220.895 " stroke="none" fill="#04bbbb" fill-rule="evenodd"></path><path id="path1" d="M182.128 78.800 C 182.128 80.230,182.201 80.815,182.289 80.100 C 182.378 79.385,182.378 78.215,182.289 77.500 C 182.201 76.785,182.128 77.370,182.128 78.800 M182.140 108.000 C 182.140 109.870,182.209 110.635,182.293 109.700 C 182.377 108.765,182.377 107.235,182.293 106.300 C 182.209 105.365,182.140 106.130,182.140 108.000 M182.448 115.580 C 182.413 117.447,182.521 118.039,182.837 117.723 C 183.144 117.416,183.158 116.644,182.885 115.143 L 182.495 113.000 182.448 115.580 M89.745 158.600 C 89.618 158.930,89.084 159.200,88.557 159.200 C 87.973 159.200,87.600 159.434,87.600 159.800 C 87.600 160.196,87.204 160.400,86.433 160.400 C 85.792 160.400,85.203 160.591,85.125 160.825 C 85.047 161.059,84.472 161.307,83.846 161.375 C 83.221 161.444,82.541 161.747,82.336 162.050 C 81.844 162.775,82.225 422.213,82.739 436.312 C 83.150 447.587,83.239 448.000,85.249 448.000 C 86.005 448.000,86.400 448.206,86.400 448.600 C 86.400 448.975,86.779 449.200,87.413 449.200 C 87.969 449.200,88.529 449.470,88.655 449.800 C 88.782 450.130,89.297 450.400,89.800 450.400 C 90.303 450.400,90.818 450.670,90.945 451.000 C 91.183 451.621,92.265 451.780,93.367 451.357 C 93.943 451.136,94.000 437.829,94.000 304.557 L 94.000 158.000 91.987 158.000 C 90.568 158.000,89.907 158.177,89.745 158.600 M234.157 194.400 C 234.157 197.370,234.220 198.585,234.297 197.100 C 234.374 195.615,234.374 193.185,234.297 191.700 C 234.220 190.215,234.157 191.430,234.157 194.400 M15.855 194.600 C 15.729 194.930,15.169 195.200,14.613 195.200 C 14.056 195.200,13.600 195.380,13.600 195.600 C 13.600 195.820,13.150 196.000,12.600 196.000 C 11.978 196.000,11.600 196.227,11.600 196.600 C 11.600 196.993,11.207 197.200,10.462 197.200 C 7.773 197.200,7.989 187.379,8.100 304.231 L 8.200 409.800 9.300 409.927 C 9.930 409.999,10.400 410.298,10.400 410.627 C 10.400 411.029,10.877 411.200,12.000 411.200 C 13.156 411.200,13.600 411.367,13.600 411.800 C 13.600 412.166,13.973 412.400,14.557 412.400 C 15.084 412.400,15.622 412.681,15.754 413.024 C 15.925 413.471,16.421 413.613,17.497 413.524 L 19.000 413.400 19.109 304.600 C 19.169 244.760,19.121 195.395,19.002 194.900 C 18.740 193.815,16.248 193.578,15.855 194.600 M384.160 205.400 C 384.161 208.700,384.222 209.997,384.298 208.282 C 384.373 206.567,384.372 203.867,384.297 202.282 C 384.221 200.697,384.159 202.100,384.160 205.400 M257.200 223.386 C 257.200 223.488,257.556 223.762,257.991 223.995 C 258.636 224.341,258.739 224.306,258.548 223.809 C 258.341 223.269,257.200 222.911,257.200 223.386 M383.457 239.900 C 383.090 242.118,383.147 243.600,383.600 243.600 C 383.826 243.600,384.000 242.467,384.000 241.000 C 384.000 238.062,383.821 237.699,383.457 239.900 M286.900 250.676 C 287.285 250.776,287.915 250.776,288.300 250.676 C 288.685 250.575,288.370 250.493,287.600 250.493 C 286.830 250.493,286.515 250.575,286.900 250.676 M182.676 433.876 C 182.564 434.058,182.360 434.925,182.223 435.803 L 181.973 437.400 182.615 435.661 C 183.183 434.120,183.222 432.993,182.676 433.876 " stroke="none" fill="#242424" fill-rule="evenodd"></path><path id="path2" d="M182.128 74.000 C 182.128 75.430,182.201 76.015,182.289 75.300 C 182.378 74.585,182.378 73.415,182.289 72.700 C 182.201 71.985,182.128 72.570,182.128 74.000 M182.150 85.400 C 182.151 87.820,182.216 88.758,182.296 87.485 C 182.376 86.212,182.375 84.232,182.294 83.085 C 182.214 81.938,182.149 82.980,182.150 85.400 M182.668 97.800 C 182.971 99.777,183.202 100.114,183.194 98.567 C 183.191 97.925,183.016 97.130,182.805 96.800 C 182.545 96.391,182.501 96.710,182.668 97.800 M182.514 106.200 C 182.517 107.300,182.595 107.703,182.687 107.095 C 182.779 106.486,182.777 105.586,182.682 105.095 C 182.587 104.603,182.511 105.100,182.514 106.200 M251.084 106.400 C 250.969 106.839,251.038 107.300,251.238 107.423 C 251.437 107.546,251.600 107.187,251.600 106.624 C 251.600 105.398,251.372 105.299,251.084 106.400 M234.158 113.800 C 234.158 116.880,234.221 118.087,234.297 116.482 C 234.373 114.878,234.373 112.358,234.296 110.882 C 234.219 109.407,234.157 110.720,234.158 113.800 M182.440 111.833 C 182.462 112.475,182.633 113.450,182.820 114.000 C 183.049 114.674,183.084 114.349,182.928 113.000 C 182.669 110.750,182.379 110.059,182.440 111.833 M312.400 138.000 C 312.400 138.220,312.670 138.400,313.000 138.400 C 313.330 138.400,313.600 138.220,313.600 138.000 C 313.600 137.780,313.330 137.600,313.000 137.600 C 312.670 137.600,312.400 137.780,312.400 138.000 M234.000 148.400 C 234.000 152.133,233.849 154.400,233.600 154.400 C 233.354 154.400,233.200 156.400,233.200 159.600 C 233.200 162.541,233.362 164.800,233.572 164.800 C 233.777 164.800,234.022 165.205,234.118 165.700 C 234.213 166.195,234.316 161.155,234.346 154.500 C 234.375 147.845,234.310 142.400,234.200 142.400 C 234.090 142.400,234.000 145.100,234.000 148.400 M342.800 154.400 C 342.800 154.620,343.070 154.800,343.400 154.800 C 343.730 154.800,344.000 154.620,344.000 154.400 C 344.000 154.180,343.730 154.000,343.400 154.000 C 343.070 154.000,342.800 154.180,342.800 154.400 M354.800 161.033 C 354.800 161.382,355.014 161.595,355.275 161.508 C 356.017 161.261,356.140 160.400,355.433 160.400 C 355.085 160.400,354.800 160.685,354.800 161.033 M366.800 167.368 C 366.800 167.789,367.126 167.964,367.804 167.908 C 369.002 167.809,368.903 167.054,367.669 166.872 C 367.094 166.788,366.800 166.955,366.800 167.368 M234.142 171.000 C 234.141 172.980,234.208 173.840,234.292 172.912 C 234.376 171.984,234.377 170.364,234.295 169.312 C 234.212 168.260,234.143 169.020,234.142 171.000 M234.088 176.700 C 234.040 177.195,233.820 177.600,233.600 177.600 C 232.987 177.600,233.080 186.119,233.700 186.745 C 234.100 187.149,234.061 187.328,233.500 187.645 C 232.359 188.288,232.449 199.784,233.600 200.400 C 234.166 200.703,234.400 200.703,234.400 200.402 C 234.400 200.167,234.130 199.871,233.800 199.745 C 232.906 199.402,232.916 188.896,233.811 188.241 C 234.323 187.867,234.402 186.814,234.300 181.797 C 234.232 178.499,234.137 176.205,234.088 176.700 M384.137 180.200 C 384.139 181.960,384.209 182.630,384.293 181.689 C 384.378 180.749,384.377 179.309,384.291 178.489 C 384.205 177.670,384.136 178.440,384.137 180.200 M383.200 214.000 C 383.200 214.440,383.380 214.800,383.600 214.800 C 383.820 214.800,384.000 214.440,384.000 214.000 C 384.000 213.560,383.820 213.200,383.600 213.200 C 383.380 213.200,383.200 213.560,383.200 214.000 M280.300 250.682 C 280.795 250.778,281.605 250.778,282.100 250.682 C 282.595 250.587,282.190 250.509,281.200 250.509 C 280.210 250.509,279.805 250.587,280.300 250.682 M269.733 311.784 C 269.733 312.124,270.076 312.400,270.500 312.400 C 270.935 312.400,271.195 312.184,271.100 311.900 C 270.854 311.162,269.733 311.066,269.733 311.784 M332.000 337.667 C 332.000 338.070,332.270 338.400,332.600 338.400 C 332.930 338.400,333.200 338.070,333.200 337.667 C 333.200 337.263,332.930 336.933,332.600 336.933 C 332.270 336.933,332.000 337.263,332.000 337.667 M331.200 354.400 C 331.200 354.620,330.739 354.800,330.176 354.800 C 329.585 354.800,329.259 354.972,329.404 355.207 C 329.542 355.430,329.823 355.509,330.028 355.383 C 330.232 355.256,330.400 355.343,330.400 355.576 C 330.400 355.809,330.580 356.000,330.800 356.000 C 331.020 356.000,331.200 355.730,331.200 355.400 C 331.200 355.070,331.380 354.800,331.600 354.800 C 331.820 354.800,332.000 354.620,332.000 354.400 C 332.000 354.180,331.820 354.000,331.600 354.000 C 331.380 354.000,331.200 354.180,331.200 354.400 M322.400 358.600 C 322.400 358.930,322.670 359.200,323.000 359.200 C 323.330 359.200,323.600 358.930,323.600 358.600 C 323.600 358.270,323.330 358.000,323.000 358.000 C 322.670 358.000,322.400 358.270,322.400 358.600 M382.000 361.833 C 382.000 363.086,382.939 362.949,383.128 361.669 C 383.213 361.092,383.045 360.800,382.628 360.800 C 382.219 360.800,382.000 361.161,382.000 361.833 M233.497 364.050 C 232.651 364.523,232.552 366.400,233.373 366.400 C 233.692 366.400,234.021 366.889,234.113 367.500 C 234.269 368.524,234.284 368.510,234.340 367.300 C 234.382 366.384,234.223 366.000,233.800 366.000 C 233.470 366.000,233.200 365.820,233.200 365.600 C 233.200 365.380,233.361 365.200,233.557 365.200 C 233.904 365.200,234.533 364.000,234.306 363.773 C 234.244 363.711,233.880 363.835,233.497 364.050 M306.000 366.200 C 306.000 366.530,306.270 366.800,306.600 366.800 C 306.930 366.800,307.200 366.530,307.200 366.200 C 307.200 365.870,306.930 365.600,306.600 365.600 C 306.270 365.600,306.000 365.870,306.000 366.200 M301.488 368.185 C 300.846 368.655,300.872 368.700,301.792 368.700 C 302.346 368.700,302.800 368.553,302.800 368.374 C 302.800 367.758,302.191 367.671,301.488 368.185 M296.400 370.600 C 296.400 370.930,296.670 371.200,297.000 371.200 C 297.330 371.200,297.600 370.930,297.600 370.600 C 297.600 370.270,297.330 370.000,297.000 370.000 C 296.670 370.000,296.400 370.270,296.400 370.600 M292.474 372.022 C 291.965 372.226,291.661 372.575,291.798 372.797 C 292.217 373.475,293.095 373.246,293.316 372.400 C 293.431 371.960,293.497 371.611,293.463 371.625 C 293.428 371.639,292.983 371.818,292.474 372.022 M286.667 374.667 C 286.174 375.159,286.394 375.600,287.133 375.600 C 287.537 375.600,287.867 375.330,287.867 375.000 C 287.867 374.387,287.147 374.187,286.667 374.667 M282.000 377.000 C 282.000 377.330,282.270 377.600,282.600 377.600 C 282.930 377.600,283.200 377.330,283.200 377.000 C 283.200 376.670,282.930 376.400,282.600 376.400 C 282.270 376.400,282.000 376.670,282.000 377.000 M277.000 379.200 C 276.864 379.420,277.123 379.600,277.576 379.600 C 278.029 379.600,278.400 379.420,278.400 379.200 C 278.400 378.980,278.141 378.800,277.824 378.800 C 277.507 378.800,277.136 378.980,277.000 379.200 M272.400 381.400 C 272.400 381.730,272.670 382.000,273.000 382.000 C 273.330 382.000,273.600 381.730,273.600 381.400 C 273.600 381.070,273.330 380.800,273.000 380.800 C 272.670 380.800,272.400 381.070,272.400 381.400 M267.000 383.600 C 266.856 383.833,267.263 384.000,267.976 384.000 C 268.649 384.000,269.200 383.820,269.200 383.600 C 269.200 383.380,268.761 383.200,268.224 383.200 C 267.687 383.200,267.136 383.380,267.000 383.600 M262.800 385.800 C 262.800 386.130,263.070 386.400,263.400 386.400 C 263.730 386.400,264.000 386.130,264.000 385.800 C 264.000 385.470,263.730 385.200,263.400 385.200 C 263.070 385.200,262.800 385.470,262.800 385.800 M258.500 387.612 C 257.402 388.054,257.339 388.400,258.357 388.400 C 258.774 388.400,259.218 388.130,259.345 387.800 C 259.471 387.470,259.536 387.211,259.487 387.225 C 259.439 387.239,258.995 387.413,258.500 387.612 M182.406 437.300 C 182.411 438.028,182.486 438.085,182.800 437.600 C 183.301 436.824,183.301 436.400,182.800 436.400 C 182.580 436.400,182.403 436.805,182.406 437.300 M182.109 444.400 C 182.109 445.390,182.187 445.795,182.282 445.300 C 182.378 444.805,182.378 443.995,182.282 443.500 C 182.187 443.005,182.109 443.410,182.109 444.400 M182.101 448.600 C 182.105 449.480,182.187 449.793,182.283 449.295 C 182.379 448.798,182.375 448.078,182.275 447.695 C 182.175 447.313,182.096 447.720,182.101 448.600 M182.093 465.600 C 182.093 466.370,182.175 466.685,182.276 466.300 C 182.376 465.915,182.376 465.285,182.276 464.900 C 182.175 464.515,182.093 464.830,182.093 465.600 " stroke="none" fill="#049494" fill-rule="evenodd"></path><path id="path3" d="M233.700 188.265 C 233.334 188.413,233.200 189.946,233.200 193.991 C 233.200 198.041,233.333 199.565,233.700 199.705 C 234.086 199.853,234.200 198.542,234.200 193.948 C 234.200 190.676,234.200 188.014,234.200 188.031 C 234.200 188.049,233.975 188.154,233.700 188.265 M233.700 364.998 C 233.043 365.744,233.069 366.000,233.800 366.000 C 234.133 366.000,234.400 365.644,234.400 365.200 C 234.400 364.262,234.359 364.250,233.700 364.998 " stroke="none" fill="#2c2c2c" fill-rule="evenodd"></path><path id="path4" d="M183.130 69.836 C 184.054 70.483,185.200 70.359,185.200 69.613 C 185.200 69.386,184.530 69.200,183.711 69.200 C 182.236 69.200,182.231 69.206,183.130 69.836 M182.440 74.033 C 182.462 75.225,182.620 76.650,182.792 77.200 C 182.969 77.764,183.014 76.893,182.897 75.200 C 182.651 71.647,182.383 70.964,182.440 74.033 M196.000 76.200 C 196.000 76.651,196.281 76.816,196.900 76.728 C 197.395 76.658,197.800 76.420,197.800 76.200 C 197.800 75.980,197.395 75.742,196.900 75.672 C 196.281 75.584,196.000 75.749,196.000 76.200 M202.000 79.400 C 202.274 79.730,202.746 80.000,203.049 80.000 C 203.352 80.000,203.600 79.730,203.600 79.400 C 203.600 79.019,203.217 78.800,202.551 78.800 C 201.664 78.800,201.579 78.893,202.000 79.400 M182.400 83.776 C 182.400 86.221,182.990 86.389,183.040 83.959 C 183.063 82.881,182.928 82.000,182.740 82.000 C 182.553 82.000,182.400 82.799,182.400 83.776 M214.351 85.400 C 214.643 86.514,215.983 86.920,216.788 86.139 C 217.084 85.853,215.879 85.227,215.492 85.466 C 215.302 85.584,214.897 85.347,214.591 84.940 C 214.090 84.272,214.066 84.317,214.351 85.400 M182.454 88.900 C 182.425 90.385,182.536 91.600,182.703 91.600 C 182.869 91.600,182.952 90.745,182.886 89.700 C 182.679 86.413,182.511 86.102,182.454 88.900 M226.400 92.586 C 226.400 93.260,226.972 93.328,228.200 92.800 C 229.082 92.421,229.073 92.412,227.500 92.153 C 226.699 92.022,226.400 92.140,226.400 92.586 M232.470 95.178 C 232.981 95.826,233.632 96.366,233.916 96.378 C 234.237 96.392,234.124 96.070,233.616 95.525 C 233.167 95.043,232.800 94.503,232.800 94.325 C 232.800 94.146,232.516 94.000,232.170 94.000 C 231.664 94.000,231.723 94.233,232.470 95.178 M182.400 95.600 C 182.400 96.040,182.580 96.400,182.800 96.400 C 183.020 96.400,183.200 96.040,183.200 95.600 C 183.200 95.160,183.020 94.800,182.800 94.800 C 182.580 94.800,182.400 95.160,182.400 95.600 M182.608 97.187 C 182.476 97.401,182.420 100.175,182.484 103.352 C 182.548 106.530,182.728 108.788,182.885 108.370 C 183.123 107.736,183.159 96.804,182.924 96.801 C 182.882 96.800,182.739 96.974,182.608 97.187 M234.158 103.000 C 234.158 106.080,234.221 107.287,234.297 105.682 C 234.373 104.078,234.373 101.558,234.296 100.082 C 234.219 98.607,234.157 99.920,234.158 103.000 M257.500 108.276 C 257.115 108.376,256.800 108.735,256.800 109.072 C 256.800 109.467,257.025 109.599,257.433 109.443 C 257.781 109.309,258.366 109.186,258.733 109.168 C 259.152 109.149,259.214 109.062,258.898 108.934 C 258.621 108.823,258.497 108.567,258.621 108.366 C 258.857 107.985,258.671 107.970,257.500 108.276 M233.200 113.720 C 233.200 117.107,233.353 119.200,233.600 119.200 C 234.105 119.200,234.152 142.259,233.647 142.571 C 233.210 142.841,232.601 163.942,232.994 165.181 C 233.216 165.880,233.382 165.971,233.740 165.590 C 234.088 165.220,234.078 165.055,233.700 164.917 C 232.993 164.658,232.986 154.538,233.692 154.303 C 234.415 154.062,234.423 109.463,233.700 108.740 C 233.300 108.340,233.200 109.336,233.200 113.720 M262.400 110.866 C 262.400 111.176,262.780 111.458,263.245 111.493 C 263.710 111.528,264.025 111.516,263.945 111.465 C 263.865 111.415,263.485 111.133,263.100 110.838 C 262.511 110.387,262.400 110.391,262.400 110.866 M268.800 115.400 C 268.800 115.846,269.235 115.988,270.500 115.954 C 271.435 115.928,271.840 115.821,271.400 115.715 C 270.960 115.609,270.429 115.360,270.220 115.161 C 269.627 114.598,268.800 114.737,268.800 115.400 M183.200 119.800 C 183.200 120.130,183.470 120.400,183.800 120.400 C 184.130 120.400,184.400 120.130,184.400 119.800 C 184.400 119.470,184.130 119.200,183.800 119.200 C 183.470 119.200,183.200 119.470,183.200 119.800 M287.467 124.667 C 286.887 125.246,287.259 125.600,288.449 125.600 C 289.514 125.600,289.625 125.512,289.200 125.000 C 288.675 124.367,287.913 124.220,287.467 124.667 M299.200 131.431 C 299.200 132.426,299.621 132.571,300.977 132.040 C 301.675 131.766,301.624 131.671,300.477 131.098 C 299.217 130.470,299.200 130.474,299.200 131.431 M311.605 138.009 C 311.847 138.462,312.406 138.780,312.914 138.754 C 313.591 138.718,313.635 138.664,313.100 138.524 C 312.715 138.424,312.400 138.194,312.400 138.013 C 312.400 137.833,312.126 137.580,311.791 137.452 C 311.294 137.261,311.259 137.364,311.605 138.009 M342.075 154.295 C 342.149 154.678,342.567 155.048,343.005 155.117 C 343.664 155.221,343.698 155.171,343.200 154.822 C 342.667 154.447,342.667 154.356,343.200 154.006 C 343.684 153.688,343.621 153.611,342.871 153.606 C 342.202 153.602,341.979 153.795,342.075 154.295 M233.007 177.242 C 232.471 179.400,232.961 187.997,233.597 187.603 C 234.072 187.309,234.092 187.132,233.697 186.737 C 232.999 186.039,233.002 177.739,233.700 177.483 C 234.088 177.341,234.093 177.186,233.722 176.792 C 233.342 176.388,233.196 176.480,233.007 177.242 M233.297 200.520 C 233.943 201.043,234.001 202.834,234.100 225.242 L 234.206 249.400 234.303 225.114 L 234.400 200.828 233.500 200.392 C 232.690 200.000,232.670 200.012,233.297 200.520 M383.559 207.700 C 383.299 208.340,383.347 212.844,383.616 213.010 C 383.820 213.136,383.938 212.008,383.888 210.417 C 383.812 207.976,383.728 207.285,383.559 207.700 M314.544 218.400 C 314.544 220.490,314.612 221.345,314.694 220.300 C 314.776 219.255,314.776 217.545,314.694 216.500 C 314.612 215.455,314.544 216.310,314.544 218.400 M383.301 220.200 C 383.305 221.080,383.387 221.393,383.483 220.895 C 383.579 220.398,383.575 219.678,383.475 219.295 C 383.375 218.913,383.296 219.320,383.301 220.200 M258.400 223.557 C 258.400 223.754,258.685 224.024,259.033 224.157 C 260.011 224.533,260.141 224.451,259.600 223.800 C 259.048 223.135,258.400 223.004,258.400 223.557 M263.055 223.800 C 262.883 224.249,263.120 224.400,264.000 224.400 C 264.880 224.400,265.117 224.249,264.945 223.800 C 264.818 223.470,264.393 223.200,264.000 223.200 C 263.607 223.200,263.182 223.470,263.055 223.800 M383.654 225.200 C 383.400 228.589,383.423 230.338,383.719 230.042 C 383.894 229.866,383.975 228.390,383.898 226.761 C 383.822 225.133,383.712 224.430,383.654 225.200 M383.484 233.100 C 383.789 236.197,384.000 236.265,384.000 233.267 C 384.000 231.910,383.833 230.800,383.629 230.800 C 383.418 230.800,383.355 231.790,383.484 233.100 M269.700 250.676 C 270.085 250.776,270.715 250.776,271.100 250.676 C 271.485 250.575,271.170 250.493,270.400 250.493 C 269.630 250.493,269.315 250.575,269.700 250.676 M272.536 251.000 C 272.732 251.600,273.995 251.734,274.953 251.256 C 275.419 251.024,276.250 250.754,276.800 250.658 C 277.350 250.561,276.586 250.509,275.102 250.541 C 273.508 250.576,272.458 250.764,272.536 251.000 M314.400 252.172 C 314.400 252.581,314.761 252.800,315.433 252.800 C 316.686 252.800,316.549 251.861,315.269 251.672 C 314.692 251.587,314.400 251.755,314.400 252.172 M300.400 307.400 C 300.400 307.730,300.580 308.000,300.800 308.000 C 301.020 308.000,301.200 307.730,301.200 307.400 C 301.200 307.070,301.020 306.800,300.800 306.800 C 300.580 306.800,300.400 307.070,300.400 307.400 M291.500 308.485 C 291.256 309.119,293.395 309.455,293.774 308.842 C 293.899 308.640,293.622 308.574,293.160 308.695 C 292.697 308.816,292.182 308.694,292.015 308.424 C 291.782 308.047,291.662 308.061,291.500 308.485 M285.200 309.600 C 285.200 310.106,286.017 310.106,286.800 309.600 C 287.268 309.298,287.157 309.211,286.300 309.206 C 285.695 309.203,285.200 309.380,285.200 309.600 M272.800 310.600 C 272.800 310.930,272.980 311.200,273.200 311.200 C 273.420 311.200,273.600 310.930,273.600 310.600 C 273.600 310.270,273.420 310.000,273.200 310.000 C 272.980 310.000,272.800 310.270,272.800 310.600 M275.200 310.600 C 275.200 310.930,275.361 311.200,275.557 311.200 C 275.754 311.200,276.018 310.930,276.145 310.600 C 276.285 310.235,276.145 310.000,275.787 310.000 C 275.464 310.000,275.200 310.270,275.200 310.600 M266.400 311.800 C 266.400 312.473,266.473 312.500,267.367 312.157 C 268.261 311.814,268.154 311.200,267.200 311.200 C 266.756 311.200,266.400 311.467,266.400 311.800 M332.180 336.768 C 332.332 337.013,332.623 337.109,332.828 336.983 C 333.032 336.856,333.200 337.123,333.200 337.576 C 333.200 338.042,332.939 338.400,332.600 338.400 C 332.270 338.400,332.000 338.593,332.000 338.829 C 332.000 339.065,332.315 339.198,332.700 339.124 C 333.710 338.929,333.669 336.663,332.653 336.467 C 332.182 336.376,332.007 336.488,332.180 336.768 M331.700 354.623 C 331.425 354.922,331.200 355.394,331.200 355.672 C 331.200 355.950,331.488 355.766,331.841 355.263 C 332.562 354.233,332.465 353.793,331.700 354.623 M329.015 355.624 C 329.296 356.079,330.400 356.127,330.400 355.685 C 330.400 355.512,330.036 355.343,329.591 355.309 C 329.147 355.276,328.887 355.418,329.015 355.624 M224.967 360.625 C 225.679 361.337,226.000 361.355,226.000 360.685 C 226.000 360.402,225.638 360.143,225.196 360.110 C 224.497 360.057,224.467 360.124,224.967 360.625 M381.754 360.977 C 381.632 361.294,381.617 361.879,381.720 362.277 C 381.846 362.763,381.922 362.649,381.954 361.929 C 381.982 361.272,382.271 360.788,382.700 360.676 C 383.356 360.504,383.355 360.490,382.687 360.446 C 382.296 360.421,381.875 360.659,381.754 360.977 M209.362 364.353 C 208.187 364.587,208.159 364.636,208.808 365.313 C 209.461 365.994,209.520 365.981,210.155 365.013 C 210.520 364.456,210.769 364.024,210.709 364.053 C 210.649 364.082,210.043 364.217,209.362 364.353 M232.908 367.221 C 232.874 367.673,233.106 368.143,233.423 368.264 C 233.879 368.439,234.018 369.589,234.084 373.743 L 234.169 379.000 234.309 374.800 C 234.476 369.772,234.134 366.400,233.456 366.400 C 233.189 366.400,232.942 366.770,232.908 367.221 M302.647 368.179 C 302.908 368.859,302.198 369.044,301.800 368.400 C 301.664 368.180,301.371 368.000,301.148 368.000 C 300.925 368.000,301.030 368.287,301.382 368.639 C 301.733 368.990,302.286 369.176,302.610 369.051 C 303.287 368.792,303.385 368.161,302.805 367.803 C 302.578 367.663,302.511 367.823,302.647 368.179 M192.392 369.585 C 192.851 370.443,194.000 370.280,194.000 369.357 C 194.000 369.027,193.586 368.800,192.986 368.800 C 192.102 368.800,192.026 368.901,192.392 369.585 M297.600 370.600 C 297.600 370.930,297.780 371.200,298.000 371.200 C 298.220 371.200,298.400 370.930,298.400 370.600 C 298.400 370.270,298.220 370.000,298.000 370.000 C 297.780 370.000,297.600 370.270,297.600 370.600 M291.200 372.811 C 291.200 373.158,292.753 373.781,293.001 373.532 C 293.078 373.455,292.705 373.185,292.171 372.933 C 291.637 372.681,291.200 372.626,291.200 372.811 M287.878 374.656 C 287.558 374.975,287.919 375.600,288.424 375.600 C 288.631 375.600,288.800 375.330,288.800 375.000 C 288.800 374.381,288.328 374.205,287.878 374.656 M283.200 376.967 C 283.200 377.278,282.975 377.624,282.700 377.735 C 282.401 377.856,282.482 377.950,282.900 377.968 C 283.344 377.988,283.600 377.707,283.600 377.200 C 283.600 376.760,283.510 376.400,283.400 376.400 C 283.290 376.400,283.200 376.655,283.200 376.967 M278.520 378.955 C 278.344 379.261,277.840 379.600,277.400 379.709 C 276.872 379.840,277.042 379.923,277.900 379.954 C 278.949 379.991,279.200 379.845,279.200 379.200 C 279.200 378.263,278.967 378.179,278.520 378.955 M268.200 384.000 L 267.000 384.305 268.076 384.353 C 268.668 384.379,269.264 384.220,269.400 384.000 C 269.536 383.780,269.592 383.621,269.524 383.647 C 269.456 383.673,268.860 383.832,268.200 384.000 M258.800 387.570 C 259.333 387.952,259.333 388.044,258.800 388.394 C 258.291 388.728,258.311 388.789,258.929 388.794 C 259.809 388.801,259.700 387.548,258.800 387.303 C 258.267 387.157,258.267 387.187,258.800 387.570 M253.200 390.200 C 252.792 390.691,252.820 390.800,253.351 390.800 C 253.708 390.800,254.000 390.530,254.000 390.200 C 254.000 389.870,253.932 389.600,253.849 389.600 C 253.766 389.600,253.474 389.870,253.200 390.200 M242.147 395.286 C 241.902 395.682,242.329 396.400,242.810 396.400 C 243.009 396.400,243.344 396.079,243.554 395.686 C 243.949 394.948,242.594 394.563,242.147 395.286 M182.643 438.233 C 182.272 439.200,182.354 440.876,182.760 440.624 C 183.051 440.445,183.242 437.600,182.964 437.600 C 182.921 437.600,182.776 437.885,182.643 438.233 M182.667 441.867 C 182.520 442.013,182.415 442.598,182.434 443.167 C 182.468 444.181,182.475 444.179,182.821 443.020 C 183.185 441.803,183.131 441.402,182.667 441.867 M182.667 444.667 C 182.254 445.079,182.352 446.477,182.775 446.216 C 182.981 446.088,183.122 445.628,183.089 445.192 C 183.022 444.297,183.029 444.305,182.667 444.667 M182.079 454.200 C 182.107 456.962,182.111 456.973,182.393 455.000 C 182.550 453.900,182.537 452.640,182.365 452.200 C 182.169 451.703,182.061 452.460,182.079 454.200 M182.109 462.800 C 182.109 463.790,182.187 464.195,182.282 463.700 C 182.378 463.205,182.378 462.395,182.282 461.900 C 182.187 461.405,182.109 461.810,182.109 462.800 M182.120 468.800 C 182.120 470.010,182.195 470.505,182.287 469.900 C 182.378 469.295,182.378 468.305,182.287 467.700 C 182.195 467.095,182.120 467.590,182.120 468.800 M205.424 474.613 C 204.996 474.936,204.825 475.200,205.044 475.200 C 205.262 475.200,205.611 475.037,205.820 474.839 C 206.029 474.640,206.560 474.391,207.000 474.285 L 207.800 474.093 207.000 474.059 C 206.560 474.041,205.851 474.290,205.424 474.613 M182.131 480.600 C 182.133 482.140,182.205 482.721,182.292 481.891 C 182.379 481.061,182.377 479.801,182.289 479.091 C 182.200 478.381,182.129 479.060,182.131 480.600 M196.000 479.000 C 196.000 479.330,196.270 479.600,196.600 479.600 C 196.930 479.600,197.200 479.330,197.200 479.000 C 197.200 478.670,196.930 478.400,196.600 478.400 C 196.270 478.400,196.000 478.670,196.000 479.000 M193.855 480.200 C 193.720 480.552,193.850 480.800,194.170 480.800 C 194.469 480.800,194.818 480.530,194.945 480.200 C 195.080 479.848,194.950 479.600,194.630 479.600 C 194.331 479.600,193.982 479.870,193.855 480.200 M191.444 481.429 C 191.276 481.868,191.404 482.019,191.868 481.929 C 192.234 481.858,192.609 481.575,192.700 481.300 C 192.945 480.565,191.728 480.690,191.444 481.429 M185.044 484.629 C 184.876 485.068,185.004 485.219,185.468 485.129 C 185.834 485.058,186.209 484.775,186.300 484.500 C 186.545 483.765,185.328 483.890,185.044 484.629 " stroke="none" fill="#049c9c" fill-rule="evenodd"></path></g></svg>