<svg id="svg" version="1.1" xmlns="http://www.w3.org/2000/svg" xmlns:xlink="http://www.w3.org/1999/xlink" width="400" height="252.5083612040134" viewBox="0, 0, 400,252.5083612040134"><g id="svgg"><path id="path0" d="M195.454 48.202 C 195.492 74.714,195.549 96.433,195.580 96.467 C 195.612 96.501,198.068 96.184,201.038 95.763 C 232.901 91.237,251.335 88.605,251.719 88.527 L 252.185 88.433 252.159 96.766 C 252.144 101.350,252.086 105.884,252.028 106.841 L 251.923 108.581 249.247 109.824 C 247.776 110.508,240.815 113.688,233.779 116.890 C 226.743 120.092,219.519 123.389,217.726 124.216 C 215.932 125.044,214.449 125.706,214.431 125.688 C 214.412 125.671,214.374 123.025,214.347 119.810 C 214.320 116.594,214.261 113.089,214.214 112.020 L 214.130 110.077 204.808 112.596 L 195.485 115.115 195.485 122.399 C 195.485 126.405,195.435 136.066,195.374 143.869 L 195.262 158.055 201.519 154.926 C 230.419 140.472,270.557 120.433,270.716 120.380 C 270.920 120.312,270.975 112.890,271.145 62.793 L 271.221 40.552 267.174 38.391 C 264.948 37.203,260.694 34.927,257.719 33.333 C 254.745 31.739,252.281 30.435,252.243 30.435 C 252.205 30.435,252.174 39.251,252.174 50.025 L 252.174 69.616 246.196 69.507 C 242.908 69.448,234.364 69.350,227.210 69.289 L 214.202 69.179 214.227 39.660 L 214.253 10.141 213.857 9.863 C 213.640 9.710,209.962 7.712,205.686 5.424 C 201.409 3.136,197.383 0.982,196.739 0.636 C 196.095 0.291,195.527 0.007,195.477 0.004 C 195.426 0.002,195.416 21.691,195.454 48.202 M221.555 23.788 C 221.546 29.145,221.519 39.043,221.496 45.783 C 221.472 52.522,221.506 58.070,221.571 58.110 C 221.637 58.150,226.310 58.447,231.957 58.769 C 237.604 59.091,242.845 59.401,243.604 59.458 L 244.983 59.562 244.983 43.032 L 244.983 26.503 240.176 23.927 C 237.531 22.510,232.306 19.708,228.564 17.699 C 224.823 15.690,221.718 14.047,221.666 14.047 C 221.614 14.047,221.564 18.430,221.555 23.788 M0.167 209.702 L 0.167 231.444 4.222 231.399 L 8.278 231.355 8.278 216.032 L 8.278 200.709 8.788 201.650 C 9.704 203.339,10.499 204.458,15.440 211.010 C 18.121 214.566,21.789 219.431,23.592 221.823 L 26.869 226.171 27.886 226.220 C 28.862 226.267,28.921 226.247,29.336 225.718 C 29.573 225.415,31.619 222.684,33.881 219.649 C 36.143 216.614,39.828 211.676,42.068 208.677 C 44.582 205.313,46.408 202.699,46.836 201.853 C 47.217 201.100,47.550 200.506,47.575 200.534 C 47.601 200.562,47.559 201.225,47.483 202.007 C 47.408 202.788,47.341 209.732,47.335 217.436 L 47.324 231.443 52.048 231.399 L 56.773 231.355 56.815 209.657 L 56.857 187.960 52.718 187.961 L 48.579 187.963 45.151 192.492 C 43.265 194.983,39.062 200.532,35.811 204.823 C 32.560 209.114,29.663 212.943,29.373 213.331 C 28.704 214.227,28.992 214.431,26.643 211.403 C 24.770 208.989,20.960 204.120,11.798 192.430 L 8.294 187.960 4.231 187.960 L 0.167 187.960 0.167 209.702 M93.682 188.501 C 93.501 188.801,92.317 190.890,91.051 193.144 C 88.386 197.889,81.223 210.605,74.353 222.789 C 71.720 227.459,69.565 231.316,69.565 231.359 C 69.565 231.403,71.847 231.438,74.636 231.438 L 79.708 231.438 82.203 226.675 L 84.699 221.913 98.411 221.912 L 112.124 221.912 114.704 226.675 L 117.284 231.438 123.023 231.438 C 126.180 231.438,128.763 231.398,128.763 231.348 C 128.763 231.299,125.895 226.276,122.390 220.186 C 118.885 214.096,114.394 206.292,112.410 202.843 C 110.427 199.394,107.696 194.653,106.343 192.308 L 103.883 188.043 98.947 187.999 L 94.010 187.955 93.682 188.501 M129.284 188.336 C 129.455 188.659,135.392 198.921,150.717 225.376 L 154.228 231.438 157.678 231.438 L 161.129 231.438 165.164 224.122 C 167.383 220.098,171.173 213.232,173.586 208.863 C 175.999 204.494,179.362 198.399,181.059 195.318 C 182.757 192.237,184.370 189.320,184.645 188.835 L 185.144 187.955 179.997 187.999 L 174.850 188.043 172.661 192.140 C 171.457 194.394,169.505 198.043,168.325 200.251 C 167.144 202.458,164.410 207.575,162.249 211.622 C 160.088 215.669,158.303 218.999,158.283 219.023 C 158.263 219.047,157.455 217.655,156.486 215.929 C 155.518 214.204,151.811 207.600,148.248 201.254 C 144.686 194.908,141.548 189.321,141.275 188.838 L 140.778 187.960 134.932 187.960 L 129.085 187.960 129.284 188.336 M101.258 201.589 C 102.712 204.348,104.783 208.280,105.862 210.326 L 107.823 214.047 98.495 214.047 L 89.167 214.047 92.157 208.487 C 93.802 205.429,95.919 201.484,96.862 199.720 C 97.805 197.956,98.585 196.527,98.595 196.543 C 98.606 196.559,99.804 198.829,101.258 201.589 M196.656 215.050 L 196.656 231.438 201.756 231.438 L 206.856 231.438 206.856 221.140 L 206.856 210.841 203.060 206.215 C 200.972 203.670,198.734 200.936,198.085 200.138 C 197.437 199.340,196.850 198.682,196.781 198.675 C 196.712 198.668,196.656 206.037,196.656 215.050 " stroke="none" fill="#04bcbc" fill-rule="evenodd"></path><path id="path1" d="M158.909 34.673 L 157.366 35.368 157.362 89.349 L 157.358 143.330 158.958 144.073 C 159.839 144.482,160.629 144.816,160.714 144.816 C 160.810 144.816,160.870 123.420,160.870 89.381 C 160.870 45.137,160.827 33.950,160.661 33.962 C 160.546 33.971,159.757 34.291,158.909 34.673 M214.287 45.151 C 214.287 47.588,214.310 48.585,214.339 47.366 C 214.368 46.148,214.368 44.153,214.339 42.935 C 214.310 41.716,214.287 42.713,214.287 45.151 M130.644 48.437 L 128.930 49.208 128.930 89.080 L 128.930 128.951 130.496 129.693 C 131.357 130.101,132.147 130.435,132.252 130.435 C 132.393 130.435,132.441 119.794,132.441 89.047 C 132.441 66.283,132.423 47.660,132.400 47.662 C 132.377 47.664,131.587 48.013,130.644 48.437 M196.663 190.761 L 196.670 193.562 201.638 199.615 C 204.370 202.945,206.662 205.673,206.731 205.677 C 206.800 205.682,206.856 201.697,206.856 196.823 L 206.856 187.960 201.756 187.960 L 196.656 187.960 196.663 190.761 M218.767 188.420 C 219.006 188.673,224.100 194.072,230.086 200.418 L 240.969 211.957 240.970 221.697 L 240.970 231.438 246.070 231.438 L 251.171 231.438 251.177 221.614 L 251.183 211.789 262.381 199.934 C 268.540 193.414,273.579 188.052,273.579 188.019 C 273.579 187.987,270.888 187.965,267.600 187.972 L 261.622 187.984 254.431 195.924 C 250.477 200.291,247.125 203.971,246.983 204.101 C 246.755 204.309,245.863 203.378,239.374 196.154 L 232.023 187.970 225.178 187.965 L 218.332 187.960 218.767 188.420 M290.134 188.078 C 285.967 188.570,283.978 190.283,283.149 194.090 C 282.699 196.156,282.713 223.146,283.165 225.251 C 284.057 229.407,285.914 230.795,291.228 231.276 C 294.630 231.585,328.530 231.398,330.017 231.063 C 333.869 230.194,335.403 228.641,336.037 224.966 C 336.456 222.540,336.325 194.852,335.888 193.395 C 334.996 190.420,333.822 189.270,330.798 188.411 C 329.595 188.070,292.758 187.768,290.134 188.078 M357.358 209.699 L 357.358 231.438 378.679 231.438 L 400.000 231.438 400.000 227.258 L 400.000 223.077 383.863 223.077 L 367.726 223.077 367.726 205.518 L 367.726 187.960 362.542 187.960 L 357.358 187.960 357.358 209.699 M326.087 209.448 L 326.087 223.077 309.532 223.077 L 292.977 223.077 292.977 209.448 L 292.977 195.819 309.532 195.819 L 326.087 195.819 326.087 209.448 M0.669 245.485 C 0.359 245.795,0.334 246.042,0.334 248.829 C 0.334 252.822,-0.008 252.508,4.348 252.508 C 8.341 252.508,8.361 252.500,8.361 250.844 L 8.361 249.848 7.734 249.674 C 6.727 249.395,6.689 249.419,6.689 250.334 L 6.689 251.171 4.348 251.171 L 2.007 251.171 2.007 248.829 L 2.007 246.488 4.348 246.488 L 6.689 246.488 6.689 247.157 C 6.689 247.884,6.786 247.932,7.839 247.722 C 8.346 247.620,8.361 247.591,8.361 246.718 C 8.361 245.174,8.301 245.151,4.348 245.151 C 1.226 245.151,0.981 245.173,0.669 245.485 M12.040 245.485 C 11.730 245.795,11.706 246.042,11.706 248.829 C 11.706 252.854,11.282 252.508,16.221 252.508 C 21.160 252.508,20.736 252.854,20.736 248.829 C 20.736 244.805,21.160 245.151,16.221 245.151 C 12.598 245.151,12.355 245.170,12.040 245.485 M24.247 248.829 L 24.247 252.508 24.996 252.508 L 25.744 252.508 25.790 250.078 L 25.836 247.648 28.756 250.078 C 31.384 252.265,31.739 252.508,32.310 252.508 L 32.943 252.508 32.943 248.829 L 32.943 245.151 32.195 245.151 L 31.447 245.151 31.401 247.562 L 31.355 249.974 28.435 247.562 C 25.812 245.395,25.452 245.151,24.882 245.151 L 24.247 245.151 24.247 248.829 M37.153 245.538 C 36.841 245.870,36.789 246.118,36.789 247.293 C 36.789 249.347,36.763 249.331,40.301 249.331 L 43.144 249.331 43.144 250.251 L 43.144 251.171 40.552 251.171 L 37.960 251.171 37.960 250.650 C 37.960 250.140,37.948 250.132,37.334 250.247 C 36.479 250.408,36.455 250.433,36.455 251.168 C 36.455 252.395,36.803 252.508,40.552 252.508 C 44.702 252.508,44.649 252.538,44.649 250.239 C 44.649 247.946,44.723 247.993,41.137 247.993 L 38.294 247.993 38.294 247.241 L 38.294 246.488 40.635 246.488 L 42.977 246.488 42.977 246.925 C 42.977 247.345,43.762 247.415,44.355 247.049 C 44.643 246.871,44.473 245.869,44.095 245.514 C 43.477 244.934,37.702 244.953,37.153 245.538 M46.321 245.819 L 46.321 246.488 47.993 246.488 L 49.666 246.488 49.666 249.498 L 49.666 252.508 50.502 252.508 L 51.338 252.508 51.338 249.498 L 51.338 246.488 53.010 246.488 L 54.682 246.488 54.682 245.819 L 54.682 245.151 50.502 245.151 L 46.321 245.151 46.321 245.819 M56.856 248.829 L 56.856 252.508 57.692 252.508 L 58.528 252.508 58.528 251.087 L 58.528 249.666 59.326 249.666 C 60.105 249.666,60.158 249.699,61.538 251.087 L 62.952 252.508 64.267 252.508 L 65.582 252.508 63.880 251.087 L 62.177 249.666 63.083 249.666 C 64.470 249.666,64.716 249.318,64.716 247.362 C 64.716 245.076,64.861 245.151,60.420 245.151 L 56.856 245.151 56.856 248.829 M68.227 248.495 C 68.227 252.883,67.845 252.508,72.324 252.508 C 76.804 252.508,76.421 252.883,76.421 248.495 L 76.421 245.151 75.585 245.151 L 74.749 245.151 74.749 248.161 L 74.749 251.171 72.324 251.171 L 69.900 251.171 69.900 248.161 L 69.900 245.151 69.064 245.151 L 68.227 245.151 68.227 248.495 M80.435 245.485 C 80.125 245.795,80.100 246.042,80.100 248.829 C 80.100 252.822,79.758 252.508,84.114 252.508 C 88.107 252.508,88.127 252.500,88.127 250.844 L 88.127 249.848 87.500 249.674 C 86.493 249.395,86.455 249.419,86.455 250.334 L 86.455 251.171 84.114 251.171 L 81.773 251.171 81.773 248.829 L 81.773 246.488 84.114 246.488 L 86.455 246.488 86.455 247.157 C 86.455 247.884,86.552 247.932,87.605 247.722 C 88.112 247.620,88.127 247.591,88.127 246.718 C 88.127 245.174,88.067 245.151,84.114 245.151 C 80.992 245.151,80.747 245.173,80.435 245.485 M89.967 245.819 L 89.967 246.488 91.639 246.488 L 93.311 246.488 93.311 249.498 L 93.311 252.508 94.147 252.508 L 94.983 252.508 94.983 249.498 L 94.983 246.488 96.656 246.488 L 98.328 246.488 98.328 245.819 L 98.328 245.151 94.147 245.151 L 89.967 245.151 89.967 245.819 M100.502 248.829 L 100.502 252.508 101.338 252.508 L 102.174 252.508 102.174 248.829 L 102.174 245.151 101.338 245.151 L 100.502 245.151 100.502 248.829 M106.020 245.485 C 105.710 245.795,105.686 246.042,105.686 248.829 C 105.686 252.854,105.262 252.508,110.201 252.508 C 115.140 252.508,114.716 252.854,114.716 248.829 C 114.716 244.805,115.140 245.151,110.201 245.151 C 106.577 245.151,106.335 245.170,106.020 245.485 M118.395 248.829 L 118.395 252.508 119.143 252.508 L 119.891 252.508 119.937 250.078 L 119.983 247.648 122.903 250.078 C 125.531 252.265,125.887 252.508,126.457 252.508 L 127.090 252.508 127.090 248.829 L 127.090 245.151 126.342 245.151 L 125.594 245.151 125.548 247.562 L 125.502 249.974 122.582 247.562 C 119.959 245.395,119.599 245.151,119.029 245.151 L 118.395 245.151 118.395 248.829 M146.321 248.829 L 146.321 252.508 150.084 252.508 L 153.846 252.508 153.846 251.839 L 153.846 251.171 150.920 251.171 L 147.993 251.171 147.993 250.251 L 147.993 249.331 149.666 249.331 L 151.338 249.331 151.338 248.662 L 151.338 247.993 149.666 247.993 L 147.993 247.993 147.993 247.241 L 147.993 246.488 150.920 246.488 L 153.846 246.488 153.846 245.819 L 153.846 245.151 150.084 245.151 L 146.321 245.151 146.321 248.829 M157.023 248.829 L 157.023 252.508 157.771 252.508 L 158.519 252.508 158.566 250.078 L 158.612 247.648 161.532 250.078 C 164.160 252.265,164.515 252.508,165.086 252.508 L 165.719 252.508 165.719 248.829 L 165.719 245.151 164.971 245.151 L 164.223 245.151 164.177 247.562 L 164.130 249.974 161.211 247.562 C 158.588 245.395,158.228 245.151,157.658 245.151 L 157.023 245.151 157.023 248.829 M169.565 245.485 C 169.256 245.795,169.231 246.042,169.231 248.829 C 169.231 252.844,168.834 252.508,173.579 252.508 C 178.160 252.508,177.926 252.639,177.926 250.084 L 177.926 248.328 175.669 248.328 L 173.411 248.328 173.411 248.997 L 173.411 249.666 174.833 249.666 L 176.254 249.666 176.254 250.418 L 176.254 251.171 173.579 251.171 L 170.903 251.171 170.903 248.829 L 170.903 246.488 173.579 246.488 L 176.254 246.488 176.254 246.928 C 176.254 247.344,176.289 247.362,176.881 247.265 C 177.226 247.208,177.602 247.160,177.717 247.159 C 178.103 247.156,177.970 245.918,177.539 245.514 C 176.963 244.972,170.103 244.947,169.565 245.485 M181.438 248.829 L 181.438 252.508 182.274 252.508 L 183.110 252.508 183.110 248.829 L 183.110 245.151 182.274 245.151 L 181.438 245.151 181.438 248.829 M186.957 248.829 L 186.957 252.508 187.705 252.508 L 188.453 252.508 188.499 250.078 L 188.545 247.648 191.465 250.078 C 194.093 252.265,194.448 252.508,195.019 252.508 L 195.652 252.508 195.652 248.829 L 195.652 245.151 194.904 245.151 L 194.156 245.151 194.110 247.562 L 194.064 249.974 191.144 247.562 C 188.521 245.395,188.161 245.151,187.591 245.151 L 186.957 245.151 186.957 248.829 M199.164 248.829 L 199.164 252.508 202.926 252.508 L 206.689 252.508 206.689 251.839 L 206.689 251.171 203.763 251.171 L 200.836 251.171 200.836 250.251 L 200.836 249.331 202.508 249.331 L 204.181 249.331 204.181 248.662 L 204.181 247.993 202.508 247.993 L 200.836 247.993 200.836 247.241 L 200.836 246.488 203.763 246.488 L 206.689 246.488 206.689 245.819 L 206.689 245.151 202.926 245.151 L 199.164 245.151 199.164 248.829 M209.866 248.829 L 209.866 252.508 213.629 252.508 L 217.391 252.508 217.391 251.839 L 217.391 251.171 214.465 251.171 L 211.538 251.171 211.538 250.251 L 211.538 249.331 213.211 249.331 L 214.883 249.331 214.883 248.662 L 214.883 247.993 213.211 247.993 L 211.538 247.993 211.538 247.241 L 211.538 246.488 214.465 246.488 L 217.391 246.488 217.391 245.819 L 217.391 245.151 213.629 245.151 L 209.866 245.151 209.866 248.829 M220.569 248.829 L 220.569 252.508 221.405 252.508 L 222.241 252.508 222.241 251.087 L 222.241 249.666 223.039 249.666 C 223.818 249.666,223.870 249.699,225.251 251.087 L 226.665 252.508 227.980 252.508 L 229.295 252.508 227.592 251.087 L 225.889 249.666 226.795 249.666 C 228.182 249.666,228.428 249.318,228.428 247.362 C 228.428 245.076,228.574 245.151,224.132 245.151 L 220.569 245.151 220.569 248.829 M231.940 248.829 L 231.940 252.508 232.776 252.508 L 233.612 252.508 233.612 248.829 L 233.612 245.151 232.776 245.151 L 231.940 245.151 231.940 248.829 M237.458 248.829 L 237.458 252.508 238.206 252.508 L 238.954 252.508 239.001 250.078 L 239.047 247.648 241.967 250.078 C 244.595 252.265,244.950 252.508,245.520 252.508 L 246.154 252.508 246.154 248.829 L 246.154 245.151 245.406 245.151 L 244.658 245.151 244.611 247.562 L 244.565 249.974 241.646 247.562 C 239.023 245.395,238.662 245.151,238.092 245.151 L 237.458 245.151 237.458 248.829 M249.833 245.485 C 249.523 245.795,249.498 246.042,249.498 248.829 C 249.498 252.844,249.102 252.508,253.846 252.508 C 258.428 252.508,258.194 252.639,258.194 250.084 L 258.194 248.328 255.936 248.328 L 253.679 248.328 253.679 248.997 L 253.679 249.666 255.100 249.666 L 256.522 249.666 256.522 250.418 L 256.522 251.171 253.846 251.171 L 251.171 251.171 251.171 248.829 L 251.171 246.488 253.846 246.488 L 256.522 246.488 256.522 246.928 C 256.522 247.344,256.557 247.362,257.149 247.265 C 257.494 247.208,257.870 247.160,257.985 247.159 C 258.371 247.156,258.237 245.918,257.807 245.514 C 257.230 244.972,250.371 244.947,249.833 245.485 M278.175 248.678 C 277.073 250.625,276.145 252.284,276.115 252.364 C 276.084 252.443,276.480 252.508,276.995 252.508 L 277.931 252.508 278.296 251.756 L 278.662 251.003 280.954 251.003 L 283.246 251.003 283.687 251.756 L 284.128 252.508 285.124 252.508 C 286.353 252.508,286.463 252.899,284.058 248.746 L 282.023 245.234 281.102 245.185 L 280.180 245.136 278.175 248.678 M288.462 248.829 L 288.462 252.508 289.298 252.508 L 290.134 252.508 290.134 251.087 L 290.134 249.666 290.932 249.666 C 291.711 249.666,291.763 249.699,293.144 251.087 L 294.558 252.508 295.873 252.508 L 297.188 252.508 295.485 251.087 L 293.782 249.666 294.688 249.666 C 296.075 249.666,296.321 249.318,296.321 247.362 C 296.321 245.076,296.467 245.151,292.025 245.151 L 288.462 245.151 288.462 248.829 M300.000 245.485 C 299.690 245.795,299.666 246.042,299.666 248.829 C 299.666 252.822,299.323 252.508,303.679 252.508 C 307.672 252.508,307.692 252.500,307.692 250.844 L 307.692 249.848 307.065 249.674 C 306.058 249.395,306.020 249.419,306.020 250.334 L 306.020 251.171 303.679 251.171 L 301.338 251.171 301.338 248.829 L 301.338 246.488 303.679 246.488 L 306.020 246.488 306.020 247.157 C 306.020 247.884,306.118 247.932,307.170 247.722 C 307.677 247.620,307.692 247.591,307.692 246.718 C 307.692 245.174,307.632 245.151,303.679 245.151 C 300.557 245.151,300.312 245.173,300.000 245.485 M311.037 248.829 L 311.037 252.508 311.873 252.508 L 312.709 252.508 312.709 250.920 L 312.709 249.331 315.385 249.331 L 318.060 249.331 318.060 250.920 L 318.060 252.508 318.896 252.508 L 319.732 252.508 319.732 248.829 L 319.732 245.151 318.896 245.151 L 318.060 245.151 318.060 246.572 L 318.060 247.993 315.385 247.993 L 312.709 247.993 312.709 246.572 L 312.709 245.151 311.873 245.151 L 311.037 245.151 311.037 248.829 M323.579 248.829 L 323.579 252.508 324.415 252.508 L 325.251 252.508 325.251 248.829 L 325.251 245.151 324.415 245.151 L 323.579 245.151 323.579 248.829 M327.425 245.819 L 327.425 246.488 329.097 246.488 L 330.769 246.488 330.769 249.498 L 330.769 252.508 331.605 252.508 L 332.441 252.508 332.441 249.498 L 332.441 246.488 334.114 246.488 L 335.786 246.488 335.786 245.819 L 335.786 245.151 331.605 245.151 L 327.425 245.151 327.425 245.819 M337.960 248.829 L 337.960 252.508 341.722 252.508 L 345.485 252.508 345.485 251.839 L 345.485 251.171 342.559 251.171 L 339.632 251.171 339.632 250.251 L 339.632 249.331 341.304 249.331 L 342.977 249.331 342.977 248.662 L 342.977 247.993 341.304 247.993 L 339.632 247.993 339.632 247.241 L 339.632 246.488 342.559 246.488 L 345.485 246.488 345.485 245.819 L 345.485 245.151 341.722 245.151 L 337.960 245.151 337.960 248.829 M348.662 245.485 C 348.353 245.795,348.328 246.042,348.328 248.829 C 348.328 252.822,347.985 252.508,352.341 252.508 C 356.334 252.508,356.355 252.500,356.355 250.844 L 356.355 249.848 355.727 249.674 C 354.720 249.395,354.682 249.419,354.682 250.334 L 354.682 251.171 352.341 251.171 L 350.000 251.171 350.000 248.829 L 350.000 246.488 352.341 246.488 L 354.682 246.488 354.682 247.157 C 354.682 247.884,354.780 247.932,355.832 247.722 C 356.339 247.620,356.355 247.591,356.355 246.718 C 356.355 245.174,356.295 245.151,352.341 245.151 C 349.220 245.151,348.974 245.173,348.662 245.485 M358.194 245.819 L 358.194 246.488 359.866 246.488 L 361.538 246.488 361.538 249.498 L 361.538 252.508 362.375 252.508 L 363.211 252.508 363.211 249.498 L 363.211 246.488 364.883 246.488 L 366.555 246.488 366.555 245.819 L 366.555 245.151 362.375 245.151 L 358.194 245.151 358.194 245.819 M368.729 248.495 C 368.729 252.883,368.347 252.508,372.826 252.508 C 377.306 252.508,376.923 252.883,376.923 248.495 L 376.923 245.151 376.087 245.151 L 375.251 245.151 375.251 248.161 L 375.251 251.171 372.826 251.171 L 370.401 251.171 370.401 248.161 L 370.401 245.151 369.565 245.151 L 368.729 245.151 368.729 248.495 M380.769 248.829 L 380.769 252.508 381.605 252.508 L 382.441 252.508 382.441 251.087 L 382.441 249.666 383.239 249.666 C 384.019 249.666,384.071 249.699,385.452 251.087 L 386.866 252.508 388.181 252.508 L 389.495 252.508 387.793 251.087 L 386.090 249.666 386.996 249.666 C 388.383 249.666,388.629 249.318,388.629 247.362 C 388.629 245.076,388.774 245.151,384.333 245.151 L 380.769 245.151 380.769 248.829 M392.140 248.829 L 392.140 252.508 395.903 252.508 L 399.666 252.508 399.666 251.839 L 399.666 251.171 396.739 251.171 L 393.813 251.171 393.813 250.251 L 393.813 249.331 395.485 249.331 L 397.157 249.331 397.157 248.662 L 397.157 247.993 395.485 247.993 L 393.813 247.993 393.813 247.241 L 393.813 246.488 396.739 246.488 L 399.666 246.488 399.666 245.819 L 399.666 245.151 395.903 245.151 L 392.140 245.151 392.140 248.829 M19.064 248.829 L 19.064 251.171 16.221 251.171 L 13.378 251.171 13.378 248.829 L 13.378 246.488 16.221 246.488 L 19.064 246.488 19.064 248.829 M62.720 246.661 C 62.943 246.781,63.043 247.012,63.043 247.408 C 63.043 248.213,62.721 248.328,60.462 248.328 L 58.528 248.328 58.528 247.408 L 58.528 246.488 60.462 246.488 C 61.526 246.488,62.542 246.566,62.720 246.661 M113.043 248.829 L 113.043 251.171 110.201 251.171 L 107.358 251.171 107.358 248.829 L 107.358 246.488 110.201 246.488 L 113.043 246.488 113.043 248.829 M226.432 246.661 C 226.656 246.781,226.756 247.012,226.756 247.408 C 226.756 248.213,226.433 248.328,224.175 248.328 L 222.241 248.328 222.241 247.408 L 222.241 246.488 224.175 246.488 C 225.239 246.488,226.254 246.566,226.432 246.661 M294.325 246.661 C 294.549 246.781,294.649 247.012,294.649 247.408 C 294.649 248.213,294.326 248.328,292.068 248.328 L 290.134 248.328 290.134 247.408 L 290.134 246.488 292.068 246.488 C 293.132 246.488,294.147 246.566,294.325 246.661 M386.633 246.661 C 386.856 246.781,386.957 247.012,386.957 247.408 C 386.957 248.213,386.634 248.328,384.376 248.328 L 382.441 248.328 382.441 247.408 L 382.441 246.488 384.376 246.488 C 385.439 246.488,386.455 246.566,386.633 246.661 M281.874 248.387 C 282.583 249.766,282.642 249.690,280.907 249.631 L 279.498 249.582 280.239 248.186 C 280.778 247.169,281.021 246.851,281.132 247.015 C 281.216 247.139,281.550 247.756,281.874 248.387 M134.950 248.746 L 134.950 249.498 136.622 249.498 L 138.294 249.498 138.294 248.746 L 138.294 247.993 136.622 247.993 L 134.950 247.993 134.950 248.746 M266.221 248.746 L 266.221 249.498 267.893 249.498 L 269.565 249.498 269.565 248.746 L 269.565 247.993 267.893 247.993 L 266.221 247.993 266.221 248.746 " stroke="none" fill="#242424" fill-rule="evenodd"></path><path id="path2" d="M214.287 14.716 C 214.287 17.153,214.310 18.150,214.339 16.931 C 214.368 15.713,214.368 13.719,214.339 12.500 C 214.310 11.281,214.287 12.278,214.287 14.716 M221.483 23.829 C 221.483 29.256,221.504 31.452,221.530 28.709 C 221.556 25.966,221.556 21.526,221.530 18.843 C 221.504 16.159,221.483 18.403,221.483 23.829 M195.363 17.893 C 195.363 18.307,195.396 18.476,195.436 18.269 C 195.476 18.062,195.476 17.724,195.436 17.517 C 195.396 17.310,195.363 17.479,195.363 17.893 M214.292 32.107 C 214.292 36.936,214.313 38.911,214.339 36.497 C 214.365 34.082,214.365 30.132,214.339 27.717 C 214.313 25.303,214.292 27.278,214.292 32.107 M221.480 44.398 C 221.479 47.433,221.502 48.698,221.530 47.210 C 221.557 45.721,221.557 43.238,221.530 41.691 C 221.502 40.145,221.480 41.363,221.480 44.398 M252.057 103.512 C 252.057 104.018,252.088 104.224,252.126 103.972 C 252.165 103.719,252.165 103.305,252.126 103.052 C 252.088 102.799,252.057 103.006,252.057 103.512 M214.253 113.378 C 214.253 113.700,214.287 113.832,214.329 113.671 C 214.371 113.510,214.371 113.246,214.329 113.085 C 214.287 112.924,214.253 113.056,214.253 113.378 " stroke="none" fill="#1494c0" fill-rule="evenodd"></path><path id="path3" d="M214.287 14.716 C 214.287 17.153,214.310 18.150,214.339 16.931 C 214.368 15.713,214.368 13.719,214.339 12.500 C 214.310 11.281,214.287 12.278,214.287 14.716 M221.483 23.829 C 221.483 29.256,221.504 31.452,221.530 28.709 C 221.556 25.966,221.556 21.526,221.530 18.843 C 221.504 16.159,221.483 18.403,221.483 23.829 M195.363 17.893 C 195.363 18.307,195.396 18.476,195.436 18.269 C 195.476 18.062,195.476 17.724,195.436 17.517 C 195.396 17.310,195.363 17.479,195.363 17.893 M214.292 32.107 C 214.292 36.936,214.313 38.911,214.339 36.497 C 214.365 34.082,214.365 30.132,214.339 27.717 C 214.313 25.303,214.292 27.278,214.292 32.107 M221.480 44.398 C 221.479 47.433,221.502 48.698,221.530 47.210 C 221.557 45.721,221.557 43.238,221.530 41.691 C 221.502 40.145,221.480 41.363,221.480 44.398 M252.057 103.512 C 252.057 104.018,252.088 104.224,252.126 103.972 C 252.165 103.719,252.165 103.305,252.126 103.052 C 252.088 102.799,252.057 103.006,252.057 103.512 M214.253 113.378 C 214.253 113.700,214.287 113.832,214.329 113.671 C 214.371 113.510,214.371 113.246,214.329 113.085 C 214.287 112.924,214.253 113.056,214.253 113.378 " stroke="none" fill="#1494c0" fill-rule="evenodd"></path><path id="path4" d="M214.287 14.716 C 214.287 17.153,214.310 18.150,214.339 16.931 C 214.368 15.713,214.368 13.719,214.339 12.500 C 214.310 11.281,214.287 12.278,214.287 14.716 M221.483 23.829 C 221.483 29.256,221.504 31.452,221.530 28.709 C 221.556 25.966,221.556 21.526,221.530 18.843 C 221.504 16.159,221.483 18.403,221.483 23.829 M195.363 17.893 C 195.363 18.307,195.396 18.476,195.436 18.269 C 195.476 18.062,195.476 17.724,195.436 17.517 C 195.396 17.310,195.363 17.479,195.363 17.893 M214.292 32.107 C 214.292 36.936,214.313 38.911,214.339 36.497 C 214.365 34.082,214.365 30.132,214.339 27.717 C 214.313 25.303,214.292 27.278,214.292 32.107 M221.480 44.398 C 221.479 47.433,221.502 48.698,221.530 47.210 C 221.557 45.721,221.557 43.238,221.530 41.691 C 221.502 40.145,221.480 41.363,221.480 44.398 M252.057 103.512 C 252.057 104.018,252.088 104.224,252.126 103.972 C 252.165 103.719,252.165 103.305,252.126 103.052 C 252.088 102.799,252.057 103.006,252.057 103.512 M214.253 113.378 C 214.253 113.700,214.287 113.832,214.329 113.671 C 214.371 113.510,214.371 113.246,214.329 113.085 C 214.287 112.924,214.253 113.056,214.253 113.378 " stroke="none" fill="#1494c0" fill-rule="evenodd"></path></g></svg>